<?xml version="1.0" encoding="utf-8" standalone="no"?>
<!DOCTYPE svg PUBLIC "-//W3C//DTD SVG 1.1//EN"
  "http://www.w3.org/Graphics/SVG/1.1/DTD/svg11.dtd">
<svg xmlns:xlink="http://www.w3.org/1999/xlink" width="705.6pt" height="489.6pt" viewBox="0 0 705.6 489.6" xmlns="http://www.w3.org/2000/svg" version="1.1">
 <metadata>
  <rdf:RDF xmlns:dc="http://purl.org/dc/elements/1.1/" xmlns:cc="http://creativecommons.org/ns#" xmlns:rdf="http://www.w3.org/1999/02/22-rdf-syntax-ns#">
   <cc:Work>
    <dc:type rdf:resource="http://purl.org/dc/dcmitype/StillImage"/>
    <dc:date>2026-06-13T04:29:54.577729</dc:date>
    <dc:format>image/svg+xml</dc:format>
    <dc:creator>
     <cc:Agent>
      <dc:title>Matplotlib v3.10.8, https://matplotlib.org/</dc:title>
     </cc:Agent>
    </dc:creator>
   </cc:Work>
  </rdf:RDF>
 </metadata>
 <defs>
  <style type="text/css">*{stroke-linejoin: round; stroke-linecap: butt}</style>
 </defs>
 <g id="figure_1">
  <g id="patch_1">
   <path d="M 0 489.6 
L 705.6 489.6 
L 705.6 0 
L 0 0 
z
" style="fill: #fbf8f1"/>
  </g>
  <g id="axes_1">
   <g id="patch_2">
    <path d="M 45.06875 456.958 
L 694.8 456.958 
L 694.8 69.552 
L 45.06875 69.552 
z
" style="fill: #fbf8f1"/>
   </g>
   <g id="line2d_1">
    <path d="M 58.892819 405.303867 
L 151.05328 364.278743 
L 243.213741 360.901674 
L 335.374202 319.657666 
L 427.534663 264.092388 
L 519.695124 229.07094 
" clip-path="url(#p127987fc43)" style="fill: none; stroke: #d2ccbe; stroke-opacity: 0.6; stroke-linecap: square"/>
   </g>
   <g id="line2d_2">
    <path d="M 58.892819 405.303867 
L 151.05328 335.753381 
L 243.213741 287.884362 
L 335.374202 268.031453 
L 427.534663 265.223311 
L 519.695124 227.411357 
" clip-path="url(#p127987fc43)" style="fill: none; stroke: #d2ccbe; stroke-opacity: 0.6; stroke-linecap: square"/>
   </g>
   <g id="line2d_3">
    <path d="M 58.892819 405.303867 
L 151.05328 362.154233 
L 243.213741 383.558633 
L 335.374202 405.167533 
L 427.534663 372.413348 
L 519.695124 341.227002 
" clip-path="url(#p127987fc43)" style="fill: none; stroke: #d2ccbe; stroke-opacity: 0.6; stroke-linecap: square"/>
   </g>
   <g id="line2d_4">
    <path d="M 58.892819 405.303867 
L 151.05328 317.599728 
L 243.213741 354.723809 
L 335.374202 310.210955 
L 427.534663 254.074299 
L 519.695124 312.493665 
" clip-path="url(#p127987fc43)" style="fill: none; stroke: #d2ccbe; stroke-opacity: 0.6; stroke-linecap: square"/>
   </g>
   <g id="line2d_5">
    <path d="M 58.892819 405.303867 
L 151.05328 343.618234 
L 243.213741 330.51425 
L 335.374202 354.446927 
L 427.534663 275.233136 
L 519.695124 220.457643 
" clip-path="url(#p127987fc43)" style="fill: none; stroke: #d2ccbe; stroke-opacity: 0.6; stroke-linecap: square"/>
   </g>
   <g id="line2d_6">
    <path d="M 58.892819 405.303867 
L 151.05328 367.769072 
L 243.213741 354.788289 
L 335.374202 343.899288 
L 427.534663 343.801542 
L 519.695124 264.900275 
" clip-path="url(#p127987fc43)" style="fill: none; stroke: #d2ccbe; stroke-opacity: 0.6; stroke-linecap: square"/>
   </g>
   <g id="line2d_7">
    <path d="M 58.892819 405.303867 
L 151.05328 336.728751 
L 243.213741 366.350597 
L 335.374202 387.147375 
L 427.534663 320.814695 
L 519.695124 348.808967 
" clip-path="url(#p127987fc43)" style="fill: none; stroke: #d2ccbe; stroke-opacity: 0.6; stroke-linecap: square"/>
   </g>
   <g id="line2d_8">
    <path d="M 58.892819 405.303867 
L 151.05328 335.835414 
L 243.213741 388.488702 
L 335.374202 365.974351 
L 427.534663 352.624907 
L 519.695124 284.927822 
" clip-path="url(#p127987fc43)" style="fill: none; stroke: #d2ccbe; stroke-opacity: 0.6; stroke-linecap: square"/>
   </g>
   <g id="line2d_9">
    <path d="M 58.892819 405.303867 
L 151.05328 399.307139 
L 243.213741 376.305197 
L 335.374202 333.169314 
L 427.534663 247.534882 
L 519.695124 168.186875 
" clip-path="url(#p127987fc43)" style="fill: none; stroke: #d2ccbe; stroke-opacity: 0.6; stroke-linecap: square"/>
   </g>
   <g id="line2d_10">
    <path d="M 58.892819 405.303867 
L 151.05328 338.297483 
L 243.213741 305.246445 
L 335.374202 250.25862 
L 427.534663 202.855323 
L 519.695124 152.155673 
" clip-path="url(#p127987fc43)" style="fill: none; stroke: #d2ccbe; stroke-opacity: 0.6; stroke-linecap: square"/>
   </g>
   <g id="line2d_11">
    <path d="M 58.892819 405.303867 
L 151.05328 375.910134 
L 243.213741 379.274272 
L 335.374202 390.352141 
L 427.534663 301.559281 
L 519.695124 293.709626 
" clip-path="url(#p127987fc43)" style="fill: none; stroke: #d2ccbe; stroke-opacity: 0.6; stroke-linecap: square"/>
   </g>
   <g id="line2d_12">
    <path d="M 58.892819 405.303867 
L 151.05328 464.511529 
L 243.213741 480.824587 
L 335.374202 376.9927 
L 427.534663 393.469617 
L 519.695124 304.348613 
" clip-path="url(#p127987fc43)" style="fill: none; stroke: #d2ccbe; stroke-opacity: 0.6; stroke-linecap: square"/>
   </g>
   <g id="line2d_13">
    <path d="M 58.892819 405.303867 
L 151.05328 351.064162 
L 243.213741 288.479888 
L 335.374202 211.105797 
L 427.534663 163.65384 
L 519.695124 91.479537 
" clip-path="url(#p127987fc43)" style="fill: none; stroke: #d2ccbe; stroke-opacity: 0.6; stroke-linecap: square"/>
   </g>
   <g id="line2d_14">
    <path d="M 58.892819 405.303867 
L 151.05328 357.620471 
L 243.213741 335.223273 
L 335.374202 382.638617 
L 427.534663 384.217143 
L 519.695124 362.594316 
" clip-path="url(#p127987fc43)" style="fill: none; stroke: #d2ccbe; stroke-opacity: 0.6; stroke-linecap: square"/>
   </g>
   <g id="line2d_15">
    <path d="M 58.892819 405.303867 
L 151.05328 340.65847 
L 243.213741 340.39937 
L 335.374202 307.97951 
L 427.534663 259.495462 
L 519.695124 196.793314 
" clip-path="url(#p127987fc43)" style="fill: none; stroke: #d2ccbe; stroke-opacity: 0.6; stroke-linecap: square"/>
   </g>
   <g id="line2d_16">
    <path d="M 58.892819 405.303867 
L 151.05328 344.997864 
L 243.213741 298.506982 
L 335.374202 212.492843 
L 427.534663 183.360959 
L 519.695124 67.794476 
" clip-path="url(#p127987fc43)" style="fill: none; stroke: #d2ccbe; stroke-opacity: 0.6; stroke-linecap: square"/>
   </g>
   <g id="line2d_17">
    <path d="M 58.892819 405.303867 
L 151.05328 235.594901 
L 243.213741 332.576272 
L 335.374202 397.208031 
L 427.534663 413.804495 
L 519.695124 281.741167 
" clip-path="url(#p127987fc43)" style="fill: none; stroke: #d2ccbe; stroke-opacity: 0.6; stroke-linecap: square"/>
   </g>
   <g id="line2d_18">
    <path d="M 58.892819 405.303867 
L 151.05328 361.973111 
L 243.213741 369.017385 
L 335.374202 362.57829 
L 427.534663 326.703329 
L 519.695124 313.026303 
" clip-path="url(#p127987fc43)" style="fill: none; stroke: #d2ccbe; stroke-opacity: 0.6; stroke-linecap: square"/>
   </g>
   <g id="line2d_19">
    <path d="M 58.892819 405.303867 
L 151.05328 391.777041 
L 243.213741 365.583145 
L 335.374202 261.638659 
L 427.534663 181.022216 
L 519.695124 182.168557 
" clip-path="url(#p127987fc43)" style="fill: none; stroke: #d2ccbe; stroke-opacity: 0.6; stroke-linecap: square"/>
   </g>
   <g id="line2d_20">
    <path d="M 58.892819 405.303867 
L 151.05328 374.571246 
L 243.213741 377.66694 
L 335.374202 251.214542 
L 427.534663 258.303234 
L 519.695124 186.204954 
" clip-path="url(#p127987fc43)" style="fill: none; stroke: #d2ccbe; stroke-opacity: 0.6; stroke-linecap: square"/>
   </g>
   <g id="line2d_21">
    <path d="M 58.892819 405.303867 
L 151.05328 389.637736 
L 243.213741 337.069165 
L 335.374202 358.692293 
L 427.534663 313.16381 
L 519.695124 258.622467 
" clip-path="url(#p127987fc43)" style="fill: none; stroke: #d2ccbe; stroke-opacity: 0.6; stroke-linecap: square"/>
   </g>
   <g id="line2d_22">
    <path d="M 58.892819 405.303867 
L 151.05328 372.260249 
L 243.213741 340.932777 
L 335.374202 350.69921 
L 427.534663 300.494128 
L 519.695124 245.702255 
" clip-path="url(#p127987fc43)" style="fill: none; stroke: #d2ccbe; stroke-opacity: 0.6; stroke-linecap: square"/>
   </g>
   <g id="line2d_23">
    <path d="M 58.892819 405.303867 
L 151.05328 339.981574 
L 243.213741 309.762855 
L 335.374202 284.024727 
L 427.534663 262.026038 
L 519.695124 147.619383 
" clip-path="url(#p127987fc43)" style="fill: none; stroke: #d2ccbe; stroke-opacity: 0.6; stroke-linecap: square"/>
   </g>
   <g id="line2d_24">
    <path d="M 58.892819 405.303867 
L 151.05328 390.610751 
L 243.213741 293.899718 
L 335.374202 263.096384 
L 427.534663 135.880354 
L 519.695124 94.684935 
" clip-path="url(#p127987fc43)" style="fill: none; stroke: #d2ccbe; stroke-opacity: 0.6; stroke-linecap: square"/>
   </g>
   <g id="line2d_25">
    <path d="M 58.892819 405.303867 
L 151.05328 360.24745 
L 243.213741 329.444381 
L 335.374202 287.872116 
L 427.534663 288.400018 
L 519.695124 280.824627 
" clip-path="url(#p127987fc43)" style="fill: none; stroke: #d2ccbe; stroke-opacity: 0.6; stroke-linecap: square"/>
   </g>
   <g id="line2d_26">
    <path d="M 58.892819 405.303867 
L 151.05328 358.75733 
L 243.213741 366.020164 
L 335.374202 346.592978 
L 427.534663 317.326977 
L 519.695124 280.726588 
" clip-path="url(#p127987fc43)" style="fill: none; stroke: #d2ccbe; stroke-opacity: 0.6; stroke-linecap: square"/>
   </g>
   <g id="line2d_27">
    <path d="M 58.892819 405.303867 
L 151.05328 317.001523 
L 243.213741 381.247957 
L 335.374202 347.518579 
L 427.534663 294.442264 
L 519.695124 235.014312 
" clip-path="url(#p127987fc43)" style="fill: none; stroke: #d2ccbe; stroke-opacity: 0.6; stroke-linecap: square"/>
   </g>
   <g id="line2d_28">
    <path d="M 58.892819 405.303867 
L 151.05328 316.66318 
L 243.213741 327.093619 
L 335.374202 337.632332 
L 427.534663 284.253026 
L 519.695124 207.991718 
" clip-path="url(#p127987fc43)" style="fill: none; stroke: #d2ccbe; stroke-opacity: 0.6; stroke-linecap: square"/>
   </g>
   <g id="line2d_29">
    <path d="M 58.892819 405.303867 
L 151.05328 335.12162 
L 243.213741 326.630763 
L 335.374202 290.995694 
L 427.534663 282.133361 
L 519.695124 221.609465 
" clip-path="url(#p127987fc43)" style="fill: none; stroke: #d2ccbe; stroke-opacity: 0.6; stroke-linecap: square"/>
   </g>
   <g id="line2d_30">
    <path d="M 58.892819 405.303867 
L 151.05328 318.761755 
L 243.213741 295.786322 
L 335.374202 295.195187 
L 427.534663 273.204978 
L 519.695124 230.840329 
" clip-path="url(#p127987fc43)" style="fill: none; stroke: #d2ccbe; stroke-opacity: 0.6; stroke-linecap: square"/>
   </g>
   <g id="line2d_31">
    <path d="M 58.892819 405.303867 
L 151.05328 409.308587 
L 243.213741 379.273187 
L 335.374202 316.355658 
L 427.534663 323.520729 
L 519.695124 265.741786 
" clip-path="url(#p127987fc43)" style="fill: none; stroke: #d2ccbe; stroke-opacity: 0.6; stroke-linecap: square"/>
   </g>
   <g id="line2d_32">
    <path d="M 58.892819 405.303867 
L 151.05328 311.336319 
L 243.213741 325.937928 
L 335.374202 333.400373 
L 427.534663 309.288861 
L 519.695124 217.611234 
" clip-path="url(#p127987fc43)" style="fill: none; stroke: #d2ccbe; stroke-opacity: 0.6; stroke-linecap: square"/>
   </g>
   <g id="line2d_33">
    <path d="M 58.892819 405.303867 
L 151.05328 384.225128 
L 243.213741 232.784153 
L 335.374202 312.671189 
L 427.534663 285.350315 
L 519.695124 334.718535 
" clip-path="url(#p127987fc43)" style="fill: none; stroke: #d2ccbe; stroke-opacity: 0.6; stroke-linecap: square"/>
   </g>
   <g id="line2d_34">
    <path d="M 58.892819 405.303867 
L 151.05328 335.186847 
L 243.213741 312.960305 
L 335.374202 327.671188 
L 427.534663 281.499408 
L 519.695124 199.846726 
" clip-path="url(#p127987fc43)" style="fill: none; stroke: #d2ccbe; stroke-opacity: 0.6; stroke-linecap: square"/>
   </g>
   <g id="line2d_35">
    <path d="M 58.892819 405.303867 
L 151.05328 333.044162 
L 243.213741 330.81012 
L 335.374202 341.248489 
L 427.534663 339.245555 
L 519.695124 240.524007 
" clip-path="url(#p127987fc43)" style="fill: none; stroke: #d2ccbe; stroke-opacity: 0.6; stroke-linecap: square"/>
   </g>
   <g id="line2d_36">
    <path d="M 58.892819 405.303867 
L 151.05328 326.671632 
L 243.213741 302.39838 
L 335.374202 290.855283 
L 427.534663 276.610609 
L 519.695124 247.998463 
" clip-path="url(#p127987fc43)" style="fill: none; stroke: #d2ccbe; stroke-opacity: 0.6; stroke-linecap: square"/>
   </g>
   <g id="line2d_37">
    <path d="M 58.892819 405.303867 
L 151.05328 414.891791 
L 243.213741 329.435377 
L 335.374202 443.601698 
L 427.534663 381.010868 
L 519.695124 374.951084 
" clip-path="url(#p127987fc43)" style="fill: none; stroke: #d2ccbe; stroke-opacity: 0.6; stroke-linecap: square"/>
   </g>
   <g id="line2d_38">
    <path d="M 58.892819 405.303867 
L 151.05328 358.756469 
L 243.213741 369.06899 
L 335.374202 355.026408 
L 427.534663 294.624498 
L 519.695124 243.124583 
" clip-path="url(#p127987fc43)" style="fill: none; stroke: #d2ccbe; stroke-opacity: 0.6; stroke-linecap: square"/>
   </g>
   <g id="line2d_39">
    <path d="M 58.892819 405.303867 
L 151.05328 320.225855 
L 243.213741 311.619886 
L 335.374202 317.673514 
L 427.534663 249.872883 
L 519.695124 167.052711 
" clip-path="url(#p127987fc43)" style="fill: none; stroke: #d2ccbe; stroke-opacity: 0.6; stroke-linecap: square"/>
   </g>
   <g id="line2d_40">
    <path d="M 58.892819 405.303867 
L 151.05328 388.084993 
L 243.213741 368.845855 
L 335.374202 422.180849 
L 427.534663 353.833733 
L 519.695124 342.644573 
" clip-path="url(#p127987fc43)" style="fill: none; stroke: #d2ccbe; stroke-opacity: 0.6; stroke-linecap: square"/>
   </g>
   <g id="line2d_41">
    <path d="M 58.892819 405.303867 
L 151.05328 363.148737 
L 243.213741 365.361792 
L 335.374202 333.308188 
L 427.534663 327.489995 
L 519.695124 289.225558 
" clip-path="url(#p127987fc43)" style="fill: none; stroke: #d2ccbe; stroke-opacity: 0.6; stroke-linecap: square"/>
   </g>
   <g id="line2d_42">
    <path d="M 58.892819 405.303867 
L 151.05328 363.986024 
L 243.213741 345.632023 
L 335.374202 341.406334 
L 427.534663 251.002211 
L 519.695124 209.812419 
" clip-path="url(#p127987fc43)" style="fill: none; stroke: #d2ccbe; stroke-opacity: 0.6; stroke-linecap: square"/>
   </g>
   <g id="matplotlib.axis_1">
    <g id="xtick_1">
     <g id="line2d_43"/>
     <g id="text_1">
      <!-- 2019-20 -->
      <g style="fill: #5a5446" transform="translate(41.344038 466.840687) scale(0.084 -0.084)">
       <defs>
        <path id="DejaVuSans-32" d="M 1228 531 
L 3431 531 
L 3431 0 
L 469 0 
L 469 531 
Q 828 903 1448 1529 
Q 2069 2156 2228 2338 
Q 2531 2678 2651 2914 
Q 2772 3150 2772 3378 
Q 2772 3750 2511 3984 
Q 2250 4219 1831 4219 
Q 1534 4219 1204 4116 
Q 875 4013 500 3803 
L 500 4441 
Q 881 4594 1212 4672 
Q 1544 4750 1819 4750 
Q 2544 4750 2975 4387 
Q 3406 4025 3406 3419 
Q 3406 3131 3298 2873 
Q 3191 2616 2906 2266 
Q 2828 2175 2409 1742 
Q 1991 1309 1228 531 
z
" transform="scale(0.015625)"/>
        <path id="DejaVuSans-30" d="M 2034 4250 
Q 1547 4250 1301 3770 
Q 1056 3291 1056 2328 
Q 1056 1369 1301 889 
Q 1547 409 2034 409 
Q 2525 409 2770 889 
Q 3016 1369 3016 2328 
Q 3016 3291 2770 3770 
Q 2525 4250 2034 4250 
z
M 2034 4750 
Q 2819 4750 3233 4129 
Q 3647 3509 3647 2328 
Q 3647 1150 3233 529 
Q 2819 -91 2034 -91 
Q 1250 -91 836 529 
Q 422 1150 422 2328 
Q 422 3509 836 4129 
Q 1250 4750 2034 4750 
z
" transform="scale(0.015625)"/>
        <path id="DejaVuSans-31" d="M 794 531 
L 1825 531 
L 1825 4091 
L 703 3866 
L 703 4441 
L 1819 4666 
L 2450 4666 
L 2450 531 
L 3481 531 
L 3481 0 
L 794 0 
L 794 531 
z
" transform="scale(0.015625)"/>
        <path id="DejaVuSans-39" d="M 703 97 
L 703 672 
Q 941 559 1184 500 
Q 1428 441 1663 441 
Q 2288 441 2617 861 
Q 2947 1281 2994 2138 
Q 2813 1869 2534 1725 
Q 2256 1581 1919 1581 
Q 1219 1581 811 2004 
Q 403 2428 403 3163 
Q 403 3881 828 4315 
Q 1253 4750 1959 4750 
Q 2769 4750 3195 4129 
Q 3622 3509 3622 2328 
Q 3622 1225 3098 567 
Q 2575 -91 1691 -91 
Q 1453 -91 1209 -44 
Q 966 3 703 97 
z
M 1959 2075 
Q 2384 2075 2632 2365 
Q 2881 2656 2881 3163 
Q 2881 3666 2632 3958 
Q 2384 4250 1959 4250 
Q 1534 4250 1286 3958 
Q 1038 3666 1038 3163 
Q 1038 2656 1286 2365 
Q 1534 2075 1959 2075 
z
" transform="scale(0.015625)"/>
        <path id="DejaVuSans-2d" d="M 313 2009 
L 1997 2009 
L 1997 1497 
L 313 1497 
L 313 2009 
z
" transform="scale(0.015625)"/>
       </defs>
       <use xlink:href="#DejaVuSans-32"/>
       <use xlink:href="#DejaVuSans-30" transform="translate(63.623047 0)"/>
       <use xlink:href="#DejaVuSans-31" transform="translate(127.246094 0)"/>
       <use xlink:href="#DejaVuSans-39" transform="translate(190.869141 0)"/>
       <use xlink:href="#DejaVuSans-2d" transform="translate(254.492188 0)"/>
       <use xlink:href="#DejaVuSans-32" transform="translate(290.576172 0)"/>
       <use xlink:href="#DejaVuSans-30" transform="translate(354.199219 0)"/>
      </g>
     </g>
    </g>
    <g id="xtick_2">
     <g id="line2d_44"/>
     <g id="text_2">
      <!-- 2020-21 -->
      <g style="fill: #5a5446" transform="translate(133.504499 466.840687) scale(0.084 -0.084)">
       <use xlink:href="#DejaVuSans-32"/>
       <use xlink:href="#DejaVuSans-30" transform="translate(63.623047 0)"/>
       <use xlink:href="#DejaVuSans-32" transform="translate(127.246094 0)"/>
       <use xlink:href="#DejaVuSans-30" transform="translate(190.869141 0)"/>
       <use xlink:href="#DejaVuSans-2d" transform="translate(254.492188 0)"/>
       <use xlink:href="#DejaVuSans-32" transform="translate(290.576172 0)"/>
       <use xlink:href="#DejaVuSans-31" transform="translate(354.199219 0)"/>
      </g>
     </g>
    </g>
    <g id="xtick_3">
     <g id="line2d_45"/>
     <g id="text_3">
      <!-- 2021-22 -->
      <g style="fill: #5a5446" transform="translate(225.66496 466.840687) scale(0.084 -0.084)">
       <use xlink:href="#DejaVuSans-32"/>
       <use xlink:href="#DejaVuSans-30" transform="translate(63.623047 0)"/>
       <use xlink:href="#DejaVuSans-32" transform="translate(127.246094 0)"/>
       <use xlink:href="#DejaVuSans-31" transform="translate(190.869141 0)"/>
       <use xlink:href="#DejaVuSans-2d" transform="translate(254.492188 0)"/>
       <use xlink:href="#DejaVuSans-32" transform="translate(290.576172 0)"/>
       <use xlink:href="#DejaVuSans-32" transform="translate(354.199219 0)"/>
      </g>
     </g>
    </g>
    <g id="xtick_4">
     <g id="line2d_46"/>
     <g id="text_4">
      <!-- 2022-23 -->
      <g style="fill: #5a5446" transform="translate(317.825421 466.840687) scale(0.084 -0.084)">
       <defs>
        <path id="DejaVuSans-33" d="M 2597 2516 
Q 3050 2419 3304 2112 
Q 3559 1806 3559 1356 
Q 3559 666 3084 287 
Q 2609 -91 1734 -91 
Q 1441 -91 1130 -33 
Q 819 25 488 141 
L 488 750 
Q 750 597 1062 519 
Q 1375 441 1716 441 
Q 2309 441 2620 675 
Q 2931 909 2931 1356 
Q 2931 1769 2642 2001 
Q 2353 2234 1838 2234 
L 1294 2234 
L 1294 2753 
L 1863 2753 
Q 2328 2753 2575 2939 
Q 2822 3125 2822 3475 
Q 2822 3834 2567 4026 
Q 2313 4219 1838 4219 
Q 1578 4219 1281 4162 
Q 984 4106 628 3988 
L 628 4550 
Q 988 4650 1302 4700 
Q 1616 4750 1894 4750 
Q 2613 4750 3031 4423 
Q 3450 4097 3450 3541 
Q 3450 3153 3228 2886 
Q 3006 2619 2597 2516 
z
" transform="scale(0.015625)"/>
       </defs>
       <use xlink:href="#DejaVuSans-32"/>
       <use xlink:href="#DejaVuSans-30" transform="translate(63.623047 0)"/>
       <use xlink:href="#DejaVuSans-32" transform="translate(127.246094 0)"/>
       <use xlink:href="#DejaVuSans-32" transform="translate(190.869141 0)"/>
       <use xlink:href="#DejaVuSans-2d" transform="translate(254.492188 0)"/>
       <use xlink:href="#DejaVuSans-32" transform="translate(290.576172 0)"/>
       <use xlink:href="#DejaVuSans-33" transform="translate(354.199219 0)"/>
      </g>
     </g>
    </g>
    <g id="xtick_5">
     <g id="line2d_47"/>
     <g id="text_5">
      <!-- 2023-24 -->
      <g style="fill: #5a5446" transform="translate(409.985882 466.840687) scale(0.084 -0.084)">
       <defs>
        <path id="DejaVuSans-34" d="M 2419 4116 
L 825 1625 
L 2419 1625 
L 2419 4116 
z
M 2253 4666 
L 3047 4666 
L 3047 1625 
L 3713 1625 
L 3713 1100 
L 3047 1100 
L 3047 0 
L 2419 0 
L 2419 1100 
L 313 1100 
L 313 1709 
L 2253 4666 
z
" transform="scale(0.015625)"/>
       </defs>
       <use xlink:href="#DejaVuSans-32"/>
       <use xlink:href="#DejaVuSans-30" transform="translate(63.623047 0)"/>
       <use xlink:href="#DejaVuSans-32" transform="translate(127.246094 0)"/>
       <use xlink:href="#DejaVuSans-33" transform="translate(190.869141 0)"/>
       <use xlink:href="#DejaVuSans-2d" transform="translate(254.492188 0)"/>
       <use xlink:href="#DejaVuSans-32" transform="translate(290.576172 0)"/>
       <use xlink:href="#DejaVuSans-34" transform="translate(354.199219 0)"/>
      </g>
     </g>
    </g>
    <g id="xtick_6">
     <g id="line2d_48"/>
     <g id="text_6">
      <!-- 2024-25 -->
      <g style="fill: #5a5446" transform="translate(502.146343 466.840687) scale(0.084 -0.084)">
       <defs>
        <path id="DejaVuSans-35" d="M 691 4666 
L 3169 4666 
L 3169 4134 
L 1269 4134 
L 1269 2991 
Q 1406 3038 1543 3061 
Q 1681 3084 1819 3084 
Q 2600 3084 3056 2656 
Q 3513 2228 3513 1497 
Q 3513 744 3044 326 
Q 2575 -91 1722 -91 
Q 1428 -91 1123 -41 
Q 819 9 494 109 
L 494 744 
Q 775 591 1075 516 
Q 1375 441 1709 441 
Q 2250 441 2565 725 
Q 2881 1009 2881 1497 
Q 2881 1984 2565 2268 
Q 2250 2553 1709 2553 
Q 1456 2553 1204 2497 
Q 953 2441 691 2322 
L 691 4666 
z
" transform="scale(0.015625)"/>
       </defs>
       <use xlink:href="#DejaVuSans-32"/>
       <use xlink:href="#DejaVuSans-30" transform="translate(63.623047 0)"/>
       <use xlink:href="#DejaVuSans-32" transform="translate(127.246094 0)"/>
       <use xlink:href="#DejaVuSans-34" transform="translate(190.869141 0)"/>
       <use xlink:href="#DejaVuSans-2d" transform="translate(254.492188 0)"/>
       <use xlink:href="#DejaVuSans-32" transform="translate(290.576172 0)"/>
       <use xlink:href="#DejaVuSans-35" transform="translate(354.199219 0)"/>
      </g>
     </g>
    </g>
   </g>
   <g id="matplotlib.axis_2">
    <g id="ytick_1">
     <g id="line2d_49">
      <path d="M 45.06875 405.303867 
L 694.8 405.303867 
" clip-path="url(#p127987fc43)" style="fill: none; stroke: #e3ddce; stroke-width: 0.8; stroke-linecap: square"/>
     </g>
     <g id="line2d_50"/>
     <g id="text_7">
      <!-- 0% -->
      <g style="fill: #5a5446" transform="translate(25.704688 409.103085) scale(0.1 -0.1)">
       <defs>
        <path id="DejaVuSans-25" d="M 4653 2053 
Q 4381 2053 4226 1822 
Q 4072 1591 4072 1178 
Q 4072 772 4226 539 
Q 4381 306 4653 306 
Q 4919 306 5073 539 
Q 5228 772 5228 1178 
Q 5228 1588 5073 1820 
Q 4919 2053 4653 2053 
z
M 4653 2450 
Q 5147 2450 5437 2106 
Q 5728 1763 5728 1178 
Q 5728 594 5436 251 
Q 5144 -91 4653 -91 
Q 4153 -91 3862 251 
Q 3572 594 3572 1178 
Q 3572 1766 3864 2108 
Q 4156 2450 4653 2450 
z
M 1428 4353 
Q 1159 4353 1004 4120 
Q 850 3888 850 3481 
Q 850 3069 1003 2837 
Q 1156 2606 1428 2606 
Q 1700 2606 1854 2837 
Q 2009 3069 2009 3481 
Q 2009 3884 1853 4118 
Q 1697 4353 1428 4353 
z
M 4250 4750 
L 4750 4750 
L 1831 -91 
L 1331 -91 
L 4250 4750 
z
M 1428 4750 
Q 1922 4750 2215 4408 
Q 2509 4066 2509 3481 
Q 2509 2891 2217 2550 
Q 1925 2209 1428 2209 
Q 931 2209 642 2551 
Q 353 2894 353 3481 
Q 353 4063 643 4406 
Q 934 4750 1428 4750 
z
" transform="scale(0.015625)"/>
       </defs>
       <use xlink:href="#DejaVuSans-30"/>
       <use xlink:href="#DejaVuSans-25" transform="translate(63.623047 0)"/>
      </g>
     </g>
    </g>
    <g id="ytick_2">
     <g id="line2d_51">
      <path d="M 45.06875 340.7362 
L 694.8 340.7362 
" clip-path="url(#p127987fc43)" style="fill: none; stroke: #e3ddce; stroke-width: 0.8; stroke-linecap: square"/>
     </g>
     <g id="line2d_52"/>
     <g id="text_8">
      <!-- +10% -->
      <g style="fill: #5a5446" transform="translate(10.9625 344.535419) scale(0.1 -0.1)">
       <defs>
        <path id="DejaVuSans-2b" d="M 2944 4013 
L 2944 2272 
L 4684 2272 
L 4684 1741 
L 2944 1741 
L 2944 0 
L 2419 0 
L 2419 1741 
L 678 1741 
L 678 2272 
L 2419 2272 
L 2419 4013 
L 2944 4013 
z
" transform="scale(0.015625)"/>
       </defs>
       <use xlink:href="#DejaVuSans-2b"/>
       <use xlink:href="#DejaVuSans-31" transform="translate(83.789062 0)"/>
       <use xlink:href="#DejaVuSans-30" transform="translate(147.412109 0)"/>
       <use xlink:href="#DejaVuSans-25" transform="translate(211.035156 0)"/>
      </g>
     </g>
    </g>
    <g id="ytick_3">
     <g id="line2d_53">
      <path d="M 45.06875 276.168533 
L 694.8 276.168533 
" clip-path="url(#p127987fc43)" style="fill: none; stroke: #e3ddce; stroke-width: 0.8; stroke-linecap: square"/>
     </g>
     <g id="line2d_54"/>
     <g id="text_9">
      <!-- +20% -->
      <g style="fill: #5a5446" transform="translate(10.9625 279.967752) scale(0.1 -0.1)">
       <use xlink:href="#DejaVuSans-2b"/>
       <use xlink:href="#DejaVuSans-32" transform="translate(83.789062 0)"/>
       <use xlink:href="#DejaVuSans-30" transform="translate(147.412109 0)"/>
       <use xlink:href="#DejaVuSans-25" transform="translate(211.035156 0)"/>
      </g>
     </g>
    </g>
    <g id="ytick_4">
     <g id="line2d_55">
      <path d="M 45.06875 211.600867 
L 694.8 211.600867 
" clip-path="url(#p127987fc43)" style="fill: none; stroke: #e3ddce; stroke-width: 0.8; stroke-linecap: square"/>
     </g>
     <g id="line2d_56"/>
     <g id="text_10">
      <!-- +30% -->
      <g style="fill: #5a5446" transform="translate(10.9625 215.400085) scale(0.1 -0.1)">
       <use xlink:href="#DejaVuSans-2b"/>
       <use xlink:href="#DejaVuSans-33" transform="translate(83.789062 0)"/>
       <use xlink:href="#DejaVuSans-30" transform="translate(147.412109 0)"/>
       <use xlink:href="#DejaVuSans-25" transform="translate(211.035156 0)"/>
      </g>
     </g>
    </g>
    <g id="ytick_5">
     <g id="line2d_57">
      <path d="M 45.06875 147.0332 
L 694.8 147.0332 
" clip-path="url(#p127987fc43)" style="fill: none; stroke: #e3ddce; stroke-width: 0.8; stroke-linecap: square"/>
     </g>
     <g id="line2d_58"/>
     <g id="text_11">
      <!-- +40% -->
      <g style="fill: #5a5446" transform="translate(10.9625 150.832419) scale(0.1 -0.1)">
       <use xlink:href="#DejaVuSans-2b"/>
       <use xlink:href="#DejaVuSans-34" transform="translate(83.789062 0)"/>
       <use xlink:href="#DejaVuSans-30" transform="translate(147.412109 0)"/>
       <use xlink:href="#DejaVuSans-25" transform="translate(211.035156 0)"/>
      </g>
     </g>
    </g>
    <g id="ytick_6">
     <g id="line2d_59">
      <path d="M 45.06875 82.465533 
L 694.8 82.465533 
" clip-path="url(#p127987fc43)" style="fill: none; stroke: #e3ddce; stroke-width: 0.8; stroke-linecap: square"/>
     </g>
     <g id="line2d_60"/>
     <g id="text_12">
      <!-- +50% -->
      <g style="fill: #5a5446" transform="translate(10.9625 86.264752) scale(0.1 -0.1)">
       <use xlink:href="#DejaVuSans-2b"/>
       <use xlink:href="#DejaVuSans-35" transform="translate(83.789062 0)"/>
       <use xlink:href="#DejaVuSans-30" transform="translate(147.412109 0)"/>
       <use xlink:href="#DejaVuSans-25" transform="translate(211.035156 0)"/>
      </g>
     </g>
    </g>
   </g>
   <g id="line2d_61">
    <path d="M 45.06875 405.303867 
L 694.8 405.303867 
" clip-path="url(#p127987fc43)" style="fill: none; stroke: #8a8170; stroke-width: 0.8; stroke-linecap: square"/>
   </g>
   <g id="patch_3">
    <path d="M 45.06875 456.958 
L 694.8 456.958 
" style="fill: none; stroke: #8a8170; stroke-width: 0.8; stroke-linejoin: miter; stroke-linecap: square"/>
   </g>
   <g id="text_13">
    <!-- Hebron  +35.6% -->
    <g style="fill: #2f6fb0" transform="translate(529.695124 177.740949) scale(0.086 -0.086)">
     <defs>
      <path id="DejaVuSans-Bold-48" d="M 588 4666 
L 1791 4666 
L 1791 2888 
L 3566 2888 
L 3566 4666 
L 4769 4666 
L 4769 0 
L 3566 0 
L 3566 1978 
L 1791 1978 
L 1791 0 
L 588 0 
L 588 4666 
z
" transform="scale(0.015625)"/>
      <path id="DejaVuSans-Bold-65" d="M 4031 1759 
L 4031 1441 
L 1416 1441 
Q 1456 1047 1700 850 
Q 1944 653 2381 653 
Q 2734 653 3104 758 
Q 3475 863 3866 1075 
L 3866 213 
Q 3469 63 3072 -14 
Q 2675 -91 2278 -91 
Q 1328 -91 801 392 
Q 275 875 275 1747 
Q 275 2603 792 3093 
Q 1309 3584 2216 3584 
Q 3041 3584 3536 3087 
Q 4031 2591 4031 1759 
z
M 2881 2131 
Q 2881 2450 2695 2645 
Q 2509 2841 2209 2841 
Q 1884 2841 1681 2658 
Q 1478 2475 1428 2131 
L 2881 2131 
z
" transform="scale(0.015625)"/>
      <path id="DejaVuSans-Bold-62" d="M 2400 722 
Q 2759 722 2948 984 
Q 3138 1247 3138 1747 
Q 3138 2247 2948 2509 
Q 2759 2772 2400 2772 
Q 2041 2772 1848 2508 
Q 1656 2244 1656 1747 
Q 1656 1250 1848 986 
Q 2041 722 2400 722 
z
M 1656 2988 
Q 1888 3294 2169 3439 
Q 2450 3584 2816 3584 
Q 3463 3584 3878 3070 
Q 4294 2556 4294 1747 
Q 4294 938 3878 423 
Q 3463 -91 2816 -91 
Q 2450 -91 2169 54 
Q 1888 200 1656 506 
L 1656 0 
L 538 0 
L 538 4863 
L 1656 4863 
L 1656 2988 
z
" transform="scale(0.015625)"/>
      <path id="DejaVuSans-Bold-72" d="M 3138 2547 
Q 2991 2616 2845 2648 
Q 2700 2681 2553 2681 
Q 2122 2681 1889 2404 
Q 1656 2128 1656 1613 
L 1656 0 
L 538 0 
L 538 3500 
L 1656 3500 
L 1656 2925 
Q 1872 3269 2151 3426 
Q 2431 3584 2822 3584 
Q 2878 3584 2943 3579 
Q 3009 3575 3134 3559 
L 3138 2547 
z
" transform="scale(0.015625)"/>
      <path id="DejaVuSans-Bold-6f" d="M 2203 2784 
Q 1831 2784 1636 2517 
Q 1441 2250 1441 1747 
Q 1441 1244 1636 976 
Q 1831 709 2203 709 
Q 2569 709 2762 976 
Q 2956 1244 2956 1747 
Q 2956 2250 2762 2517 
Q 2569 2784 2203 2784 
z
M 2203 3584 
Q 3106 3584 3614 3096 
Q 4122 2609 4122 1747 
Q 4122 884 3614 396 
Q 3106 -91 2203 -91 
Q 1297 -91 786 396 
Q 275 884 275 1747 
Q 275 2609 786 3096 
Q 1297 3584 2203 3584 
z
" transform="scale(0.015625)"/>
      <path id="DejaVuSans-Bold-6e" d="M 4056 2131 
L 4056 0 
L 2931 0 
L 2931 347 
L 2931 1631 
Q 2931 2084 2911 2256 
Q 2891 2428 2841 2509 
Q 2775 2619 2662 2680 
Q 2550 2741 2406 2741 
Q 2056 2741 1856 2470 
Q 1656 2200 1656 1722 
L 1656 0 
L 538 0 
L 538 3500 
L 1656 3500 
L 1656 2988 
Q 1909 3294 2193 3439 
Q 2478 3584 2822 3584 
Q 3428 3584 3742 3212 
Q 4056 2841 4056 2131 
z
" transform="scale(0.015625)"/>
      <path id="DejaVuSans-Bold-20" transform="scale(0.015625)"/>
      <path id="DejaVuSans-Bold-2b" d="M 3053 4013 
L 3053 2375 
L 4684 2375 
L 4684 1638 
L 3053 1638 
L 3053 0 
L 2309 0 
L 2309 1638 
L 678 1638 
L 678 2375 
L 2309 2375 
L 2309 4013 
L 3053 4013 
z
" transform="scale(0.015625)"/>
      <path id="DejaVuSans-Bold-33" d="M 2981 2516 
Q 3453 2394 3698 2092 
Q 3944 1791 3944 1325 
Q 3944 631 3412 270 
Q 2881 -91 1863 -91 
Q 1503 -91 1142 -33 
Q 781 25 428 141 
L 428 1069 
Q 766 900 1098 814 
Q 1431 728 1753 728 
Q 2231 728 2486 893 
Q 2741 1059 2741 1369 
Q 2741 1688 2480 1852 
Q 2219 2016 1709 2016 
L 1228 2016 
L 1228 2791 
L 1734 2791 
Q 2188 2791 2409 2933 
Q 2631 3075 2631 3366 
Q 2631 3634 2415 3781 
Q 2200 3928 1806 3928 
Q 1516 3928 1219 3862 
Q 922 3797 628 3669 
L 628 4550 
Q 984 4650 1334 4700 
Q 1684 4750 2022 4750 
Q 2931 4750 3382 4451 
Q 3834 4153 3834 3553 
Q 3834 3144 3618 2883 
Q 3403 2622 2981 2516 
z
" transform="scale(0.015625)"/>
      <path id="DejaVuSans-Bold-35" d="M 678 4666 
L 3669 4666 
L 3669 3781 
L 1638 3781 
L 1638 3059 
Q 1775 3097 1914 3117 
Q 2053 3138 2203 3138 
Q 3056 3138 3531 2711 
Q 4006 2284 4006 1522 
Q 4006 766 3489 337 
Q 2972 -91 2053 -91 
Q 1656 -91 1267 -14 
Q 878 63 494 219 
L 494 1166 
Q 875 947 1217 837 
Q 1559 728 1863 728 
Q 2300 728 2551 942 
Q 2803 1156 2803 1522 
Q 2803 1891 2551 2103 
Q 2300 2316 1863 2316 
Q 1603 2316 1309 2248 
Q 1016 2181 678 2041 
L 678 4666 
z
" transform="scale(0.015625)"/>
      <path id="DejaVuSans-Bold-2e" d="M 653 1209 
L 1778 1209 
L 1778 0 
L 653 0 
L 653 1209 
z
" transform="scale(0.015625)"/>
      <path id="DejaVuSans-Bold-36" d="M 2316 2303 
Q 2000 2303 1842 2098 
Q 1684 1894 1684 1484 
Q 1684 1075 1842 870 
Q 2000 666 2316 666 
Q 2634 666 2792 870 
Q 2950 1075 2950 1484 
Q 2950 1894 2792 2098 
Q 2634 2303 2316 2303 
z
M 3803 4544 
L 3803 3681 
Q 3506 3822 3243 3889 
Q 2981 3956 2731 3956 
Q 2194 3956 1894 3657 
Q 1594 3359 1544 2772 
Q 1750 2925 1990 3001 
Q 2231 3078 2516 3078 
Q 3231 3078 3670 2659 
Q 4109 2241 4109 1563 
Q 4109 813 3618 361 
Q 3128 -91 2303 -91 
Q 1394 -91 895 523 
Q 397 1138 397 2266 
Q 397 3422 980 4083 
Q 1563 4744 2578 4744 
Q 2900 4744 3203 4694 
Q 3506 4644 3803 4544 
z
" transform="scale(0.015625)"/>
      <path id="DejaVuSans-Bold-25" d="M 4959 1925 
Q 4738 1925 4616 1733 
Q 4494 1541 4494 1184 
Q 4494 825 4614 633 
Q 4734 441 4959 441 
Q 5184 441 5303 633 
Q 5422 825 5422 1184 
Q 5422 1541 5301 1733 
Q 5181 1925 4959 1925 
z
M 4959 2450 
Q 5541 2450 5875 2112 
Q 6209 1775 6209 1184 
Q 6209 594 5875 251 
Q 5541 -91 4959 -91 
Q 4378 -91 4042 251 
Q 3706 594 3706 1184 
Q 3706 1772 4042 2111 
Q 4378 2450 4959 2450 
z
M 2094 -91 
L 1403 -91 
L 4319 4750 
L 5013 4750 
L 2094 -91 
z
M 1453 4750 
Q 2034 4750 2367 4411 
Q 2700 4072 2700 3481 
Q 2700 2891 2367 2550 
Q 2034 2209 1453 2209 
Q 872 2209 539 2550 
Q 206 2891 206 3481 
Q 206 4072 539 4411 
Q 872 4750 1453 4750 
z
M 1453 4225 
Q 1228 4225 1106 4031 
Q 984 3838 984 3481 
Q 984 3122 1106 2926 
Q 1228 2731 1453 2731 
Q 1678 2731 1798 2926 
Q 1919 3122 1919 3481 
Q 1919 3838 1797 4031 
Q 1675 4225 1453 4225 
z
" transform="scale(0.015625)"/>
     </defs>
     <use xlink:href="#DejaVuSans-Bold-48"/>
     <use xlink:href="#DejaVuSans-Bold-65" transform="translate(83.691406 0)"/>
     <use xlink:href="#DejaVuSans-Bold-62" transform="translate(151.513672 0)"/>
     <use xlink:href="#DejaVuSans-Bold-72" transform="translate(223.095703 0)"/>
     <use xlink:href="#DejaVuSans-Bold-6f" transform="translate(272.412109 0)"/>
     <use xlink:href="#DejaVuSans-Bold-6e" transform="translate(341.113281 0)"/>
     <use xlink:href="#DejaVuSans-Bold-20" transform="translate(412.304688 0)"/>
     <use xlink:href="#DejaVuSans-Bold-20" transform="translate(447.119141 0)"/>
     <use xlink:href="#DejaVuSans-Bold-2b" transform="translate(481.933594 0)"/>
     <use xlink:href="#DejaVuSans-Bold-33" transform="translate(565.722656 0)"/>
     <use xlink:href="#DejaVuSans-Bold-35" transform="translate(635.302734 0)"/>
     <use xlink:href="#DejaVuSans-Bold-2e" transform="translate(704.882812 0)"/>
     <use xlink:href="#DejaVuSans-Bold-36" transform="translate(742.871094 0)"/>
     <use xlink:href="#DejaVuSans-Bold-25" transform="translate(812.451172 0)"/>
    </g>
   </g>
   <g id="text_14">
    <!-- Marlborough  +30.7% -->
    <g style="fill: #c4702a" transform="translate(529.695124 209.203827) scale(0.086 -0.086)">
     <defs>
      <path id="DejaVuSans-Bold-4d" d="M 588 4666 
L 2119 4666 
L 3181 2169 
L 4250 4666 
L 5778 4666 
L 5778 0 
L 4641 0 
L 4641 3413 
L 3566 897 
L 2803 897 
L 1728 3413 
L 1728 0 
L 588 0 
L 588 4666 
z
" transform="scale(0.015625)"/>
      <path id="DejaVuSans-Bold-61" d="M 2106 1575 
Q 1756 1575 1579 1456 
Q 1403 1338 1403 1106 
Q 1403 894 1545 773 
Q 1688 653 1941 653 
Q 2256 653 2472 879 
Q 2688 1106 2688 1447 
L 2688 1575 
L 2106 1575 
z
M 3816 1997 
L 3816 0 
L 2688 0 
L 2688 519 
Q 2463 200 2181 54 
Q 1900 -91 1497 -91 
Q 953 -91 614 226 
Q 275 544 275 1050 
Q 275 1666 698 1953 
Q 1122 2241 2028 2241 
L 2688 2241 
L 2688 2328 
Q 2688 2594 2478 2717 
Q 2269 2841 1825 2841 
Q 1466 2841 1156 2769 
Q 847 2697 581 2553 
L 581 3406 
Q 941 3494 1303 3539 
Q 1666 3584 2028 3584 
Q 2975 3584 3395 3211 
Q 3816 2838 3816 1997 
z
" transform="scale(0.015625)"/>
      <path id="DejaVuSans-Bold-6c" d="M 538 4863 
L 1656 4863 
L 1656 0 
L 538 0 
L 538 4863 
z
" transform="scale(0.015625)"/>
      <path id="DejaVuSans-Bold-75" d="M 500 1363 
L 500 3500 
L 1625 3500 
L 1625 3150 
Q 1625 2866 1622 2436 
Q 1619 2006 1619 1863 
Q 1619 1441 1641 1255 
Q 1663 1069 1716 984 
Q 1784 875 1895 815 
Q 2006 756 2150 756 
Q 2500 756 2700 1025 
Q 2900 1294 2900 1772 
L 2900 3500 
L 4019 3500 
L 4019 0 
L 2900 0 
L 2900 506 
Q 2647 200 2364 54 
Q 2081 -91 1741 -91 
Q 1134 -91 817 281 
Q 500 653 500 1363 
z
" transform="scale(0.015625)"/>
      <path id="DejaVuSans-Bold-67" d="M 2919 594 
Q 2688 288 2409 144 
Q 2131 0 1766 0 
Q 1125 0 706 504 
Q 288 1009 288 1791 
Q 288 2575 706 3076 
Q 1125 3578 1766 3578 
Q 2131 3578 2409 3434 
Q 2688 3291 2919 2981 
L 2919 3500 
L 4044 3500 
L 4044 353 
Q 4044 -491 3511 -936 
Q 2978 -1381 1966 -1381 
Q 1638 -1381 1331 -1331 
Q 1025 -1281 716 -1178 
L 716 -306 
Q 1009 -475 1290 -558 
Q 1572 -641 1856 -641 
Q 2406 -641 2662 -400 
Q 2919 -159 2919 353 
L 2919 594 
z
M 2181 2772 
Q 1834 2772 1640 2515 
Q 1447 2259 1447 1791 
Q 1447 1309 1634 1061 
Q 1822 813 2181 813 
Q 2531 813 2725 1069 
Q 2919 1325 2919 1791 
Q 2919 2259 2725 2515 
Q 2531 2772 2181 2772 
z
" transform="scale(0.015625)"/>
      <path id="DejaVuSans-Bold-68" d="M 4056 2131 
L 4056 0 
L 2931 0 
L 2931 347 
L 2931 1625 
Q 2931 2084 2911 2256 
Q 2891 2428 2841 2509 
Q 2775 2619 2662 2680 
Q 2550 2741 2406 2741 
Q 2056 2741 1856 2470 
Q 1656 2200 1656 1722 
L 1656 0 
L 538 0 
L 538 4863 
L 1656 4863 
L 1656 2988 
Q 1909 3294 2193 3439 
Q 2478 3584 2822 3584 
Q 3428 3584 3742 3212 
Q 4056 2841 4056 2131 
z
" transform="scale(0.015625)"/>
      <path id="DejaVuSans-Bold-30" d="M 2944 2338 
Q 2944 3213 2780 3570 
Q 2616 3928 2228 3928 
Q 1841 3928 1675 3570 
Q 1509 3213 1509 2338 
Q 1509 1453 1675 1090 
Q 1841 728 2228 728 
Q 2613 728 2778 1090 
Q 2944 1453 2944 2338 
z
M 4147 2328 
Q 4147 1169 3647 539 
Q 3147 -91 2228 -91 
Q 1306 -91 806 539 
Q 306 1169 306 2328 
Q 306 3491 806 4120 
Q 1306 4750 2228 4750 
Q 3147 4750 3647 4120 
Q 4147 3491 4147 2328 
z
" transform="scale(0.015625)"/>
      <path id="DejaVuSans-Bold-37" d="M 428 4666 
L 3944 4666 
L 3944 3988 
L 2125 0 
L 953 0 
L 2675 3781 
L 428 3781 
L 428 4666 
z
" transform="scale(0.015625)"/>
     </defs>
     <use xlink:href="#DejaVuSans-Bold-4d"/>
     <use xlink:href="#DejaVuSans-Bold-61" transform="translate(99.511719 0)"/>
     <use xlink:href="#DejaVuSans-Bold-72" transform="translate(166.992188 0)"/>
     <use xlink:href="#DejaVuSans-Bold-6c" transform="translate(216.308594 0)"/>
     <use xlink:href="#DejaVuSans-Bold-62" transform="translate(250.585938 0)"/>
     <use xlink:href="#DejaVuSans-Bold-6f" transform="translate(322.167969 0)"/>
     <use xlink:href="#DejaVuSans-Bold-72" transform="translate(390.869141 0)"/>
     <use xlink:href="#DejaVuSans-Bold-6f" transform="translate(440.185547 0)"/>
     <use xlink:href="#DejaVuSans-Bold-75" transform="translate(508.886719 0)"/>
     <use xlink:href="#DejaVuSans-Bold-67" transform="translate(580.078125 0)"/>
     <use xlink:href="#DejaVuSans-Bold-68" transform="translate(651.660156 0)"/>
     <use xlink:href="#DejaVuSans-Bold-20" transform="translate(722.851562 0)"/>
     <use xlink:href="#DejaVuSans-Bold-20" transform="translate(757.666016 0)"/>
     <use xlink:href="#DejaVuSans-Bold-2b" transform="translate(792.480469 0)"/>
     <use xlink:href="#DejaVuSans-Bold-33" transform="translate(876.269531 0)"/>
     <use xlink:href="#DejaVuSans-Bold-30" transform="translate(945.849609 0)"/>
     <use xlink:href="#DejaVuSans-Bold-2e" transform="translate(1015.429688 0)"/>
     <use xlink:href="#DejaVuSans-Bold-37" transform="translate(1053.417969 0)"/>
     <use xlink:href="#DejaVuSans-Bold-25" transform="translate(1122.998047 0)"/>
    </g>
   </g>
   <g id="text_15">
    <!-- Peer median  +24.8% -->
    <g style="fill: #9a6f08" transform="translate(529.695124 243.764893) scale(0.086 -0.086)">
     <defs>
      <path id="DejaVuSans-Bold-50" d="M 588 4666 
L 2584 4666 
Q 3475 4666 3951 4270 
Q 4428 3875 4428 3144 
Q 4428 2409 3951 2014 
Q 3475 1619 2584 1619 
L 1791 1619 
L 1791 0 
L 588 0 
L 588 4666 
z
M 1791 3794 
L 1791 2491 
L 2456 2491 
Q 2806 2491 2997 2661 
Q 3188 2831 3188 3144 
Q 3188 3456 2997 3625 
Q 2806 3794 2456 3794 
L 1791 3794 
z
" transform="scale(0.015625)"/>
      <path id="DejaVuSans-Bold-6d" d="M 3781 2919 
Q 3994 3244 4286 3414 
Q 4578 3584 4928 3584 
Q 5531 3584 5847 3212 
Q 6163 2841 6163 2131 
L 6163 0 
L 5038 0 
L 5038 1825 
Q 5041 1866 5042 1909 
Q 5044 1953 5044 2034 
Q 5044 2406 4934 2573 
Q 4825 2741 4581 2741 
Q 4263 2741 4089 2478 
Q 3916 2216 3909 1719 
L 3909 0 
L 2784 0 
L 2784 1825 
Q 2784 2406 2684 2573 
Q 2584 2741 2328 2741 
Q 2006 2741 1831 2477 
Q 1656 2213 1656 1722 
L 1656 0 
L 531 0 
L 531 3500 
L 1656 3500 
L 1656 2988 
Q 1863 3284 2130 3434 
Q 2397 3584 2719 3584 
Q 3081 3584 3359 3409 
Q 3638 3234 3781 2919 
z
" transform="scale(0.015625)"/>
      <path id="DejaVuSans-Bold-64" d="M 2919 2988 
L 2919 4863 
L 4044 4863 
L 4044 0 
L 2919 0 
L 2919 506 
Q 2688 197 2409 53 
Q 2131 -91 1766 -91 
Q 1119 -91 703 423 
Q 288 938 288 1747 
Q 288 2556 703 3070 
Q 1119 3584 1766 3584 
Q 2128 3584 2408 3439 
Q 2688 3294 2919 2988 
z
M 2181 722 
Q 2541 722 2730 984 
Q 2919 1247 2919 1747 
Q 2919 2247 2730 2509 
Q 2541 2772 2181 2772 
Q 1825 2772 1636 2509 
Q 1447 2247 1447 1747 
Q 1447 1247 1636 984 
Q 1825 722 2181 722 
z
" transform="scale(0.015625)"/>
      <path id="DejaVuSans-Bold-69" d="M 538 3500 
L 1656 3500 
L 1656 0 
L 538 0 
L 538 3500 
z
M 538 4863 
L 1656 4863 
L 1656 3950 
L 538 3950 
L 538 4863 
z
" transform="scale(0.015625)"/>
      <path id="DejaVuSans-Bold-32" d="M 1844 884 
L 3897 884 
L 3897 0 
L 506 0 
L 506 884 
L 2209 2388 
Q 2438 2594 2547 2791 
Q 2656 2988 2656 3200 
Q 2656 3528 2436 3728 
Q 2216 3928 1850 3928 
Q 1569 3928 1234 3808 
Q 900 3688 519 3450 
L 519 4475 
Q 925 4609 1322 4679 
Q 1719 4750 2100 4750 
Q 2938 4750 3402 4381 
Q 3866 4013 3866 3353 
Q 3866 2972 3669 2642 
Q 3472 2313 2841 1759 
L 1844 884 
z
" transform="scale(0.015625)"/>
      <path id="DejaVuSans-Bold-34" d="M 2356 3675 
L 1038 1722 
L 2356 1722 
L 2356 3675 
z
M 2156 4666 
L 3494 4666 
L 3494 1722 
L 4159 1722 
L 4159 850 
L 3494 850 
L 3494 0 
L 2356 0 
L 2356 850 
L 288 850 
L 288 1881 
L 2156 4666 
z
" transform="scale(0.015625)"/>
      <path id="DejaVuSans-Bold-38" d="M 2228 2088 
Q 1891 2088 1709 1903 
Q 1528 1719 1528 1375 
Q 1528 1031 1709 848 
Q 1891 666 2228 666 
Q 2563 666 2741 848 
Q 2919 1031 2919 1375 
Q 2919 1722 2741 1905 
Q 2563 2088 2228 2088 
z
M 1350 2484 
Q 925 2613 709 2878 
Q 494 3144 494 3541 
Q 494 4131 934 4440 
Q 1375 4750 2228 4750 
Q 3075 4750 3515 4442 
Q 3956 4134 3956 3541 
Q 3956 3144 3739 2878 
Q 3522 2613 3097 2484 
Q 3572 2353 3814 2058 
Q 4056 1763 4056 1313 
Q 4056 619 3595 264 
Q 3134 -91 2228 -91 
Q 1319 -91 855 264 
Q 391 619 391 1313 
Q 391 1763 633 2058 
Q 875 2353 1350 2484 
z
M 1631 3419 
Q 1631 3141 1786 2991 
Q 1941 2841 2228 2841 
Q 2509 2841 2662 2991 
Q 2816 3141 2816 3419 
Q 2816 3697 2662 3845 
Q 2509 3994 2228 3994 
Q 1941 3994 1786 3844 
Q 1631 3694 1631 3419 
z
" transform="scale(0.015625)"/>
     </defs>
     <use xlink:href="#DejaVuSans-Bold-50"/>
     <use xlink:href="#DejaVuSans-Bold-65" transform="translate(73.291016 0)"/>
     <use xlink:href="#DejaVuSans-Bold-65" transform="translate(141.113281 0)"/>
     <use xlink:href="#DejaVuSans-Bold-72" transform="translate(208.935547 0)"/>
     <use xlink:href="#DejaVuSans-Bold-20" transform="translate(258.251953 0)"/>
     <use xlink:href="#DejaVuSans-Bold-6d" transform="translate(293.066406 0)"/>
     <use xlink:href="#DejaVuSans-Bold-65" transform="translate(397.265625 0)"/>
     <use xlink:href="#DejaVuSans-Bold-64" transform="translate(465.087891 0)"/>
     <use xlink:href="#DejaVuSans-Bold-69" transform="translate(536.669922 0)"/>
     <use xlink:href="#DejaVuSans-Bold-61" transform="translate(570.947266 0)"/>
     <use xlink:href="#DejaVuSans-Bold-6e" transform="translate(638.427734 0)"/>
     <use xlink:href="#DejaVuSans-Bold-20" transform="translate(709.619141 0)"/>
     <use xlink:href="#DejaVuSans-Bold-20" transform="translate(744.433594 0)"/>
     <use xlink:href="#DejaVuSans-Bold-2b" transform="translate(779.248047 0)"/>
     <use xlink:href="#DejaVuSans-Bold-32" transform="translate(863.037109 0)"/>
     <use xlink:href="#DejaVuSans-Bold-34" transform="translate(932.617188 0)"/>
     <use xlink:href="#DejaVuSans-Bold-2e" transform="translate(1002.197266 0)"/>
     <use xlink:href="#DejaVuSans-Bold-38" transform="translate(1040.185547 0)"/>
     <use xlink:href="#DejaVuSans-Bold-25" transform="translate(1109.765625 0)"/>
    </g>
   </g>
   <g id="text_16">
    <!-- Soc. Sec. COLA  +23.3% -->
    <g style="fill: #7a4b8a" transform="translate(529.695124 264.061408) scale(0.086 -0.086)">
     <defs>
      <path id="DejaVuSans-Bold-53" d="M 3834 4519 
L 3834 3531 
Q 3450 3703 3084 3790 
Q 2719 3878 2394 3878 
Q 1963 3878 1756 3759 
Q 1550 3641 1550 3391 
Q 1550 3203 1689 3098 
Q 1828 2994 2194 2919 
L 2706 2816 
Q 3484 2659 3812 2340 
Q 4141 2022 4141 1434 
Q 4141 663 3683 286 
Q 3225 -91 2284 -91 
Q 1841 -91 1394 -6 
Q 947 78 500 244 
L 500 1259 
Q 947 1022 1364 901 
Q 1781 781 2169 781 
Q 2563 781 2772 912 
Q 2981 1044 2981 1288 
Q 2981 1506 2839 1625 
Q 2697 1744 2272 1838 
L 1806 1941 
Q 1106 2091 782 2419 
Q 459 2747 459 3303 
Q 459 4000 909 4375 
Q 1359 4750 2203 4750 
Q 2588 4750 2994 4692 
Q 3400 4634 3834 4519 
z
" transform="scale(0.015625)"/>
      <path id="DejaVuSans-Bold-63" d="M 3366 3391 
L 3366 2478 
Q 3138 2634 2908 2709 
Q 2678 2784 2431 2784 
Q 1963 2784 1702 2511 
Q 1441 2238 1441 1747 
Q 1441 1256 1702 982 
Q 1963 709 2431 709 
Q 2694 709 2930 787 
Q 3166 866 3366 1019 
L 3366 103 
Q 3103 6 2833 -42 
Q 2563 -91 2291 -91 
Q 1344 -91 809 395 
Q 275 881 275 1747 
Q 275 2613 809 3098 
Q 1344 3584 2291 3584 
Q 2566 3584 2833 3536 
Q 3100 3488 3366 3391 
z
" transform="scale(0.015625)"/>
      <path id="DejaVuSans-Bold-43" d="M 4288 256 
Q 3956 84 3597 -3 
Q 3238 -91 2847 -91 
Q 1681 -91 1000 561 
Q 319 1213 319 2328 
Q 319 3447 1000 4098 
Q 1681 4750 2847 4750 
Q 3238 4750 3597 4662 
Q 3956 4575 4288 4403 
L 4288 3438 
Q 3953 3666 3628 3772 
Q 3303 3878 2944 3878 
Q 2300 3878 1931 3465 
Q 1563 3053 1563 2328 
Q 1563 1606 1931 1193 
Q 2300 781 2944 781 
Q 3303 781 3628 887 
Q 3953 994 4288 1222 
L 4288 256 
z
" transform="scale(0.015625)"/>
      <path id="DejaVuSans-Bold-4f" d="M 2719 3878 
Q 2169 3878 1866 3472 
Q 1563 3066 1563 2328 
Q 1563 1594 1866 1187 
Q 2169 781 2719 781 
Q 3272 781 3575 1187 
Q 3878 1594 3878 2328 
Q 3878 3066 3575 3472 
Q 3272 3878 2719 3878 
z
M 2719 4750 
Q 3844 4750 4481 4106 
Q 5119 3463 5119 2328 
Q 5119 1197 4481 553 
Q 3844 -91 2719 -91 
Q 1597 -91 958 553 
Q 319 1197 319 2328 
Q 319 3463 958 4106 
Q 1597 4750 2719 4750 
z
" transform="scale(0.015625)"/>
      <path id="DejaVuSans-Bold-4c" d="M 588 4666 
L 1791 4666 
L 1791 909 
L 3903 909 
L 3903 0 
L 588 0 
L 588 4666 
z
" transform="scale(0.015625)"/>
      <path id="DejaVuSans-Bold-41" d="M 3419 850 
L 1538 850 
L 1241 0 
L 31 0 
L 1759 4666 
L 3194 4666 
L 4922 0 
L 3713 0 
L 3419 850 
z
M 1838 1716 
L 3116 1716 
L 2478 3572 
L 1838 1716 
z
" transform="scale(0.015625)"/>
     </defs>
     <use xlink:href="#DejaVuSans-Bold-53"/>
     <use xlink:href="#DejaVuSans-Bold-6f" transform="translate(72.021484 0)"/>
     <use xlink:href="#DejaVuSans-Bold-63" transform="translate(140.722656 0)"/>
     <use xlink:href="#DejaVuSans-Bold-2e" transform="translate(200 0)"/>
     <use xlink:href="#DejaVuSans-Bold-20" transform="translate(237.988281 0)"/>
     <use xlink:href="#DejaVuSans-Bold-53" transform="translate(272.802734 0)"/>
     <use xlink:href="#DejaVuSans-Bold-65" transform="translate(344.824219 0)"/>
     <use xlink:href="#DejaVuSans-Bold-63" transform="translate(412.646484 0)"/>
     <use xlink:href="#DejaVuSans-Bold-2e" transform="translate(471.923828 0)"/>
     <use xlink:href="#DejaVuSans-Bold-20" transform="translate(509.912109 0)"/>
     <use xlink:href="#DejaVuSans-Bold-43" transform="translate(544.726562 0)"/>
     <use xlink:href="#DejaVuSans-Bold-4f" transform="translate(618.115234 0)"/>
     <use xlink:href="#DejaVuSans-Bold-4c" transform="translate(703.125 0)"/>
     <use xlink:href="#DejaVuSans-Bold-41" transform="translate(766.845703 0)"/>
     <use xlink:href="#DejaVuSans-Bold-20" transform="translate(844.238281 0)"/>
     <use xlink:href="#DejaVuSans-Bold-20" transform="translate(879.052734 0)"/>
     <use xlink:href="#DejaVuSans-Bold-2b" transform="translate(913.867188 0)"/>
     <use xlink:href="#DejaVuSans-Bold-32" transform="translate(997.65625 0)"/>
     <use xlink:href="#DejaVuSans-Bold-33" transform="translate(1067.236328 0)"/>
     <use xlink:href="#DejaVuSans-Bold-2e" transform="translate(1136.816406 0)"/>
     <use xlink:href="#DejaVuSans-Bold-33" transform="translate(1174.804688 0)"/>
     <use xlink:href="#DejaVuSans-Bold-25" transform="translate(1244.384766 0)"/>
    </g>
   </g>
   <g id="text_17">
    <!-- Andover  +16.9% -->
    <g style="fill: #1f7a3d" transform="translate(529.695124 298.802374) scale(0.098 -0.098)">
     <defs>
      <path id="DejaVuSans-Bold-76" d="M 97 3500 
L 1216 3500 
L 2088 1081 
L 2956 3500 
L 4078 3500 
L 2700 0 
L 1472 0 
L 97 3500 
z
" transform="scale(0.015625)"/>
      <path id="DejaVuSans-Bold-31" d="M 750 831 
L 1813 831 
L 1813 3847 
L 722 3622 
L 722 4441 
L 1806 4666 
L 2950 4666 
L 2950 831 
L 4013 831 
L 4013 0 
L 750 0 
L 750 831 
z
" transform="scale(0.015625)"/>
      <path id="DejaVuSans-Bold-39" d="M 641 103 
L 641 966 
Q 928 831 1190 764 
Q 1453 697 1709 697 
Q 2247 697 2547 995 
Q 2847 1294 2900 1881 
Q 2688 1725 2447 1647 
Q 2206 1569 1925 1569 
Q 1209 1569 770 1986 
Q 331 2403 331 3084 
Q 331 3838 820 4291 
Q 1309 4744 2131 4744 
Q 3044 4744 3544 4128 
Q 4044 3513 4044 2388 
Q 4044 1231 3459 570 
Q 2875 -91 1856 -91 
Q 1528 -91 1228 -42 
Q 928 6 641 103 
z
M 2125 2350 
Q 2441 2350 2600 2554 
Q 2759 2759 2759 3169 
Q 2759 3575 2600 3781 
Q 2441 3988 2125 3988 
Q 1809 3988 1650 3781 
Q 1491 3575 1491 3169 
Q 1491 2759 1650 2554 
Q 1809 2350 2125 2350 
z
" transform="scale(0.015625)"/>
     </defs>
     <use xlink:href="#DejaVuSans-Bold-41"/>
     <use xlink:href="#DejaVuSans-Bold-6e" transform="translate(77.392578 0)"/>
     <use xlink:href="#DejaVuSans-Bold-64" transform="translate(148.583984 0)"/>
     <use xlink:href="#DejaVuSans-Bold-6f" transform="translate(220.166016 0)"/>
     <use xlink:href="#DejaVuSans-Bold-76" transform="translate(288.867188 0)"/>
     <use xlink:href="#DejaVuSans-Bold-65" transform="translate(354.052734 0)"/>
     <use xlink:href="#DejaVuSans-Bold-72" transform="translate(421.875 0)"/>
     <use xlink:href="#DejaVuSans-Bold-20" transform="translate(471.191406 0)"/>
     <use xlink:href="#DejaVuSans-Bold-20" transform="translate(506.005859 0)"/>
     <use xlink:href="#DejaVuSans-Bold-2b" transform="translate(540.820312 0)"/>
     <use xlink:href="#DejaVuSans-Bold-31" transform="translate(624.609375 0)"/>
     <use xlink:href="#DejaVuSans-Bold-36" transform="translate(694.189453 0)"/>
     <use xlink:href="#DejaVuSans-Bold-2e" transform="translate(763.769531 0)"/>
     <use xlink:href="#DejaVuSans-Bold-39" transform="translate(801.757812 0)"/>
     <use xlink:href="#DejaVuSans-Bold-25" transform="translate(871.337891 0)"/>
    </g>
   </g>
   <g id="line2d_62">
    <path d="M 58.892819 405.303867 
L 151.05328 397.042256 
L 243.213741 358.276235 
L 335.374202 297.902925 
L 427.534663 273.753601 
L 519.695124 254.688345 
" clip-path="url(#p127987fc43)" style="fill: none; stroke-dasharray: 3,4; stroke-dashoffset: 0; stroke: #7a4b8a; stroke-width: 2"/>
   </g>
   <g id="line2d_63">
    <path d="M 58.892819 405.303867 
L 151.05328 357.294335 
L 243.213741 342.691565 
L 335.374202 343.206957 
L 427.534663 292.448669 
L 519.695124 245.391831 
" clip-path="url(#p127987fc43)" style="fill: none; stroke-dasharray: 15.6,7.8; stroke-dashoffset: 0; stroke: #b8860b; stroke-width: 2.6"/>
   </g>
   <g id="line2d_64">
    <path d="M 58.892819 405.303867 
L 151.05328 361.172593 
L 243.213741 328.977305 
L 335.374202 318.068451 
L 427.534663 255.377957 
L 519.695124 175.367886 
" clip-path="url(#p127987fc43)" style="fill: none; stroke: #2f6fb0; stroke-width: 2.2; stroke-linecap: square"/>
   </g>
   <g id="line2d_65">
    <path d="M 58.892819 405.303867 
L 151.05328 346.52776 
L 243.213741 314.988449 
L 335.374202 314.651731 
L 427.534663 236.682663 
L 519.695124 206.864358 
" clip-path="url(#p127987fc43)" style="fill: none; stroke: #c4702a; stroke-width: 2.2; stroke-linecap: square"/>
   </g>
   <g id="line2d_66">
    <path d="M 58.892819 405.303867 
L 151.05328 363.428926 
L 243.213741 359.814264 
L 335.374202 352.064183 
L 427.534663 332.979993 
L 519.695124 296.098187 
" clip-path="url(#p127987fc43)" style="fill: none; stroke: #1f7a3d; stroke-width: 3.8; stroke-linecap: square"/>
    <defs>
     <path id="m6f999ba832" d="M 0 3 
C 0.795609 3 1.55874 2.683901 2.12132 2.12132 
C 2.683901 1.55874 3 0.795609 3 0 
C 3 -0.795609 2.683901 -1.55874 2.12132 -2.12132 
C 1.55874 -2.683901 0.795609 -3 0 -3 
C -0.795609 -3 -1.55874 -2.683901 -2.12132 -2.12132 
C -2.683901 -1.55874 -3 -0.795609 -3 0 
C -3 0.795609 -2.683901 1.55874 -2.12132 2.12132 
C -1.55874 2.683901 -0.795609 3 0 3 
z
" style="stroke: #ffffff"/>
    </defs>
    <g clip-path="url(#p127987fc43)">
     <use xlink:href="#m6f999ba832" x="58.892819" y="405.303867" style="fill: #1f7a3d; stroke: #ffffff"/>
     <use xlink:href="#m6f999ba832" x="151.05328" y="363.428926" style="fill: #1f7a3d; stroke: #ffffff"/>
     <use xlink:href="#m6f999ba832" x="243.213741" y="359.814264" style="fill: #1f7a3d; stroke: #ffffff"/>
     <use xlink:href="#m6f999ba832" x="335.374202" y="352.064183" style="fill: #1f7a3d; stroke: #ffffff"/>
     <use xlink:href="#m6f999ba832" x="427.534663" y="332.979993" style="fill: #1f7a3d; stroke: #ffffff"/>
     <use xlink:href="#m6f999ba832" x="519.695124" y="296.098187" style="fill: #1f7a3d; stroke: #ffffff"/>
    </g>
   </g>
  </g>
  <g id="text_18">
   <!-- How fast has per-pupil spending grown? -->
   <g style="fill: #2b2b2b" transform="translate(8.4672 28.913578) scale(0.155 -0.155)">
    <defs>
     <path id="DejaVuSans-Bold-77" d="M 225 3500 
L 1313 3500 
L 1900 1088 
L 2491 3500 
L 3425 3500 
L 4013 1113 
L 4603 3500 
L 5691 3500 
L 4769 0 
L 3547 0 
L 2956 2406 
L 2369 0 
L 1147 0 
L 225 3500 
z
" transform="scale(0.015625)"/>
     <path id="DejaVuSans-Bold-66" d="M 2841 4863 
L 2841 4128 
L 2222 4128 
Q 1984 4128 1890 4042 
Q 1797 3956 1797 3744 
L 1797 3500 
L 2753 3500 
L 2753 2700 
L 1797 2700 
L 1797 0 
L 678 0 
L 678 2700 
L 122 2700 
L 122 3500 
L 678 3500 
L 678 3744 
Q 678 4316 997 4589 
Q 1316 4863 1984 4863 
L 2841 4863 
z
" transform="scale(0.015625)"/>
     <path id="DejaVuSans-Bold-73" d="M 3272 3391 
L 3272 2541 
Q 2913 2691 2578 2766 
Q 2244 2841 1947 2841 
Q 1628 2841 1473 2761 
Q 1319 2681 1319 2516 
Q 1319 2381 1436 2309 
Q 1553 2238 1856 2203 
L 2053 2175 
Q 2913 2066 3209 1816 
Q 3506 1566 3506 1031 
Q 3506 472 3093 190 
Q 2681 -91 1863 -91 
Q 1516 -91 1145 -36 
Q 775 19 384 128 
L 384 978 
Q 719 816 1070 734 
Q 1422 653 1784 653 
Q 2113 653 2278 743 
Q 2444 834 2444 1013 
Q 2444 1163 2330 1236 
Q 2216 1309 1875 1350 
L 1678 1375 
Q 931 1469 631 1722 
Q 331 1975 331 2491 
Q 331 3047 712 3315 
Q 1094 3584 1881 3584 
Q 2191 3584 2531 3537 
Q 2872 3491 3272 3391 
z
" transform="scale(0.015625)"/>
     <path id="DejaVuSans-Bold-74" d="M 1759 4494 
L 1759 3500 
L 2913 3500 
L 2913 2700 
L 1759 2700 
L 1759 1216 
Q 1759 972 1856 886 
Q 1953 800 2241 800 
L 2816 800 
L 2816 0 
L 1856 0 
Q 1194 0 917 276 
Q 641 553 641 1216 
L 641 2700 
L 84 2700 
L 84 3500 
L 641 3500 
L 641 4494 
L 1759 4494 
z
" transform="scale(0.015625)"/>
     <path id="DejaVuSans-Bold-70" d="M 1656 506 
L 1656 -1331 
L 538 -1331 
L 538 3500 
L 1656 3500 
L 1656 2988 
Q 1888 3294 2169 3439 
Q 2450 3584 2816 3584 
Q 3463 3584 3878 3070 
Q 4294 2556 4294 1747 
Q 4294 938 3878 423 
Q 3463 -91 2816 -91 
Q 2450 -91 2169 54 
Q 1888 200 1656 506 
z
M 2400 2772 
Q 2041 2772 1848 2508 
Q 1656 2244 1656 1747 
Q 1656 1250 1848 986 
Q 2041 722 2400 722 
Q 2759 722 2948 984 
Q 3138 1247 3138 1747 
Q 3138 2247 2948 2509 
Q 2759 2772 2400 2772 
z
" transform="scale(0.015625)"/>
     <path id="DejaVuSans-Bold-2d" d="M 347 2297 
L 2309 2297 
L 2309 1388 
L 347 1388 
L 347 2297 
z
" transform="scale(0.015625)"/>
     <path id="DejaVuSans-Bold-3f" d="M 2216 1575 
L 1088 1575 
L 1088 1728 
Q 1088 1984 1191 2182 
Q 1294 2381 1625 2688 
L 1825 2869 
Q 2003 3031 2086 3175 
Q 2169 3319 2169 3463 
Q 2169 3681 2019 3804 
Q 1869 3928 1600 3928 
Q 1347 3928 1053 3823 
Q 759 3719 441 3513 
L 441 4494 
Q 819 4625 1131 4687 
Q 1444 4750 1734 4750 
Q 2497 4750 2897 4439 
Q 3297 4128 3297 3531 
Q 3297 3225 3175 2983 
Q 3053 2741 2759 2463 
L 2559 2284 
Q 2347 2091 2281 1973 
Q 2216 1856 2216 1716 
L 2216 1575 
z
M 1088 1113 
L 2216 1113 
L 2216 0 
L 1088 0 
L 1088 1113 
z
" transform="scale(0.015625)"/>
    </defs>
    <use xlink:href="#DejaVuSans-Bold-48"/>
    <use xlink:href="#DejaVuSans-Bold-6f" transform="translate(83.691406 0)"/>
    <use xlink:href="#DejaVuSans-Bold-77" transform="translate(152.392578 0)"/>
    <use xlink:href="#DejaVuSans-Bold-20" transform="translate(244.775391 0)"/>
    <use xlink:href="#DejaVuSans-Bold-66" transform="translate(279.589844 0)"/>
    <use xlink:href="#DejaVuSans-Bold-61" transform="translate(323.095703 0)"/>
    <use xlink:href="#DejaVuSans-Bold-73" transform="translate(390.576172 0)"/>
    <use xlink:href="#DejaVuSans-Bold-74" transform="translate(450.097656 0)"/>
    <use xlink:href="#DejaVuSans-Bold-20" transform="translate(497.900391 0)"/>
    <use xlink:href="#DejaVuSans-Bold-68" transform="translate(532.714844 0)"/>
    <use xlink:href="#DejaVuSans-Bold-61" transform="translate(603.90625 0)"/>
    <use xlink:href="#DejaVuSans-Bold-73" transform="translate(671.386719 0)"/>
    <use xlink:href="#DejaVuSans-Bold-20" transform="translate(730.908203 0)"/>
    <use xlink:href="#DejaVuSans-Bold-70" transform="translate(765.722656 0)"/>
    <use xlink:href="#DejaVuSans-Bold-65" transform="translate(837.304688 0)"/>
    <use xlink:href="#DejaVuSans-Bold-72" transform="translate(905.126953 0)"/>
    <use xlink:href="#DejaVuSans-Bold-2d" transform="translate(954.443359 0)"/>
    <use xlink:href="#DejaVuSans-Bold-70" transform="translate(995.947266 0)"/>
    <use xlink:href="#DejaVuSans-Bold-75" transform="translate(1067.529297 0)"/>
    <use xlink:href="#DejaVuSans-Bold-70" transform="translate(1138.720703 0)"/>
    <use xlink:href="#DejaVuSans-Bold-69" transform="translate(1210.302734 0)"/>
    <use xlink:href="#DejaVuSans-Bold-6c" transform="translate(1244.580078 0)"/>
    <use xlink:href="#DejaVuSans-Bold-20" transform="translate(1278.857422 0)"/>
    <use xlink:href="#DejaVuSans-Bold-73" transform="translate(1313.671875 0)"/>
    <use xlink:href="#DejaVuSans-Bold-70" transform="translate(1373.193359 0)"/>
    <use xlink:href="#DejaVuSans-Bold-65" transform="translate(1444.775391 0)"/>
    <use xlink:href="#DejaVuSans-Bold-6e" transform="translate(1512.597656 0)"/>
    <use xlink:href="#DejaVuSans-Bold-64" transform="translate(1583.789062 0)"/>
    <use xlink:href="#DejaVuSans-Bold-69" transform="translate(1655.371094 0)"/>
    <use xlink:href="#DejaVuSans-Bold-6e" transform="translate(1689.648438 0)"/>
    <use xlink:href="#DejaVuSans-Bold-67" transform="translate(1760.839844 0)"/>
    <use xlink:href="#DejaVuSans-Bold-20" transform="translate(1832.421875 0)"/>
    <use xlink:href="#DejaVuSans-Bold-67" transform="translate(1867.236328 0)"/>
    <use xlink:href="#DejaVuSans-Bold-72" transform="translate(1938.818359 0)"/>
    <use xlink:href="#DejaVuSans-Bold-6f" transform="translate(1988.134766 0)"/>
    <use xlink:href="#DejaVuSans-Bold-77" transform="translate(2056.835938 0)"/>
    <use xlink:href="#DejaVuSans-Bold-6e" transform="translate(2149.21875 0)"/>
    <use xlink:href="#DejaVuSans-Bold-3f" transform="translate(2220.410156 0)"/>
   </g>
  </g>
  <g id="text_19">
   <!-- Cumulative growth in net current expenditures per pupil since 2019-20  ·  all 45 CT elementary-only districts -->
   <g style="fill: #6a6453" transform="translate(8.4672 46.681856) scale(0.086 -0.086)">
    <defs>
     <path id="DejaVuSans-43" d="M 4122 4306 
L 4122 3641 
Q 3803 3938 3442 4084 
Q 3081 4231 2675 4231 
Q 1875 4231 1450 3742 
Q 1025 3253 1025 2328 
Q 1025 1406 1450 917 
Q 1875 428 2675 428 
Q 3081 428 3442 575 
Q 3803 722 4122 1019 
L 4122 359 
Q 3791 134 3420 21 
Q 3050 -91 2638 -91 
Q 1578 -91 968 557 
Q 359 1206 359 2328 
Q 359 3453 968 4101 
Q 1578 4750 2638 4750 
Q 3056 4750 3426 4639 
Q 3797 4528 4122 4306 
z
" transform="scale(0.015625)"/>
     <path id="DejaVuSans-75" d="M 544 1381 
L 544 3500 
L 1119 3500 
L 1119 1403 
Q 1119 906 1312 657 
Q 1506 409 1894 409 
Q 2359 409 2629 706 
Q 2900 1003 2900 1516 
L 2900 3500 
L 3475 3500 
L 3475 0 
L 2900 0 
L 2900 538 
Q 2691 219 2414 64 
Q 2138 -91 1772 -91 
Q 1169 -91 856 284 
Q 544 659 544 1381 
z
M 1991 3584 
L 1991 3584 
z
" transform="scale(0.015625)"/>
     <path id="DejaVuSans-6d" d="M 3328 2828 
Q 3544 3216 3844 3400 
Q 4144 3584 4550 3584 
Q 5097 3584 5394 3201 
Q 5691 2819 5691 2113 
L 5691 0 
L 5113 0 
L 5113 2094 
Q 5113 2597 4934 2840 
Q 4756 3084 4391 3084 
Q 3944 3084 3684 2787 
Q 3425 2491 3425 1978 
L 3425 0 
L 2847 0 
L 2847 2094 
Q 2847 2600 2669 2842 
Q 2491 3084 2119 3084 
Q 1678 3084 1418 2786 
Q 1159 2488 1159 1978 
L 1159 0 
L 581 0 
L 581 3500 
L 1159 3500 
L 1159 2956 
Q 1356 3278 1631 3431 
Q 1906 3584 2284 3584 
Q 2666 3584 2933 3390 
Q 3200 3197 3328 2828 
z
" transform="scale(0.015625)"/>
     <path id="DejaVuSans-6c" d="M 603 4863 
L 1178 4863 
L 1178 0 
L 603 0 
L 603 4863 
z
" transform="scale(0.015625)"/>
     <path id="DejaVuSans-61" d="M 2194 1759 
Q 1497 1759 1228 1600 
Q 959 1441 959 1056 
Q 959 750 1161 570 
Q 1363 391 1709 391 
Q 2188 391 2477 730 
Q 2766 1069 2766 1631 
L 2766 1759 
L 2194 1759 
z
M 3341 1997 
L 3341 0 
L 2766 0 
L 2766 531 
Q 2569 213 2275 61 
Q 1981 -91 1556 -91 
Q 1019 -91 701 211 
Q 384 513 384 1019 
Q 384 1609 779 1909 
Q 1175 2209 1959 2209 
L 2766 2209 
L 2766 2266 
Q 2766 2663 2505 2880 
Q 2244 3097 1772 3097 
Q 1472 3097 1187 3025 
Q 903 2953 641 2809 
L 641 3341 
Q 956 3463 1253 3523 
Q 1550 3584 1831 3584 
Q 2591 3584 2966 3190 
Q 3341 2797 3341 1997 
z
" transform="scale(0.015625)"/>
     <path id="DejaVuSans-74" d="M 1172 4494 
L 1172 3500 
L 2356 3500 
L 2356 3053 
L 1172 3053 
L 1172 1153 
Q 1172 725 1289 603 
Q 1406 481 1766 481 
L 2356 481 
L 2356 0 
L 1766 0 
Q 1100 0 847 248 
Q 594 497 594 1153 
L 594 3053 
L 172 3053 
L 172 3500 
L 594 3500 
L 594 4494 
L 1172 4494 
z
" transform="scale(0.015625)"/>
     <path id="DejaVuSans-69" d="M 603 3500 
L 1178 3500 
L 1178 0 
L 603 0 
L 603 3500 
z
M 603 4863 
L 1178 4863 
L 1178 4134 
L 603 4134 
L 603 4863 
z
" transform="scale(0.015625)"/>
     <path id="DejaVuSans-76" d="M 191 3500 
L 800 3500 
L 1894 563 
L 2988 3500 
L 3597 3500 
L 2284 0 
L 1503 0 
L 191 3500 
z
" transform="scale(0.015625)"/>
     <path id="DejaVuSans-65" d="M 3597 1894 
L 3597 1613 
L 953 1613 
Q 991 1019 1311 708 
Q 1631 397 2203 397 
Q 2534 397 2845 478 
Q 3156 559 3463 722 
L 3463 178 
Q 3153 47 2828 -22 
Q 2503 -91 2169 -91 
Q 1331 -91 842 396 
Q 353 884 353 1716 
Q 353 2575 817 3079 
Q 1281 3584 2069 3584 
Q 2775 3584 3186 3129 
Q 3597 2675 3597 1894 
z
M 3022 2063 
Q 3016 2534 2758 2815 
Q 2500 3097 2075 3097 
Q 1594 3097 1305 2825 
Q 1016 2553 972 2059 
L 3022 2063 
z
" transform="scale(0.015625)"/>
     <path id="DejaVuSans-20" transform="scale(0.015625)"/>
     <path id="DejaVuSans-67" d="M 2906 1791 
Q 2906 2416 2648 2759 
Q 2391 3103 1925 3103 
Q 1463 3103 1205 2759 
Q 947 2416 947 1791 
Q 947 1169 1205 825 
Q 1463 481 1925 481 
Q 2391 481 2648 825 
Q 2906 1169 2906 1791 
z
M 3481 434 
Q 3481 -459 3084 -895 
Q 2688 -1331 1869 -1331 
Q 1566 -1331 1297 -1286 
Q 1028 -1241 775 -1147 
L 775 -588 
Q 1028 -725 1275 -790 
Q 1522 -856 1778 -856 
Q 2344 -856 2625 -561 
Q 2906 -266 2906 331 
L 2906 616 
Q 2728 306 2450 153 
Q 2172 0 1784 0 
Q 1141 0 747 490 
Q 353 981 353 1791 
Q 353 2603 747 3093 
Q 1141 3584 1784 3584 
Q 2172 3584 2450 3431 
Q 2728 3278 2906 2969 
L 2906 3500 
L 3481 3500 
L 3481 434 
z
" transform="scale(0.015625)"/>
     <path id="DejaVuSans-72" d="M 2631 2963 
Q 2534 3019 2420 3045 
Q 2306 3072 2169 3072 
Q 1681 3072 1420 2755 
Q 1159 2438 1159 1844 
L 1159 0 
L 581 0 
L 581 3500 
L 1159 3500 
L 1159 2956 
Q 1341 3275 1631 3429 
Q 1922 3584 2338 3584 
Q 2397 3584 2469 3576 
Q 2541 3569 2628 3553 
L 2631 2963 
z
" transform="scale(0.015625)"/>
     <path id="DejaVuSans-6f" d="M 1959 3097 
Q 1497 3097 1228 2736 
Q 959 2375 959 1747 
Q 959 1119 1226 758 
Q 1494 397 1959 397 
Q 2419 397 2687 759 
Q 2956 1122 2956 1747 
Q 2956 2369 2687 2733 
Q 2419 3097 1959 3097 
z
M 1959 3584 
Q 2709 3584 3137 3096 
Q 3566 2609 3566 1747 
Q 3566 888 3137 398 
Q 2709 -91 1959 -91 
Q 1206 -91 779 398 
Q 353 888 353 1747 
Q 353 2609 779 3096 
Q 1206 3584 1959 3584 
z
" transform="scale(0.015625)"/>
     <path id="DejaVuSans-77" d="M 269 3500 
L 844 3500 
L 1563 769 
L 2278 3500 
L 2956 3500 
L 3675 769 
L 4391 3500 
L 4966 3500 
L 4050 0 
L 3372 0 
L 2619 2869 
L 1863 0 
L 1184 0 
L 269 3500 
z
" transform="scale(0.015625)"/>
     <path id="DejaVuSans-68" d="M 3513 2113 
L 3513 0 
L 2938 0 
L 2938 2094 
Q 2938 2591 2744 2837 
Q 2550 3084 2163 3084 
Q 1697 3084 1428 2787 
Q 1159 2491 1159 1978 
L 1159 0 
L 581 0 
L 581 4863 
L 1159 4863 
L 1159 2956 
Q 1366 3272 1645 3428 
Q 1925 3584 2291 3584 
Q 2894 3584 3203 3211 
Q 3513 2838 3513 2113 
z
" transform="scale(0.015625)"/>
     <path id="DejaVuSans-6e" d="M 3513 2113 
L 3513 0 
L 2938 0 
L 2938 2094 
Q 2938 2591 2744 2837 
Q 2550 3084 2163 3084 
Q 1697 3084 1428 2787 
Q 1159 2491 1159 1978 
L 1159 0 
L 581 0 
L 581 3500 
L 1159 3500 
L 1159 2956 
Q 1366 3272 1645 3428 
Q 1925 3584 2291 3584 
Q 2894 3584 3203 3211 
Q 3513 2838 3513 2113 
z
" transform="scale(0.015625)"/>
     <path id="DejaVuSans-63" d="M 3122 3366 
L 3122 2828 
Q 2878 2963 2633 3030 
Q 2388 3097 2138 3097 
Q 1578 3097 1268 2742 
Q 959 2388 959 1747 
Q 959 1106 1268 751 
Q 1578 397 2138 397 
Q 2388 397 2633 464 
Q 2878 531 3122 666 
L 3122 134 
Q 2881 22 2623 -34 
Q 2366 -91 2075 -91 
Q 1284 -91 818 406 
Q 353 903 353 1747 
Q 353 2603 823 3093 
Q 1294 3584 2113 3584 
Q 2378 3584 2631 3529 
Q 2884 3475 3122 3366 
z
" transform="scale(0.015625)"/>
     <path id="DejaVuSans-78" d="M 3513 3500 
L 2247 1797 
L 3578 0 
L 2900 0 
L 1881 1375 
L 863 0 
L 184 0 
L 1544 1831 
L 300 3500 
L 978 3500 
L 1906 2253 
L 2834 3500 
L 3513 3500 
z
" transform="scale(0.015625)"/>
     <path id="DejaVuSans-70" d="M 1159 525 
L 1159 -1331 
L 581 -1331 
L 581 3500 
L 1159 3500 
L 1159 2969 
Q 1341 3281 1617 3432 
Q 1894 3584 2278 3584 
Q 2916 3584 3314 3078 
Q 3713 2572 3713 1747 
Q 3713 922 3314 415 
Q 2916 -91 2278 -91 
Q 1894 -91 1617 61 
Q 1341 213 1159 525 
z
M 3116 1747 
Q 3116 2381 2855 2742 
Q 2594 3103 2138 3103 
Q 1681 3103 1420 2742 
Q 1159 2381 1159 1747 
Q 1159 1113 1420 752 
Q 1681 391 2138 391 
Q 2594 391 2855 752 
Q 3116 1113 3116 1747 
z
" transform="scale(0.015625)"/>
     <path id="DejaVuSans-64" d="M 2906 2969 
L 2906 4863 
L 3481 4863 
L 3481 0 
L 2906 0 
L 2906 525 
Q 2725 213 2448 61 
Q 2172 -91 1784 -91 
Q 1150 -91 751 415 
Q 353 922 353 1747 
Q 353 2572 751 3078 
Q 1150 3584 1784 3584 
Q 2172 3584 2448 3432 
Q 2725 3281 2906 2969 
z
M 947 1747 
Q 947 1113 1208 752 
Q 1469 391 1925 391 
Q 2381 391 2643 752 
Q 2906 1113 2906 1747 
Q 2906 2381 2643 2742 
Q 2381 3103 1925 3103 
Q 1469 3103 1208 2742 
Q 947 2381 947 1747 
z
" transform="scale(0.015625)"/>
     <path id="DejaVuSans-73" d="M 2834 3397 
L 2834 2853 
Q 2591 2978 2328 3040 
Q 2066 3103 1784 3103 
Q 1356 3103 1142 2972 
Q 928 2841 928 2578 
Q 928 2378 1081 2264 
Q 1234 2150 1697 2047 
L 1894 2003 
Q 2506 1872 2764 1633 
Q 3022 1394 3022 966 
Q 3022 478 2636 193 
Q 2250 -91 1575 -91 
Q 1294 -91 989 -36 
Q 684 19 347 128 
L 347 722 
Q 666 556 975 473 
Q 1284 391 1588 391 
Q 1994 391 2212 530 
Q 2431 669 2431 922 
Q 2431 1156 2273 1281 
Q 2116 1406 1581 1522 
L 1381 1569 
Q 847 1681 609 1914 
Q 372 2147 372 2553 
Q 372 3047 722 3315 
Q 1072 3584 1716 3584 
Q 2034 3584 2315 3537 
Q 2597 3491 2834 3397 
z
" transform="scale(0.015625)"/>
     <path id="DejaVuSans-b7" d="M 684 2619 
L 1344 2619 
L 1344 1825 
L 684 1825 
L 684 2619 
z
" transform="scale(0.015625)"/>
     <path id="DejaVuSans-54" d="M -19 4666 
L 3928 4666 
L 3928 4134 
L 2272 4134 
L 2272 0 
L 1638 0 
L 1638 4134 
L -19 4134 
L -19 4666 
z
" transform="scale(0.015625)"/>
     <path id="DejaVuSans-79" d="M 2059 -325 
Q 1816 -950 1584 -1140 
Q 1353 -1331 966 -1331 
L 506 -1331 
L 506 -850 
L 844 -850 
Q 1081 -850 1212 -737 
Q 1344 -625 1503 -206 
L 1606 56 
L 191 3500 
L 800 3500 
L 1894 763 
L 2988 3500 
L 3597 3500 
L 2059 -325 
z
" transform="scale(0.015625)"/>
    </defs>
    <use xlink:href="#DejaVuSans-43"/>
    <use xlink:href="#DejaVuSans-75" transform="translate(69.824219 0)"/>
    <use xlink:href="#DejaVuSans-6d" transform="translate(133.203125 0)"/>
    <use xlink:href="#DejaVuSans-75" transform="translate(230.615234 0)"/>
    <use xlink:href="#DejaVuSans-6c" transform="translate(293.994141 0)"/>
    <use xlink:href="#DejaVuSans-61" transform="translate(321.777344 0)"/>
    <use xlink:href="#DejaVuSans-74" transform="translate(383.056641 0)"/>
    <use xlink:href="#DejaVuSans-69" transform="translate(422.265625 0)"/>
    <use xlink:href="#DejaVuSans-76" transform="translate(450.048828 0)"/>
    <use xlink:href="#DejaVuSans-65" transform="translate(509.228516 0)"/>
    <use xlink:href="#DejaVuSans-20" transform="translate(570.751953 0)"/>
    <use xlink:href="#DejaVuSans-67" transform="translate(602.539062 0)"/>
    <use xlink:href="#DejaVuSans-72" transform="translate(666.015625 0)"/>
    <use xlink:href="#DejaVuSans-6f" transform="translate(704.878906 0)"/>
    <use xlink:href="#DejaVuSans-77" transform="translate(766.060547 0)"/>
    <use xlink:href="#DejaVuSans-74" transform="translate(847.847656 0)"/>
    <use xlink:href="#DejaVuSans-68" transform="translate(887.056641 0)"/>
    <use xlink:href="#DejaVuSans-20" transform="translate(950.435547 0)"/>
    <use xlink:href="#DejaVuSans-69" transform="translate(982.222656 0)"/>
    <use xlink:href="#DejaVuSans-6e" transform="translate(1010.005859 0)"/>
    <use xlink:href="#DejaVuSans-20" transform="translate(1073.384766 0)"/>
    <use xlink:href="#DejaVuSans-6e" transform="translate(1105.171875 0)"/>
    <use xlink:href="#DejaVuSans-65" transform="translate(1168.550781 0)"/>
    <use xlink:href="#DejaVuSans-74" transform="translate(1230.074219 0)"/>
    <use xlink:href="#DejaVuSans-20" transform="translate(1269.283203 0)"/>
    <use xlink:href="#DejaVuSans-63" transform="translate(1301.070312 0)"/>
    <use xlink:href="#DejaVuSans-75" transform="translate(1356.050781 0)"/>
    <use xlink:href="#DejaVuSans-72" transform="translate(1419.429688 0)"/>
    <use xlink:href="#DejaVuSans-72" transform="translate(1458.792969 0)"/>
    <use xlink:href="#DejaVuSans-65" transform="translate(1497.65625 0)"/>
    <use xlink:href="#DejaVuSans-6e" transform="translate(1559.179688 0)"/>
    <use xlink:href="#DejaVuSans-74" transform="translate(1622.558594 0)"/>
    <use xlink:href="#DejaVuSans-20" transform="translate(1661.767578 0)"/>
    <use xlink:href="#DejaVuSans-65" transform="translate(1693.554688 0)"/>
    <use xlink:href="#DejaVuSans-78" transform="translate(1753.328125 0)"/>
    <use xlink:href="#DejaVuSans-70" transform="translate(1812.507812 0)"/>
    <use xlink:href="#DejaVuSans-65" transform="translate(1875.984375 0)"/>
    <use xlink:href="#DejaVuSans-6e" transform="translate(1937.507812 0)"/>
    <use xlink:href="#DejaVuSans-64" transform="translate(2000.886719 0)"/>
    <use xlink:href="#DejaVuSans-69" transform="translate(2064.363281 0)"/>
    <use xlink:href="#DejaVuSans-74" transform="translate(2092.146484 0)"/>
    <use xlink:href="#DejaVuSans-75" transform="translate(2131.355469 0)"/>
    <use xlink:href="#DejaVuSans-72" transform="translate(2194.734375 0)"/>
    <use xlink:href="#DejaVuSans-65" transform="translate(2233.597656 0)"/>
    <use xlink:href="#DejaVuSans-73" transform="translate(2295.121094 0)"/>
    <use xlink:href="#DejaVuSans-20" transform="translate(2347.220703 0)"/>
    <use xlink:href="#DejaVuSans-70" transform="translate(2379.007812 0)"/>
    <use xlink:href="#DejaVuSans-65" transform="translate(2442.484375 0)"/>
    <use xlink:href="#DejaVuSans-72" transform="translate(2504.007812 0)"/>
    <use xlink:href="#DejaVuSans-20" transform="translate(2545.121094 0)"/>
    <use xlink:href="#DejaVuSans-70" transform="translate(2576.908203 0)"/>
    <use xlink:href="#DejaVuSans-75" transform="translate(2640.384766 0)"/>
    <use xlink:href="#DejaVuSans-70" transform="translate(2703.763672 0)"/>
    <use xlink:href="#DejaVuSans-69" transform="translate(2767.240234 0)"/>
    <use xlink:href="#DejaVuSans-6c" transform="translate(2795.023438 0)"/>
    <use xlink:href="#DejaVuSans-20" transform="translate(2822.806641 0)"/>
    <use xlink:href="#DejaVuSans-73" transform="translate(2854.59375 0)"/>
    <use xlink:href="#DejaVuSans-69" transform="translate(2906.693359 0)"/>
    <use xlink:href="#DejaVuSans-6e" transform="translate(2934.476562 0)"/>
    <use xlink:href="#DejaVuSans-63" transform="translate(2997.855469 0)"/>
    <use xlink:href="#DejaVuSans-65" transform="translate(3052.835938 0)"/>
    <use xlink:href="#DejaVuSans-20" transform="translate(3114.359375 0)"/>
    <use xlink:href="#DejaVuSans-32" transform="translate(3146.146484 0)"/>
    <use xlink:href="#DejaVuSans-30" transform="translate(3209.769531 0)"/>
    <use xlink:href="#DejaVuSans-31" transform="translate(3273.392578 0)"/>
    <use xlink:href="#DejaVuSans-39" transform="translate(3337.015625 0)"/>
    <use xlink:href="#DejaVuSans-2d" transform="translate(3400.638672 0)"/>
    <use xlink:href="#DejaVuSans-32" transform="translate(3436.722656 0)"/>
    <use xlink:href="#DejaVuSans-30" transform="translate(3500.345703 0)"/>
    <use xlink:href="#DejaVuSans-20" transform="translate(3563.96875 0)"/>
    <use xlink:href="#DejaVuSans-20" transform="translate(3595.755859 0)"/>
    <use xlink:href="#DejaVuSans-b7" transform="translate(3627.542969 0)"/>
    <use xlink:href="#DejaVuSans-20" transform="translate(3659.330078 0)"/>
    <use xlink:href="#DejaVuSans-20" transform="translate(3691.117188 0)"/>
    <use xlink:href="#DejaVuSans-61" transform="translate(3722.904297 0)"/>
    <use xlink:href="#DejaVuSans-6c" transform="translate(3784.183594 0)"/>
    <use xlink:href="#DejaVuSans-6c" transform="translate(3811.966797 0)"/>
    <use xlink:href="#DejaVuSans-20" transform="translate(3839.75 0)"/>
    <use xlink:href="#DejaVuSans-34" transform="translate(3871.537109 0)"/>
    <use xlink:href="#DejaVuSans-35" transform="translate(3935.160156 0)"/>
    <use xlink:href="#DejaVuSans-20" transform="translate(3998.783203 0)"/>
    <use xlink:href="#DejaVuSans-43" transform="translate(4030.570312 0)"/>
    <use xlink:href="#DejaVuSans-54" transform="translate(4100.394531 0)"/>
    <use xlink:href="#DejaVuSans-20" transform="translate(4161.478516 0)"/>
    <use xlink:href="#DejaVuSans-65" transform="translate(4193.265625 0)"/>
    <use xlink:href="#DejaVuSans-6c" transform="translate(4254.789062 0)"/>
    <use xlink:href="#DejaVuSans-65" transform="translate(4282.572266 0)"/>
    <use xlink:href="#DejaVuSans-6d" transform="translate(4344.095703 0)"/>
    <use xlink:href="#DejaVuSans-65" transform="translate(4441.507812 0)"/>
    <use xlink:href="#DejaVuSans-6e" transform="translate(4503.03125 0)"/>
    <use xlink:href="#DejaVuSans-74" transform="translate(4566.410156 0)"/>
    <use xlink:href="#DejaVuSans-61" transform="translate(4605.619141 0)"/>
    <use xlink:href="#DejaVuSans-72" transform="translate(4666.898438 0)"/>
    <use xlink:href="#DejaVuSans-79" transform="translate(4708.011719 0)"/>
    <use xlink:href="#DejaVuSans-2d" transform="translate(4765.441406 0)"/>
    <use xlink:href="#DejaVuSans-6f" transform="translate(4803.400391 0)"/>
    <use xlink:href="#DejaVuSans-6e" transform="translate(4864.582031 0)"/>
    <use xlink:href="#DejaVuSans-6c" transform="translate(4927.960938 0)"/>
    <use xlink:href="#DejaVuSans-79" transform="translate(4955.744141 0)"/>
    <use xlink:href="#DejaVuSans-20" transform="translate(5014.923828 0)"/>
    <use xlink:href="#DejaVuSans-64" transform="translate(5046.710938 0)"/>
    <use xlink:href="#DejaVuSans-69" transform="translate(5110.1875 0)"/>
    <use xlink:href="#DejaVuSans-73" transform="translate(5137.970703 0)"/>
    <use xlink:href="#DejaVuSans-74" transform="translate(5190.070312 0)"/>
    <use xlink:href="#DejaVuSans-72" transform="translate(5229.279297 0)"/>
    <use xlink:href="#DejaVuSans-69" transform="translate(5270.392578 0)"/>
    <use xlink:href="#DejaVuSans-63" transform="translate(5298.175781 0)"/>
    <use xlink:href="#DejaVuSans-74" transform="translate(5353.15625 0)"/>
    <use xlink:href="#DejaVuSans-73" transform="translate(5392.365234 0)"/>
   </g>
  </g>
  <g id="text_20">
   <!-- Sources: CT SDE NCEP 2019-20 – 2024-25 (preschool included, state basis)  ·  Social Security COLA, rebased to 2019-20 -->
   <g style="fill: #8a8170" transform="translate(8.4672 483.7248) scale(0.063 -0.063)">
    <defs>
     <path id="DejaVuSans-53" d="M 3425 4513 
L 3425 3897 
Q 3066 4069 2747 4153 
Q 2428 4238 2131 4238 
Q 1616 4238 1336 4038 
Q 1056 3838 1056 3469 
Q 1056 3159 1242 3001 
Q 1428 2844 1947 2747 
L 2328 2669 
Q 3034 2534 3370 2195 
Q 3706 1856 3706 1288 
Q 3706 609 3251 259 
Q 2797 -91 1919 -91 
Q 1588 -91 1214 -16 
Q 841 59 441 206 
L 441 856 
Q 825 641 1194 531 
Q 1563 422 1919 422 
Q 2459 422 2753 634 
Q 3047 847 3047 1241 
Q 3047 1584 2836 1778 
Q 2625 1972 2144 2069 
L 1759 2144 
Q 1053 2284 737 2584 
Q 422 2884 422 3419 
Q 422 4038 858 4394 
Q 1294 4750 2059 4750 
Q 2388 4750 2728 4690 
Q 3069 4631 3425 4513 
z
" transform="scale(0.015625)"/>
     <path id="DejaVuSans-3a" d="M 750 794 
L 1409 794 
L 1409 0 
L 750 0 
L 750 794 
z
M 750 3309 
L 1409 3309 
L 1409 2516 
L 750 2516 
L 750 3309 
z
" transform="scale(0.015625)"/>
     <path id="DejaVuSans-44" d="M 1259 4147 
L 1259 519 
L 2022 519 
Q 2988 519 3436 956 
Q 3884 1394 3884 2338 
Q 3884 3275 3436 3711 
Q 2988 4147 2022 4147 
L 1259 4147 
z
M 628 4666 
L 1925 4666 
Q 3281 4666 3915 4102 
Q 4550 3538 4550 2338 
Q 4550 1131 3912 565 
Q 3275 0 1925 0 
L 628 0 
L 628 4666 
z
" transform="scale(0.015625)"/>
     <path id="DejaVuSans-45" d="M 628 4666 
L 3578 4666 
L 3578 4134 
L 1259 4134 
L 1259 2753 
L 3481 2753 
L 3481 2222 
L 1259 2222 
L 1259 531 
L 3634 531 
L 3634 0 
L 628 0 
L 628 4666 
z
" transform="scale(0.015625)"/>
     <path id="DejaVuSans-4e" d="M 628 4666 
L 1478 4666 
L 3547 763 
L 3547 4666 
L 4159 4666 
L 4159 0 
L 3309 0 
L 1241 3903 
L 1241 0 
L 628 0 
L 628 4666 
z
" transform="scale(0.015625)"/>
     <path id="DejaVuSans-50" d="M 1259 4147 
L 1259 2394 
L 2053 2394 
Q 2494 2394 2734 2622 
Q 2975 2850 2975 3272 
Q 2975 3691 2734 3919 
Q 2494 4147 2053 4147 
L 1259 4147 
z
M 628 4666 
L 2053 4666 
Q 2838 4666 3239 4311 
Q 3641 3956 3641 3272 
Q 3641 2581 3239 2228 
Q 2838 1875 2053 1875 
L 1259 1875 
L 1259 0 
L 628 0 
L 628 4666 
z
" transform="scale(0.015625)"/>
     <path id="DejaVuSans-2013" d="M 313 1978 
L 2888 1978 
L 2888 1528 
L 313 1528 
L 313 1978 
z
" transform="scale(0.015625)"/>
     <path id="DejaVuSans-28" d="M 1984 4856 
Q 1566 4138 1362 3434 
Q 1159 2731 1159 2009 
Q 1159 1288 1364 580 
Q 1569 -128 1984 -844 
L 1484 -844 
Q 1016 -109 783 600 
Q 550 1309 550 2009 
Q 550 2706 781 3412 
Q 1013 4119 1484 4856 
L 1984 4856 
z
" transform="scale(0.015625)"/>
     <path id="DejaVuSans-2c" d="M 750 794 
L 1409 794 
L 1409 256 
L 897 -744 
L 494 -744 
L 750 256 
L 750 794 
z
" transform="scale(0.015625)"/>
     <path id="DejaVuSans-62" d="M 3116 1747 
Q 3116 2381 2855 2742 
Q 2594 3103 2138 3103 
Q 1681 3103 1420 2742 
Q 1159 2381 1159 1747 
Q 1159 1113 1420 752 
Q 1681 391 2138 391 
Q 2594 391 2855 752 
Q 3116 1113 3116 1747 
z
M 1159 2969 
Q 1341 3281 1617 3432 
Q 1894 3584 2278 3584 
Q 2916 3584 3314 3078 
Q 3713 2572 3713 1747 
Q 3713 922 3314 415 
Q 2916 -91 2278 -91 
Q 1894 -91 1617 61 
Q 1341 213 1159 525 
L 1159 0 
L 581 0 
L 581 4863 
L 1159 4863 
L 1159 2969 
z
" transform="scale(0.015625)"/>
     <path id="DejaVuSans-29" d="M 513 4856 
L 1013 4856 
Q 1481 4119 1714 3412 
Q 1947 2706 1947 2009 
Q 1947 1309 1714 600 
Q 1481 -109 1013 -844 
L 513 -844 
Q 928 -128 1133 580 
Q 1338 1288 1338 2009 
Q 1338 2731 1133 3434 
Q 928 4138 513 4856 
z
" transform="scale(0.015625)"/>
     <path id="DejaVuSans-4f" d="M 2522 4238 
Q 1834 4238 1429 3725 
Q 1025 3213 1025 2328 
Q 1025 1447 1429 934 
Q 1834 422 2522 422 
Q 3209 422 3611 934 
Q 4013 1447 4013 2328 
Q 4013 3213 3611 3725 
Q 3209 4238 2522 4238 
z
M 2522 4750 
Q 3503 4750 4090 4092 
Q 4678 3434 4678 2328 
Q 4678 1225 4090 567 
Q 3503 -91 2522 -91 
Q 1538 -91 948 565 
Q 359 1222 359 2328 
Q 359 3434 948 4092 
Q 1538 4750 2522 4750 
z
" transform="scale(0.015625)"/>
     <path id="DejaVuSans-4c" d="M 628 4666 
L 1259 4666 
L 1259 531 
L 3531 531 
L 3531 0 
L 628 0 
L 628 4666 
z
" transform="scale(0.015625)"/>
     <path id="DejaVuSans-41" d="M 2188 4044 
L 1331 1722 
L 3047 1722 
L 2188 4044 
z
M 1831 4666 
L 2547 4666 
L 4325 0 
L 3669 0 
L 3244 1197 
L 1141 1197 
L 716 0 
L 50 0 
L 1831 4666 
z
" transform="scale(0.015625)"/>
    </defs>
    <use xlink:href="#DejaVuSans-53"/>
    <use xlink:href="#DejaVuSans-6f" transform="translate(63.476562 0)"/>
    <use xlink:href="#DejaVuSans-75" transform="translate(124.658203 0)"/>
    <use xlink:href="#DejaVuSans-72" transform="translate(188.037109 0)"/>
    <use xlink:href="#DejaVuSans-63" transform="translate(226.900391 0)"/>
    <use xlink:href="#DejaVuSans-65" transform="translate(281.880859 0)"/>
    <use xlink:href="#DejaVuSans-73" transform="translate(343.404297 0)"/>
    <use xlink:href="#DejaVuSans-3a" transform="translate(395.503906 0)"/>
    <use xlink:href="#DejaVuSans-20" transform="translate(429.195312 0)"/>
    <use xlink:href="#DejaVuSans-43" transform="translate(460.982422 0)"/>
    <use xlink:href="#DejaVuSans-54" transform="translate(530.806641 0)"/>
    <use xlink:href="#DejaVuSans-20" transform="translate(591.890625 0)"/>
    <use xlink:href="#DejaVuSans-53" transform="translate(623.677734 0)"/>
    <use xlink:href="#DejaVuSans-44" transform="translate(687.154297 0)"/>
    <use xlink:href="#DejaVuSans-45" transform="translate(764.15625 0)"/>
    <use xlink:href="#DejaVuSans-20" transform="translate(827.339844 0)"/>
    <use xlink:href="#DejaVuSans-4e" transform="translate(859.126953 0)"/>
    <use xlink:href="#DejaVuSans-43" transform="translate(933.931641 0)"/>
    <use xlink:href="#DejaVuSans-45" transform="translate(1003.755859 0)"/>
    <use xlink:href="#DejaVuSans-50" transform="translate(1066.939453 0)"/>
    <use xlink:href="#DejaVuSans-20" transform="translate(1127.242188 0)"/>
    <use xlink:href="#DejaVuSans-32" transform="translate(1159.029297 0)"/>
    <use xlink:href="#DejaVuSans-30" transform="translate(1222.652344 0)"/>
    <use xlink:href="#DejaVuSans-31" transform="translate(1286.275391 0)"/>
    <use xlink:href="#DejaVuSans-39" transform="translate(1349.898438 0)"/>
    <use xlink:href="#DejaVuSans-2d" transform="translate(1413.521484 0)"/>
    <use xlink:href="#DejaVuSans-32" transform="translate(1449.605469 0)"/>
    <use xlink:href="#DejaVuSans-30" transform="translate(1513.228516 0)"/>
    <use xlink:href="#DejaVuSans-20" transform="translate(1576.851562 0)"/>
    <use xlink:href="#DejaVuSans-2013" transform="translate(1608.638672 0)"/>
    <use xlink:href="#DejaVuSans-20" transform="translate(1658.638672 0)"/>
    <use xlink:href="#DejaVuSans-32" transform="translate(1690.425781 0)"/>
    <use xlink:href="#DejaVuSans-30" transform="translate(1754.048828 0)"/>
    <use xlink:href="#DejaVuSans-32" transform="translate(1817.671875 0)"/>
    <use xlink:href="#DejaVuSans-34" transform="translate(1881.294922 0)"/>
    <use xlink:href="#DejaVuSans-2d" transform="translate(1944.917969 0)"/>
    <use xlink:href="#DejaVuSans-32" transform="translate(1981.001953 0)"/>
    <use xlink:href="#DejaVuSans-35" transform="translate(2044.625 0)"/>
    <use xlink:href="#DejaVuSans-20" transform="translate(2108.248047 0)"/>
    <use xlink:href="#DejaVuSans-28" transform="translate(2140.035156 0)"/>
    <use xlink:href="#DejaVuSans-70" transform="translate(2179.048828 0)"/>
    <use xlink:href="#DejaVuSans-72" transform="translate(2242.525391 0)"/>
    <use xlink:href="#DejaVuSans-65" transform="translate(2281.388672 0)"/>
    <use xlink:href="#DejaVuSans-73" transform="translate(2342.912109 0)"/>
    <use xlink:href="#DejaVuSans-63" transform="translate(2395.011719 0)"/>
    <use xlink:href="#DejaVuSans-68" transform="translate(2449.992188 0)"/>
    <use xlink:href="#DejaVuSans-6f" transform="translate(2513.371094 0)"/>
    <use xlink:href="#DejaVuSans-6f" transform="translate(2574.552734 0)"/>
    <use xlink:href="#DejaVuSans-6c" transform="translate(2635.734375 0)"/>
    <use xlink:href="#DejaVuSans-20" transform="translate(2663.517578 0)"/>
    <use xlink:href="#DejaVuSans-69" transform="translate(2695.304688 0)"/>
    <use xlink:href="#DejaVuSans-6e" transform="translate(2723.087891 0)"/>
    <use xlink:href="#DejaVuSans-63" transform="translate(2786.466797 0)"/>
    <use xlink:href="#DejaVuSans-6c" transform="translate(2841.447266 0)"/>
    <use xlink:href="#DejaVuSans-75" transform="translate(2869.230469 0)"/>
    <use xlink:href="#DejaVuSans-64" transform="translate(2932.609375 0)"/>
    <use xlink:href="#DejaVuSans-65" transform="translate(2996.085938 0)"/>
    <use xlink:href="#DejaVuSans-64" transform="translate(3057.609375 0)"/>
    <use xlink:href="#DejaVuSans-2c" transform="translate(3121.085938 0)"/>
    <use xlink:href="#DejaVuSans-20" transform="translate(3152.873047 0)"/>
    <use xlink:href="#DejaVuSans-73" transform="translate(3184.660156 0)"/>
    <use xlink:href="#DejaVuSans-74" transform="translate(3236.759766 0)"/>
    <use xlink:href="#DejaVuSans-61" transform="translate(3275.96875 0)"/>
    <use xlink:href="#DejaVuSans-74" transform="translate(3337.248047 0)"/>
    <use xlink:href="#DejaVuSans-65" transform="translate(3376.457031 0)"/>
    <use xlink:href="#DejaVuSans-20" transform="translate(3437.980469 0)"/>
    <use xlink:href="#DejaVuSans-62" transform="translate(3469.767578 0)"/>
    <use xlink:href="#DejaVuSans-61" transform="translate(3533.244141 0)"/>
    <use xlink:href="#DejaVuSans-73" transform="translate(3594.523438 0)"/>
    <use xlink:href="#DejaVuSans-69" transform="translate(3646.623047 0)"/>
    <use xlink:href="#DejaVuSans-73" transform="translate(3674.40625 0)"/>
    <use xlink:href="#DejaVuSans-29" transform="translate(3726.505859 0)"/>
    <use xlink:href="#DejaVuSans-20" transform="translate(3765.519531 0)"/>
    <use xlink:href="#DejaVuSans-20" transform="translate(3797.306641 0)"/>
    <use xlink:href="#DejaVuSans-b7" transform="translate(3829.09375 0)"/>
    <use xlink:href="#DejaVuSans-20" transform="translate(3860.880859 0)"/>
    <use xlink:href="#DejaVuSans-20" transform="translate(3892.667969 0)"/>
    <use xlink:href="#DejaVuSans-53" transform="translate(3924.455078 0)"/>
    <use xlink:href="#DejaVuSans-6f" transform="translate(3987.931641 0)"/>
    <use xlink:href="#DejaVuSans-63" transform="translate(4049.113281 0)"/>
    <use xlink:href="#DejaVuSans-69" transform="translate(4104.09375 0)"/>
    <use xlink:href="#DejaVuSans-61" transform="translate(4131.876953 0)"/>
    <use xlink:href="#DejaVuSans-6c" transform="translate(4193.15625 0)"/>
    <use xlink:href="#DejaVuSans-20" transform="translate(4220.939453 0)"/>
    <use xlink:href="#DejaVuSans-53" transform="translate(4252.726562 0)"/>
    <use xlink:href="#DejaVuSans-65" transform="translate(4316.203125 0)"/>
    <use xlink:href="#DejaVuSans-63" transform="translate(4377.726562 0)"/>
    <use xlink:href="#DejaVuSans-75" transform="translate(4432.707031 0)"/>
    <use xlink:href="#DejaVuSans-72" transform="translate(4496.085938 0)"/>
    <use xlink:href="#DejaVuSans-69" transform="translate(4537.199219 0)"/>
    <use xlink:href="#DejaVuSans-74" transform="translate(4564.982422 0)"/>
    <use xlink:href="#DejaVuSans-79" transform="translate(4604.191406 0)"/>
    <use xlink:href="#DejaVuSans-20" transform="translate(4663.371094 0)"/>
    <use xlink:href="#DejaVuSans-43" transform="translate(4695.158203 0)"/>
    <use xlink:href="#DejaVuSans-4f" transform="translate(4764.982422 0)"/>
    <use xlink:href="#DejaVuSans-4c" transform="translate(4843.693359 0)"/>
    <use xlink:href="#DejaVuSans-41" transform="translate(4901.65625 0)"/>
    <use xlink:href="#DejaVuSans-2c" transform="translate(4970.064453 0)"/>
    <use xlink:href="#DejaVuSans-20" transform="translate(5001.851562 0)"/>
    <use xlink:href="#DejaVuSans-72" transform="translate(5033.638672 0)"/>
    <use xlink:href="#DejaVuSans-65" transform="translate(5072.501953 0)"/>
    <use xlink:href="#DejaVuSans-62" transform="translate(5134.025391 0)"/>
    <use xlink:href="#DejaVuSans-61" transform="translate(5197.501953 0)"/>
    <use xlink:href="#DejaVuSans-73" transform="translate(5258.78125 0)"/>
    <use xlink:href="#DejaVuSans-65" transform="translate(5310.880859 0)"/>
    <use xlink:href="#DejaVuSans-64" transform="translate(5372.404297 0)"/>
    <use xlink:href="#DejaVuSans-20" transform="translate(5435.880859 0)"/>
    <use xlink:href="#DejaVuSans-74" transform="translate(5467.667969 0)"/>
    <use xlink:href="#DejaVuSans-6f" transform="translate(5506.876953 0)"/>
    <use xlink:href="#DejaVuSans-20" transform="translate(5568.058594 0)"/>
    <use xlink:href="#DejaVuSans-32" transform="translate(5599.845703 0)"/>
    <use xlink:href="#DejaVuSans-30" transform="translate(5663.46875 0)"/>
    <use xlink:href="#DejaVuSans-31" transform="translate(5727.091797 0)"/>
    <use xlink:href="#DejaVuSans-39" transform="translate(5790.714844 0)"/>
    <use xlink:href="#DejaVuSans-2d" transform="translate(5854.337891 0)"/>
    <use xlink:href="#DejaVuSans-32" transform="translate(5890.421875 0)"/>
    <use xlink:href="#DejaVuSans-30" transform="translate(5954.044922 0)"/>
   </g>
  </g>
 </g>
 <defs>
  <clipPath id="p127987fc43">
   <rect x="45.06875" y="69.552" width="649.73125" height="387.406"/>
  </clipPath>
 </defs>
</svg>
