<svg xmlns="http://www.w3.org/2000/svg" viewBox="0 0 900 780" font-family="Georgia, serif">
<rect width="900" height="780" fill="#fafaf7"/>
<text x="450.0" y="35" text-anchor="middle" font-size="20" font-weight="bold" fill="#2c2c2c">Administrative Spending vs. Enrollment, 2024-25</text>
<text x="450.0" y="56" text-anchor="middle" font-size="13" fill="#2c2c2c">45 Connecticut small-town elementary-only districts · smaller districts tend to spend more per pupil</text>
<line x1="90" y1="600.0" x2="860" y2="600.0" stroke="#e4e0d4" stroke-width="1"/>
<text x="82" y="604.0" text-anchor="end" font-size="11" fill="#5a5a5a">$2,000</text>
<line x1="90" y1="520.0" x2="860" y2="520.0" stroke="#e4e0d4" stroke-width="1"/>
<text x="82" y="524.0" text-anchor="end" font-size="11" fill="#5a5a5a">$3,000</text>
<line x1="90" y1="440.0" x2="860" y2="440.0" stroke="#e4e0d4" stroke-width="1"/>
<text x="82" y="444.0" text-anchor="end" font-size="11" fill="#5a5a5a">$4,000</text>
<line x1="90" y1="360.0" x2="860" y2="360.0" stroke="#e4e0d4" stroke-width="1"/>
<text x="82" y="364.0" text-anchor="end" font-size="11" fill="#5a5a5a">$5,000</text>
<line x1="90" y1="280.0" x2="860" y2="280.0" stroke="#e4e0d4" stroke-width="1"/>
<text x="82" y="284.0" text-anchor="end" font-size="11" fill="#5a5a5a">$6,000</text>
<line x1="90" y1="200.0" x2="860" y2="200.0" stroke="#e4e0d4" stroke-width="1"/>
<text x="82" y="204.0" text-anchor="end" font-size="11" fill="#5a5a5a">$7,000</text>
<line x1="90" y1="120.0" x2="860" y2="120.0" stroke="#e4e0d4" stroke-width="1"/>
<text x="82" y="124.0" text-anchor="end" font-size="11" fill="#5a5a5a">$8,000</text>
<line x1="90.0" y1="80" x2="90.0" y2="640" stroke="#e4e0d4" stroke-width="1"/>
<text x="90.0" y="658" text-anchor="middle" font-size="11" fill="#5a5a5a">50</text>
<line x1="246.9" y1="80" x2="246.9" y2="640" stroke="#e4e0d4" stroke-width="1"/>
<text x="246.9" y="658" text-anchor="middle" font-size="11" fill="#5a5a5a">100</text>
<line x1="454.4" y1="80" x2="454.4" y2="640" stroke="#e4e0d4" stroke-width="1"/>
<text x="454.4" y="658" text-anchor="middle" font-size="11" fill="#5a5a5a">250</text>
<line x1="611.3" y1="80" x2="611.3" y2="640" stroke="#e4e0d4" stroke-width="1"/>
<text x="611.3" y="658" text-anchor="middle" font-size="11" fill="#5a5a5a">500</text>
<line x1="768.2" y1="80" x2="768.2" y2="640" stroke="#e4e0d4" stroke-width="1"/>
<text x="768.2" y="658" text-anchor="middle" font-size="11" fill="#5a5a5a">1,000</text>
<line x1="860.0" y1="80" x2="860.0" y2="640" stroke="#e4e0d4" stroke-width="1"/>
<text x="860.0" y="658" text-anchor="middle" font-size="11" fill="#5a5a5a">1,500</text>
<text x="475.0" y="685" text-anchor="middle" font-size="12" fill="#2c2c2c">Enrollment (log scale)</text>
<text x="20" y="360.0" text-anchor="middle" font-size="12" fill="#2c2c2c" transform="rotate(-90 20 360.0)">Administrative spending per pupil</text>
<line x1="90.0" y1="282.3" x2="860.0" y2="599.2" stroke="#c8a85a" stroke-width="2" stroke-dasharray="6,3"/>
<text x="850" y="98" text-anchor="end" font-size="11" fill="#8a6e2e" font-style="italic">trend line (log-linear regression)</text>
<text x="850" y="114" text-anchor="end" font-size="11" fill="#8a6e2e" font-style="italic">Pearson r = -0.68</text>
<circle cx="533.1" cy="440.2" r="5" fill="#9ca3a0" opacity="0.7"/>
<circle cx="434.5" cy="523.8" r="5" fill="#9ca3a0" opacity="0.7"/>
<circle cx="578.2" cy="527.8" r="5" fill="#9ca3a0" opacity="0.7"/>
<circle cx="459.7" cy="470.6" r="5" fill="#9ca3a0" opacity="0.7"/>
<circle cx="802.0" cy="565.8" r="5" fill="#9ca3a0" opacity="0.7"/>
<circle cx="175.7" cy="270.8" r="5" fill="#9ca3a0" opacity="0.7"/>
<circle cx="678.2" cy="587.4" r="5" fill="#9ca3a0" opacity="0.7"/>
<circle cx="358.9" cy="489.8" r="5" fill="#9ca3a0" opacity="0.7"/>
<circle cx="420.2" cy="432.8" r="5" fill="#9ca3a0" opacity="0.7"/>
<circle cx="152.9" cy="204.6" r="5" fill="#9ca3a0" opacity="0.7"/>
<circle cx="659.3" cy="478.2" r="5" fill="#9ca3a0" opacity="0.7"/>
<circle cx="220.5" cy="236.6" r="5" fill="#9ca3a0" opacity="0.7"/>
<circle cx="424.4" cy="361.8" r="5" fill="#9ca3a0" opacity="0.7"/>
<circle cx="426.4" cy="560.5" r="5" fill="#9ca3a0" opacity="0.7"/>
<circle cx="743.3" cy="528.6" r="5" fill="#9ca3a0" opacity="0.7"/>
<circle cx="502.3" cy="467.9" r="5" fill="#9ca3a0" opacity="0.7"/>
<circle cx="456.2" cy="486.6" r="5" fill="#9ca3a0" opacity="0.7"/>
<circle cx="207.5" cy="324.1" r="5" fill="#9ca3a0" opacity="0.7"/>
<circle cx="398.1" cy="367.4" r="5" fill="#9ca3a0" opacity="0.7"/>
<circle cx="683.5" cy="511.1" r="5" fill="#9ca3a0" opacity="0.7"/>
<circle cx="381.2" cy="441.1" r="5" fill="#9ca3a0" opacity="0.7"/>
<circle cx="648.0" cy="573.7" r="5" fill="#9ca3a0" opacity="0.7"/>
<circle cx="763.2" cy="408.7" r="5" fill="#9ca3a0" opacity="0.7"/>
<circle cx="594.9" cy="566.6" r="5" fill="#9ca3a0" opacity="0.7"/>
<circle cx="582.9" cy="483.9" r="5" fill="#9ca3a0" opacity="0.7"/>
<circle cx="145.9" cy="123.5" r="5" fill="#9ca3a0" opacity="0.7"/>
<circle cx="453.5" cy="525.8" r="5" fill="#9ca3a0" opacity="0.7"/>
<circle cx="820.7" cy="624.8" r="5" fill="#9ca3a0" opacity="0.7"/>
<circle cx="616.7" cy="515.8" r="5" fill="#9ca3a0" opacity="0.7"/>
<circle cx="657.8" cy="516.5" r="5" fill="#9ca3a0" opacity="0.7"/>
<circle cx="733.5" cy="542.2" r="5" fill="#9ca3a0" opacity="0.7"/>
<circle cx="635.3" cy="306.6" r="5" fill="#9ca3a0" opacity="0.7"/>
<circle cx="487.2" cy="473.8" r="5" fill="#9ca3a0" opacity="0.7"/>
<circle cx="253.6" cy="443.7" r="5" fill="#9ca3a0" opacity="0.7"/>
<circle cx="251.4" cy="227.0" r="5" fill="#9ca3a0" opacity="0.7"/>
<circle cx="526.6" cy="266.2" r="5" fill="#9ca3a0" opacity="0.7"/>
<circle cx="553.3" cy="550.4" r="5" fill="#9ca3a0" opacity="0.7"/>
<circle cx="587.9" cy="536.2" r="5" fill="#9ca3a0" opacity="0.7"/>
<circle cx="178.8" cy="431.8" r="5" fill="#9ca3a0" opacity="0.7"/>
<circle cx="503.8" cy="492.4" r="5" fill="#9ca3a0" opacity="0.7"/>
<circle cx="550.3" cy="481.0" r="5" fill="#9ca3a0" opacity="0.7"/>
<circle cx="790.6" cy="491.6" r="5" fill="#9ca3a0" opacity="0.7"/>
<circle cx="737.2" cy="531.0" r="5" fill="#9ca3a0" opacity="0.7"/>
<circle cx="795.7" cy="541.8" r="5" fill="#9ca3a0" opacity="0.7"/>
<text x="228.5" y="240.6" text-anchor="start" font-size="10" fill="#5a5a5a">Cornwall</text>
<text x="691.5" y="515.1" text-anchor="start" font-size="10" fill="#5a5a5a">Hebron</text>
<text x="389.2" y="445.1" text-anchor="start" font-size="10" fill="#5a5a5a">Kent</text>
<text x="771.2" y="412.7" text-anchor="start" font-size="10" fill="#5a5a5a">Mansfield</text>
<text x="602.9" y="560.6" text-anchor="start" font-size="10" fill="#5a5a5a">Marlborough</text>
<text x="137.9" y="127.5" text-anchor="end" font-size="10" fill="#5a5a5a">Norfolk</text>
<text x="643.3" y="310.6" text-anchor="start" font-size="10" fill="#5a5a5a">Salem</text>
<text x="243.4" y="231.0" text-anchor="end" font-size="10" fill="#5a5a5a">Sharon</text>
<circle cx="446.1" cy="573.5" r="8" fill="#a8351a" stroke="white" stroke-width="2"/>
<text x="458.1" y="577.5" text-anchor="start" font-size="12" font-weight="bold" fill="#a8351a">Andover</text>
<text x="458.1" y="591.5" text-anchor="start" font-size="11" fill="#a8351a">241 pupils · $2,331</text>
<line x1="446.1" y1="573.5" x2="446.1" y2="428.8" stroke="#a8351a" stroke-width="1.5" stroke-dasharray="2,2" opacity="0.6"/>
<text x="450.0" y="735" text-anchor="middle" font-size="11" font-style="italic" fill="#5a5a5a">Although smaller districts generally spend more per pupil on administration, Andover spends roughly $1,808 less than the trend line predicts for a district its size.</text>
<text x="450.0" y="753" text-anchor="middle" font-size="10" fill="#7a7a7a">"Administration" sums general administration, school-based administration, and central support services. Source: CT EdSight, NCEP 2024-25.</text>
</svg>