<svg xmlns="http://www.w3.org/2000/svg" viewBox="0 0 900 1180" font-family="Georgia, serif">
<rect width="900" height="1180" fill="#fafaf7"/>
<text x="450.0" y="35" text-anchor="middle" font-size="22" font-weight="bold" fill="#2c2c2c">Per-Pupil Spending on General Administration, 2024-25</text>
<text x="450.0" y="58" text-anchor="middle" font-size="14" fill="#2c2c2c">"Superintendent's office" function · 45 Connecticut small-town elementary-only districts</text>
<line x1="180.0" y1="80" x2="180.0" y2="1100" stroke="#e4e0d4" stroke-width="1"/>
<text x="180.0" y="1120" text-anchor="middle" font-size="11" fill="#5a5a5a">$0</text>
<line x1="340.0" y1="80" x2="340.0" y2="1100" stroke="#e4e0d4" stroke-width="1"/>
<text x="340.0" y="1120" text-anchor="middle" font-size="11" fill="#5a5a5a">$1,000</text>
<line x1="500.0" y1="80" x2="500.0" y2="1100" stroke="#e4e0d4" stroke-width="1"/>
<text x="500.0" y="1120" text-anchor="middle" font-size="11" fill="#5a5a5a">$2,000</text>
<line x1="660.0" y1="80" x2="660.0" y2="1100" stroke="#e4e0d4" stroke-width="1"/>
<text x="660.0" y="1120" text-anchor="middle" font-size="11" fill="#5a5a5a">$3,000</text>
<line x1="820.0" y1="80" x2="820.0" y2="1100" stroke="#e4e0d4" stroke-width="1"/>
<text x="820.0" y="1120" text-anchor="middle" font-size="11" fill="#5a5a5a">$4,000</text>
<line x1="361.8" y1="80" x2="361.8" y2="1100" stroke="#c8a85a" stroke-width="2" stroke-dasharray="4,3"/>
<text x="361.8" y="72" text-anchor="middle" font-size="11" fill="#8a6e2e" font-style="italic">peer median $1,136</text>
<text x="172" y="94.3" text-anchor="end" font-size="10" font-weight="normal" fill="#2c2c2c">Easton</text>
<rect x="180" y="81.7" width="68.8" height="19.3" fill="#9ca3a0"/>
<text x="252.8" y="94.3" text-anchor="start" font-size="10" font-weight="normal" fill="#2c2c2c">$430</text>
<text x="172" y="117.0" text-anchor="end" font-size="10" font-weight="normal" fill="#2c2c2c">Redding</text>
<rect x="180" y="104.4" width="76.6" height="19.3" fill="#9ca3a0"/>
<text x="260.6" y="117.0" text-anchor="start" font-size="10" font-weight="normal" fill="#2c2c2c">$479</text>
<text x="172" y="139.7" text-anchor="end" font-size="10" font-weight="normal" fill="#2c2c2c">Lisbon</text>
<rect x="180" y="127.0" width="91.2" height="19.3" fill="#9ca3a0"/>
<text x="275.2" y="139.7" text-anchor="start" font-size="10" font-weight="normal" fill="#2c2c2c">$570</text>
<text x="172" y="162.3" text-anchor="end" font-size="10" font-weight="normal" fill="#2c2c2c">Woodstock</text>
<rect x="180" y="149.7" width="92.8" height="19.3" fill="#9ca3a0"/>
<text x="276.8" y="162.3" text-anchor="start" font-size="10" font-weight="normal" fill="#2c2c2c">$580</text>
<text x="172" y="185.0" text-anchor="end" font-size="10" font-weight="normal" fill="#2c2c2c">Orange</text>
<rect x="180" y="172.4" width="93.1" height="19.3" fill="#9ca3a0"/>
<text x="277.1" y="185.0" text-anchor="start" font-size="10" font-weight="normal" fill="#2c2c2c">$582</text>
<text x="172" y="207.7" text-anchor="end" font-size="10" font-weight="normal" fill="#2c2c2c">Marlborough</text>
<rect x="180" y="195.0" width="94.9" height="19.3" fill="#9ca3a0"/>
<text x="278.9" y="207.7" text-anchor="start" font-size="10" font-weight="normal" fill="#2c2c2c">$593</text>
<text x="172" y="230.3" text-anchor="end" font-size="10" font-weight="normal" fill="#2c2c2c">Ashford</text>
<rect x="180" y="217.7" width="97.0" height="19.3" fill="#9ca3a0"/>
<text x="281.0" y="230.3" text-anchor="start" font-size="10" font-weight="normal" fill="#2c2c2c">$606</text>
<text x="172" y="253.0" text-anchor="end" font-size="10" font-weight="normal" fill="#2c2c2c">Brooklyn</text>
<rect x="180" y="240.4" width="103.5" height="19.3" fill="#9ca3a0"/>
<text x="287.5" y="253.0" text-anchor="start" font-size="10" font-weight="normal" fill="#2c2c2c">$647</text>
<text x="172" y="275.7" text-anchor="end" font-size="10" font-weight="normal" fill="#2c2c2c">Canterbury</text>
<rect x="180" y="263.0" width="103.8" height="19.3" fill="#9ca3a0"/>
<text x="287.8" y="275.7" text-anchor="start" font-size="10" font-weight="normal" fill="#2c2c2c">$649</text>
<text x="172" y="298.3" text-anchor="end" font-size="10" font-weight="bold" fill="#a8351a">Andover</text>
<rect x="180" y="285.7" width="116.3" height="19.3" fill="#a8351a"/>
<text x="300.3" y="298.3" text-anchor="start" font-size="10" font-weight="bold" fill="#a8351a">$727</text>
<text x="172" y="321.0" text-anchor="end" font-size="10" font-weight="normal" fill="#2c2c2c">Hebron</text>
<rect x="180" y="308.4" width="124.2" height="19.3" fill="#9ca3a0"/>
<text x="308.2" y="321.0" text-anchor="start" font-size="10" font-weight="normal" fill="#2c2c2c">$776</text>
<text x="172" y="343.7" text-anchor="end" font-size="10" font-weight="normal" fill="#2c2c2c">Pomfret</text>
<rect x="180" y="331.0" width="131.7" height="19.3" fill="#9ca3a0"/>
<text x="315.7" y="343.7" text-anchor="start" font-size="10" font-weight="normal" fill="#2c2c2c">$823</text>
<text x="172" y="366.3" text-anchor="end" font-size="10" font-weight="normal" fill="#2c2c2c">Sprague</text>
<rect x="180" y="353.7" width="137.9" height="19.3" fill="#9ca3a0"/>
<text x="321.9" y="366.3" text-anchor="start" font-size="10" font-weight="normal" fill="#2c2c2c">$862</text>
<text x="172" y="389.0" text-anchor="end" font-size="10" font-weight="normal" fill="#2c2c2c">Union</text>
<rect x="180" y="376.4" width="137.9" height="19.3" fill="#9ca3a0"/>
<text x="321.9" y="389.0" text-anchor="start" font-size="10" font-weight="normal" fill="#2c2c2c">$862</text>
<text x="172" y="411.7" text-anchor="end" font-size="10" font-weight="normal" fill="#2c2c2c">Willington</text>
<rect x="180" y="399.0" width="156.0" height="19.3" fill="#9ca3a0"/>
<text x="340.0" y="411.7" text-anchor="start" font-size="10" font-weight="normal" fill="#2c2c2c">$975</text>
<text x="172" y="434.3" text-anchor="end" font-size="10" font-weight="normal" fill="#2c2c2c">Cornwall</text>
<rect x="180" y="421.7" width="157.6" height="19.3" fill="#9ca3a0"/>
<text x="341.6" y="434.3" text-anchor="start" font-size="10" font-weight="normal" fill="#2c2c2c">$985</text>
<text x="172" y="457.0" text-anchor="end" font-size="10" font-weight="normal" fill="#2c2c2c">Salisbury</text>
<rect x="180" y="444.4" width="158.6" height="19.3" fill="#9ca3a0"/>
<text x="342.6" y="457.0" text-anchor="start" font-size="10" font-weight="normal" fill="#2c2c2c">$991</text>
<text x="172" y="479.7" text-anchor="end" font-size="10" font-weight="normal" fill="#2c2c2c">Winchester</text>
<rect x="180" y="467.0" width="161.9" height="19.3" fill="#9ca3a0"/>
<text x="345.9" y="479.7" text-anchor="start" font-size="10" font-weight="normal" fill="#2c2c2c">$1,012</text>
<text x="172" y="502.3" text-anchor="end" font-size="10" font-weight="normal" fill="#2c2c2c">Sterling</text>
<rect x="180" y="489.7" width="163.2" height="19.3" fill="#9ca3a0"/>
<text x="347.2" y="502.3" text-anchor="start" font-size="10" font-weight="normal" fill="#2c2c2c">$1,020</text>
<text x="172" y="525.0" text-anchor="end" font-size="10" font-weight="normal" fill="#2c2c2c">North Canaan</text>
<rect x="180" y="512.4" width="166.9" height="19.3" fill="#9ca3a0"/>
<text x="350.9" y="525.0" text-anchor="start" font-size="10" font-weight="normal" fill="#2c2c2c">$1,043</text>
<text x="172" y="547.7" text-anchor="end" font-size="10" font-weight="normal" fill="#2c2c2c">Mansfield</text>
<rect x="180" y="535.0" width="169.1" height="19.3" fill="#9ca3a0"/>
<text x="353.1" y="547.7" text-anchor="start" font-size="10" font-weight="normal" fill="#2c2c2c">$1,057</text>
<text x="172" y="570.3" text-anchor="end" font-size="10" font-weight="normal" fill="#2c2c2c">Chaplin</text>
<rect x="180" y="557.7" width="174.1" height="19.3" fill="#9ca3a0"/>
<text x="358.1" y="570.3" text-anchor="start" font-size="10" font-weight="normal" fill="#2c2c2c">$1,088</text>
<text x="172" y="593.0" text-anchor="end" font-size="10" font-weight="normal" fill="#2c2c2c">Bozrah</text>
<rect x="180" y="580.4" width="181.8" height="19.3" fill="#9ca3a0"/>
<text x="365.8" y="593.0" text-anchor="start" font-size="10" font-weight="normal" fill="#2c2c2c">$1,136</text>
<text x="172" y="615.7" text-anchor="end" font-size="10" font-weight="normal" fill="#2c2c2c">Woodbridge</text>
<rect x="180" y="603.0" width="186.6" height="19.3" fill="#9ca3a0"/>
<text x="370.6" y="615.7" text-anchor="start" font-size="10" font-weight="normal" fill="#2c2c2c">$1,166</text>
<text x="172" y="638.3" text-anchor="end" font-size="10" font-weight="normal" fill="#2c2c2c">Eastford</text>
<rect x="180" y="625.7" width="188.0" height="19.3" fill="#9ca3a0"/>
<text x="372.0" y="638.3" text-anchor="start" font-size="10" font-weight="normal" fill="#2c2c2c">$1,175</text>
<text x="172" y="661.0" text-anchor="end" font-size="10" font-weight="normal" fill="#2c2c2c">Barkhamsted</text>
<rect x="180" y="648.4" width="191.0" height="19.3" fill="#9ca3a0"/>
<text x="375.0" y="661.0" text-anchor="start" font-size="10" font-weight="normal" fill="#2c2c2c">$1,194</text>
<text x="172" y="683.7" text-anchor="end" font-size="10" font-weight="normal" fill="#2c2c2c">Sharon</text>
<rect x="180" y="671.0" width="200.3" height="19.3" fill="#9ca3a0"/>
<text x="384.3" y="683.7" text-anchor="start" font-size="10" font-weight="normal" fill="#2c2c2c">$1,252</text>
<text x="172" y="706.3" text-anchor="end" font-size="10" font-weight="normal" fill="#2c2c2c">Canaan</text>
<rect x="180" y="693.7" width="210.6" height="19.3" fill="#9ca3a0"/>
<text x="394.6" y="706.3" text-anchor="start" font-size="10" font-weight="normal" fill="#2c2c2c">$1,316</text>
<text x="172" y="729.0" text-anchor="end" font-size="10" font-weight="normal" fill="#2c2c2c">Essex</text>
<rect x="180" y="716.4" width="210.6" height="19.3" fill="#9ca3a0"/>
<text x="394.6" y="729.0" text-anchor="start" font-size="10" font-weight="normal" fill="#2c2c2c">$1,316</text>
<text x="172" y="751.7" text-anchor="end" font-size="10" font-weight="normal" fill="#2c2c2c">Hartland</text>
<rect x="180" y="739.0" width="221.1" height="19.3" fill="#9ca3a0"/>
<text x="405.1" y="751.7" text-anchor="start" font-size="10" font-weight="normal" fill="#2c2c2c">$1,382</text>
<text x="172" y="774.3" text-anchor="end" font-size="10" font-weight="normal" fill="#2c2c2c">Hampton</text>
<rect x="180" y="761.7" width="234.2" height="19.3" fill="#9ca3a0"/>
<text x="418.2" y="774.3" text-anchor="start" font-size="10" font-weight="normal" fill="#2c2c2c">$1,464</text>
<text x="172" y="797.0" text-anchor="end" font-size="10" font-weight="normal" fill="#2c2c2c">Scotland</text>
<rect x="180" y="784.4" width="241.1" height="19.3" fill="#9ca3a0"/>
<text x="425.1" y="797.0" text-anchor="start" font-size="10" font-weight="normal" fill="#2c2c2c">$1,507</text>
<text x="172" y="819.7" text-anchor="end" font-size="10" font-weight="normal" fill="#2c2c2c">Kent</text>
<rect x="180" y="807.0" width="250.2" height="19.3" fill="#9ca3a0"/>
<text x="434.2" y="819.7" text-anchor="start" font-size="10" font-weight="normal" fill="#2c2c2c">$1,564</text>
<text x="172" y="842.3" text-anchor="end" font-size="10" font-weight="normal" fill="#2c2c2c">Voluntown</text>
<rect x="180" y="829.7" width="252.2" height="19.3" fill="#9ca3a0"/>
<text x="436.2" y="842.3" text-anchor="start" font-size="10" font-weight="normal" fill="#2c2c2c">$1,576</text>
<text x="172" y="865.0" text-anchor="end" font-size="10" font-weight="normal" fill="#2c2c2c">Deep River</text>
<rect x="180" y="852.4" width="266.6" height="19.3" fill="#9ca3a0"/>
<text x="450.6" y="865.0" text-anchor="start" font-size="10" font-weight="normal" fill="#2c2c2c">$1,666</text>
<text x="172" y="887.7" text-anchor="end" font-size="10" font-weight="normal" fill="#2c2c2c">Preston</text>
<rect x="180" y="875.0" width="266.9" height="19.3" fill="#9ca3a0"/>
<text x="450.9" y="887.7" text-anchor="start" font-size="10" font-weight="normal" fill="#2c2c2c">$1,668</text>
<text x="172" y="910.3" text-anchor="end" font-size="10" font-weight="normal" fill="#2c2c2c">Columbia</text>
<rect x="180" y="897.7" width="277.4" height="19.3" fill="#9ca3a0"/>
<text x="461.4" y="910.3" text-anchor="start" font-size="10" font-weight="normal" fill="#2c2c2c">$1,734</text>
<text x="172" y="933.0" text-anchor="end" font-size="10" font-weight="normal" fill="#2c2c2c">Bethany</text>
<rect x="180" y="920.4" width="289.0" height="19.3" fill="#9ca3a0"/>
<text x="473.0" y="933.0" text-anchor="start" font-size="10" font-weight="normal" fill="#2c2c2c">$1,806</text>
<text x="172" y="955.7" text-anchor="end" font-size="10" font-weight="normal" fill="#2c2c2c">Chester</text>
<rect x="180" y="943.0" width="295.0" height="19.3" fill="#9ca3a0"/>
<text x="479.0" y="955.7" text-anchor="start" font-size="10" font-weight="normal" fill="#2c2c2c">$1,844</text>
<text x="172" y="978.3" text-anchor="end" font-size="10" font-weight="normal" fill="#2c2c2c">New Hartford</text>
<rect x="180" y="965.7" width="329.6" height="19.3" fill="#9ca3a0"/>
<text x="513.6" y="978.3" text-anchor="start" font-size="10" font-weight="normal" fill="#2c2c2c">$2,060</text>
<text x="172" y="1001.0" text-anchor="end" font-size="10" font-weight="normal" fill="#2c2c2c">Sherman</text>
<rect x="180" y="988.4" width="330.7" height="19.3" fill="#9ca3a0"/>
<text x="514.7" y="1001.0" text-anchor="start" font-size="10" font-weight="normal" fill="#2c2c2c">$2,067</text>
<text x="172" y="1023.7" text-anchor="end" font-size="10" font-weight="normal" fill="#2c2c2c">Franklin</text>
<rect x="180" y="1011.0" width="364.0" height="19.3" fill="#9ca3a0"/>
<text x="548.0" y="1023.7" text-anchor="start" font-size="10" font-weight="normal" fill="#2c2c2c">$2,275</text>
<text x="172" y="1046.3" text-anchor="end" font-size="10" font-weight="normal" fill="#2c2c2c">Colebrook</text>
<rect x="180" y="1033.7" width="427.5" height="19.3" fill="#9ca3a0"/>
<text x="611.5" y="1046.3" text-anchor="start" font-size="10" font-weight="normal" fill="#2c2c2c">$2,672</text>
<text x="172" y="1069.0" text-anchor="end" font-size="10" font-weight="normal" fill="#2c2c2c">Salem</text>
<rect x="180" y="1056.4" width="469.8" height="19.3" fill="#9ca3a0"/>
<text x="653.8" y="1069.0" text-anchor="start" font-size="10" font-weight="normal" fill="#2c2c2c">$2,936</text>
<text x="172" y="1091.7" text-anchor="end" font-size="10" font-weight="normal" fill="#2c2c2c">Norfolk</text>
<rect x="180" y="1079.0" width="592.0" height="19.3" fill="#9ca3a0"/>
<text x="776.0" y="1091.7" text-anchor="start" font-size="10" font-weight="normal" fill="#2c2c2c">$3,700</text>
<text x="450.0" y="1145" text-anchor="middle" font-size="11" font-style="italic" fill="#5a5a5a">Andover spends $409 less per pupil on general administration than the median peer.</text>
<text x="450.0" y="1159" text-anchor="middle" font-size="10" fill="#7a7a7a">"General administration" includes the superintendent's office (CT SDE Function 23XX). Source: CT EdSight, NCEP 2024-25.</text>
</svg>