<svg xmlns="http://www.w3.org/2000/svg" viewBox="0 0 900 1180" font-family="Georgia, serif">
<rect width="900" height="1180" fill="#fafaf7"/>
<text x="450.0" y="35" text-anchor="middle" font-size="22" font-weight="bold" fill="#2c2c2c">Total Per-Pupil Spending, 2024-25</text>
<text x="450.0" y="58" text-anchor="middle" font-size="14" fill="#2c2c2c">45 Connecticut small-town elementary-only districts · ranked low to high</text>
<line x1="180.0" y1="80" x2="180.0" y2="1100" stroke="#e4e0d4" stroke-width="1"/>
<text x="180.0" y="1120" text-anchor="middle" font-size="11" fill="#5a5a5a">$0K</text>
<line x1="308.0" y1="80" x2="308.0" y2="1100" stroke="#e4e0d4" stroke-width="1"/>
<text x="308.0" y="1120" text-anchor="middle" font-size="11" fill="#5a5a5a">$10K</text>
<line x1="436.0" y1="80" x2="436.0" y2="1100" stroke="#e4e0d4" stroke-width="1"/>
<text x="436.0" y="1120" text-anchor="middle" font-size="11" fill="#5a5a5a">$20K</text>
<line x1="564.0" y1="80" x2="564.0" y2="1100" stroke="#e4e0d4" stroke-width="1"/>
<text x="564.0" y="1120" text-anchor="middle" font-size="11" fill="#5a5a5a">$30K</text>
<line x1="692.0" y1="80" x2="692.0" y2="1100" stroke="#e4e0d4" stroke-width="1"/>
<text x="692.0" y="1120" text-anchor="middle" font-size="11" fill="#5a5a5a">$40K</text>
<line x1="820.0" y1="80" x2="820.0" y2="1100" stroke="#e4e0d4" stroke-width="1"/>
<text x="820.0" y="1120" text-anchor="middle" font-size="11" fill="#5a5a5a">$50K</text>
<line x1="508.9" y1="80" x2="508.9" y2="1100" stroke="#c8a85a" stroke-width="2" stroke-dasharray="4,3"/>
<text x="508.9" y="72" text-anchor="middle" font-size="11" fill="#8a6e2e" font-style="italic">peer median $25K</text>
<text x="172" y="94.3" text-anchor="end" font-size="10" font-weight="bold" fill="#a8351a">Andover</text>
<rect x="180" y="81.7" width="243.3" height="19.3" fill="#a8351a"/>
<text x="427.3" y="94.3" text-anchor="start" font-size="10" font-weight="bold" fill="#a8351a">$19,009</text>
<text x="172" y="117.0" text-anchor="end" font-size="10" font-weight="normal" fill="#2c2c2c">Marlborough</text>
<rect x="180" y="104.4" width="247.9" height="19.3" fill="#9ca3a0"/>
<text x="431.9" y="117.0" text-anchor="start" font-size="10" font-weight="normal" fill="#2c2c2c">$19,368</text>
<text x="172" y="139.7" text-anchor="end" font-size="10" font-weight="normal" fill="#2c2c2c">Canterbury</text>
<rect x="180" y="127.0" width="254.3" height="19.3" fill="#9ca3a0"/>
<text x="438.3" y="139.7" text-anchor="start" font-size="10" font-weight="normal" fill="#2c2c2c">$19,867</text>
<text x="172" y="162.3" text-anchor="end" font-size="10" font-weight="normal" fill="#2c2c2c">Bethany</text>
<rect x="180" y="149.7" width="255.2" height="19.3" fill="#9ca3a0"/>
<text x="439.2" y="162.3" text-anchor="start" font-size="10" font-weight="normal" fill="#2c2c2c">$19,937</text>
<text x="172" y="185.0" text-anchor="end" font-size="10" font-weight="normal" fill="#2c2c2c">Brooklyn</text>
<rect x="180" y="172.4" width="259.2" height="19.3" fill="#9ca3a0"/>
<text x="443.2" y="185.0" text-anchor="start" font-size="10" font-weight="normal" fill="#2c2c2c">$20,250</text>
<text x="172" y="207.7" text-anchor="end" font-size="10" font-weight="normal" fill="#2c2c2c">Lisbon</text>
<rect x="180" y="195.0" width="261.1" height="19.3" fill="#9ca3a0"/>
<text x="445.1" y="207.7" text-anchor="start" font-size="10" font-weight="normal" fill="#2c2c2c">$20,397</text>
<text x="172" y="230.3" text-anchor="end" font-size="10" font-weight="normal" fill="#2c2c2c">Orange</text>
<rect x="180" y="217.7" width="262.7" height="19.3" fill="#9ca3a0"/>
<text x="446.7" y="230.3" text-anchor="start" font-size="10" font-weight="normal" fill="#2c2c2c">$20,523</text>
<text x="172" y="253.0" text-anchor="end" font-size="10" font-weight="normal" fill="#2c2c2c">Woodbridge</text>
<rect x="180" y="240.4" width="265.8" height="19.3" fill="#9ca3a0"/>
<text x="449.8" y="253.0" text-anchor="start" font-size="10" font-weight="normal" fill="#2c2c2c">$20,768</text>
<text x="172" y="275.7" text-anchor="end" font-size="10" font-weight="normal" fill="#2c2c2c">Woodstock</text>
<rect x="180" y="263.0" width="267.7" height="19.3" fill="#9ca3a0"/>
<text x="451.7" y="275.7" text-anchor="start" font-size="10" font-weight="normal" fill="#2c2c2c">$20,916</text>
<text x="172" y="298.3" text-anchor="end" font-size="10" font-weight="normal" fill="#2c2c2c">Sterling</text>
<rect x="180" y="285.7" width="270.1" height="19.3" fill="#9ca3a0"/>
<text x="454.1" y="298.3" text-anchor="start" font-size="10" font-weight="normal" fill="#2c2c2c">$21,100</text>
<text x="172" y="321.0" text-anchor="end" font-size="10" font-weight="normal" fill="#2c2c2c">Sprague</text>
<rect x="180" y="308.4" width="271.5" height="19.3" fill="#9ca3a0"/>
<text x="455.5" y="321.0" text-anchor="start" font-size="10" font-weight="normal" fill="#2c2c2c">$21,209</text>
<text x="172" y="343.7" text-anchor="end" font-size="10" font-weight="normal" fill="#2c2c2c">Hebron</text>
<rect x="180" y="331.0" width="274.4" height="19.3" fill="#9ca3a0"/>
<text x="458.4" y="343.7" text-anchor="start" font-size="10" font-weight="normal" fill="#2c2c2c">$21,439</text>
<text x="172" y="366.3" text-anchor="end" font-size="10" font-weight="normal" fill="#2c2c2c">Salem</text>
<rect x="180" y="353.7" width="278.4" height="19.3" fill="#9ca3a0"/>
<text x="462.4" y="366.3" text-anchor="start" font-size="10" font-weight="normal" fill="#2c2c2c">$21,747</text>
<text x="172" y="389.0" text-anchor="end" font-size="10" font-weight="normal" fill="#2c2c2c">Barkhamsted</text>
<rect x="180" y="376.4" width="279.8" height="19.3" fill="#9ca3a0"/>
<text x="463.8" y="389.0" text-anchor="start" font-size="10" font-weight="normal" fill="#2c2c2c">$21,860</text>
<text x="172" y="411.7" text-anchor="end" font-size="10" font-weight="normal" fill="#2c2c2c">Eastford</text>
<rect x="180" y="399.0" width="287.7" height="19.3" fill="#9ca3a0"/>
<text x="471.7" y="411.7" text-anchor="start" font-size="10" font-weight="normal" fill="#2c2c2c">$22,476</text>
<text x="172" y="434.3" text-anchor="end" font-size="10" font-weight="normal" fill="#2c2c2c">Columbia</text>
<rect x="180" y="421.7" width="288.7" height="19.3" fill="#9ca3a0"/>
<text x="472.7" y="434.3" text-anchor="start" font-size="10" font-weight="normal" fill="#2c2c2c">$22,557</text>
<text x="172" y="457.0" text-anchor="end" font-size="10" font-weight="normal" fill="#2c2c2c">Easton</text>
<rect x="180" y="444.4" width="296.3" height="19.3" fill="#9ca3a0"/>
<text x="480.3" y="457.0" text-anchor="start" font-size="10" font-weight="normal" fill="#2c2c2c">$23,151</text>
<text x="172" y="479.7" text-anchor="end" font-size="10" font-weight="normal" fill="#2c2c2c">Franklin</text>
<rect x="180" y="467.0" width="297.7" height="19.3" fill="#9ca3a0"/>
<text x="481.7" y="479.7" text-anchor="start" font-size="10" font-weight="normal" fill="#2c2c2c">$23,258</text>
<text x="172" y="502.3" text-anchor="end" font-size="10" font-weight="normal" fill="#2c2c2c">Winchester</text>
<rect x="180" y="489.7" width="297.8" height="19.3" fill="#9ca3a0"/>
<text x="481.8" y="502.3" text-anchor="start" font-size="10" font-weight="normal" fill="#2c2c2c">$23,264</text>
<text x="172" y="525.0" text-anchor="end" font-size="10" font-weight="normal" fill="#2c2c2c">Pomfret</text>
<rect x="180" y="512.4" width="300.7" height="19.3" fill="#9ca3a0"/>
<text x="484.7" y="525.0" text-anchor="start" font-size="10" font-weight="normal" fill="#2c2c2c">$23,489</text>
<text x="172" y="547.7" text-anchor="end" font-size="10" font-weight="normal" fill="#2c2c2c">New Hartford</text>
<rect x="180" y="535.0" width="314.1" height="19.3" fill="#9ca3a0"/>
<text x="498.1" y="547.7" text-anchor="start" font-size="10" font-weight="normal" fill="#2c2c2c">$24,538</text>
<text x="172" y="570.3" text-anchor="end" font-size="10" font-weight="normal" fill="#2c2c2c">Voluntown</text>
<rect x="180" y="557.7" width="321.4" height="19.3" fill="#9ca3a0"/>
<text x="505.4" y="570.3" text-anchor="start" font-size="10" font-weight="normal" fill="#2c2c2c">$25,110</text>
<text x="172" y="593.0" text-anchor="end" font-size="10" font-weight="normal" fill="#2c2c2c">Bozrah</text>
<rect x="180" y="580.4" width="328.9" height="19.3" fill="#9ca3a0"/>
<text x="512.9" y="593.0" text-anchor="start" font-size="10" font-weight="normal" fill="#2c2c2c">$25,699</text>
<text x="172" y="615.7" text-anchor="end" font-size="10" font-weight="normal" fill="#2c2c2c">North Canaan</text>
<rect x="180" y="603.0" width="330.4" height="19.3" fill="#9ca3a0"/>
<text x="514.4" y="615.7" text-anchor="start" font-size="10" font-weight="normal" fill="#2c2c2c">$25,810</text>
<text x="172" y="638.3" text-anchor="end" font-size="10" font-weight="normal" fill="#2c2c2c">Preston</text>
<rect x="180" y="625.7" width="330.5" height="19.3" fill="#9ca3a0"/>
<text x="514.5" y="638.3" text-anchor="start" font-size="10" font-weight="normal" fill="#2c2c2c">$25,820</text>
<text x="172" y="661.0" text-anchor="end" font-size="10" font-weight="normal" fill="#2c2c2c">Chaplin</text>
<rect x="180" y="648.4" width="334.2" height="19.3" fill="#9ca3a0"/>
<text x="518.2" y="661.0" text-anchor="start" font-size="10" font-weight="normal" fill="#2c2c2c">$26,109</text>
<text x="172" y="683.7" text-anchor="end" font-size="10" font-weight="normal" fill="#2c2c2c">Ashford</text>
<rect x="180" y="671.0" width="339.9" height="19.3" fill="#9ca3a0"/>
<text x="523.9" y="683.7" text-anchor="start" font-size="10" font-weight="normal" fill="#2c2c2c">$26,551</text>
<text x="172" y="706.3" text-anchor="end" font-size="10" font-weight="normal" fill="#2c2c2c">Union</text>
<rect x="180" y="693.7" width="342.2" height="19.3" fill="#9ca3a0"/>
<text x="526.2" y="706.3" text-anchor="start" font-size="10" font-weight="normal" fill="#2c2c2c">$26,736</text>
<text x="172" y="729.0" text-anchor="end" font-size="10" font-weight="normal" fill="#2c2c2c">Scotland</text>
<rect x="180" y="716.4" width="343.4" height="19.3" fill="#9ca3a0"/>
<text x="527.4" y="729.0" text-anchor="start" font-size="10" font-weight="normal" fill="#2c2c2c">$26,826</text>
<text x="172" y="751.7" text-anchor="end" font-size="10" font-weight="normal" fill="#2c2c2c">Mansfield</text>
<rect x="180" y="739.0" width="353.9" height="19.3" fill="#9ca3a0"/>
<text x="537.9" y="751.7" text-anchor="start" font-size="10" font-weight="normal" fill="#2c2c2c">$27,651</text>
<text x="172" y="774.3" text-anchor="end" font-size="10" font-weight="normal" fill="#2c2c2c">Hampton</text>
<rect x="180" y="761.7" width="355.5" height="19.3" fill="#9ca3a0"/>
<text x="539.5" y="774.3" text-anchor="start" font-size="10" font-weight="normal" fill="#2c2c2c">$27,773</text>
<text x="172" y="797.0" text-anchor="end" font-size="10" font-weight="normal" fill="#2c2c2c">Chester</text>
<rect x="180" y="784.4" width="360.6" height="19.3" fill="#9ca3a0"/>
<text x="544.6" y="797.0" text-anchor="start" font-size="10" font-weight="normal" fill="#2c2c2c">$28,172</text>
<text x="172" y="819.7" text-anchor="end" font-size="10" font-weight="normal" fill="#2c2c2c">Essex</text>
<rect x="180" y="807.0" width="361.0" height="19.3" fill="#9ca3a0"/>
<text x="545.0" y="819.7" text-anchor="start" font-size="10" font-weight="normal" fill="#2c2c2c">$28,206</text>
<text x="172" y="842.3" text-anchor="end" font-size="10" font-weight="normal" fill="#2c2c2c">Deep River</text>
<rect x="180" y="829.7" width="368.9" height="19.3" fill="#9ca3a0"/>
<text x="552.9" y="842.3" text-anchor="start" font-size="10" font-weight="normal" fill="#2c2c2c">$28,818</text>
<text x="172" y="865.0" text-anchor="end" font-size="10" font-weight="normal" fill="#2c2c2c">Willington</text>
<rect x="180" y="852.4" width="370.8" height="19.3" fill="#9ca3a0"/>
<text x="554.8" y="865.0" text-anchor="start" font-size="10" font-weight="normal" fill="#2c2c2c">$28,966</text>
<text x="172" y="887.7" text-anchor="end" font-size="10" font-weight="normal" fill="#2c2c2c">Sherman</text>
<rect x="180" y="875.0" width="380.0" height="19.3" fill="#9ca3a0"/>
<text x="564.0" y="887.7" text-anchor="start" font-size="10" font-weight="normal" fill="#2c2c2c">$29,686</text>
<text x="172" y="910.3" text-anchor="end" font-size="10" font-weight="normal" fill="#2c2c2c">Hartland</text>
<rect x="180" y="897.7" width="387.3" height="19.3" fill="#9ca3a0"/>
<text x="571.3" y="910.3" text-anchor="start" font-size="10" font-weight="normal" fill="#2c2c2c">$30,256</text>
<text x="172" y="933.0" text-anchor="end" font-size="10" font-weight="normal" fill="#2c2c2c">Redding</text>
<rect x="180" y="920.4" width="389.7" height="19.3" fill="#9ca3a0"/>
<text x="573.7" y="933.0" text-anchor="start" font-size="10" font-weight="normal" fill="#2c2c2c">$30,448</text>
<text x="172" y="955.7" text-anchor="end" font-size="10" font-weight="normal" fill="#2c2c2c">Salisbury</text>
<rect x="180" y="943.0" width="396.7" height="19.3" fill="#9ca3a0"/>
<text x="580.7" y="955.7" text-anchor="start" font-size="10" font-weight="normal" fill="#2c2c2c">$30,989</text>
<text x="172" y="978.3" text-anchor="end" font-size="10" font-weight="normal" fill="#2c2c2c">Colebrook</text>
<rect x="180" y="965.7" width="427.2" height="19.3" fill="#9ca3a0"/>
<text x="611.2" y="978.3" text-anchor="start" font-size="10" font-weight="normal" fill="#2c2c2c">$33,373</text>
<text x="172" y="1001.0" text-anchor="end" font-size="10" font-weight="normal" fill="#2c2c2c">Kent</text>
<rect x="180" y="988.4" width="449.7" height="19.3" fill="#9ca3a0"/>
<text x="633.7" y="1001.0" text-anchor="start" font-size="10" font-weight="normal" fill="#2c2c2c">$35,130</text>
<text x="172" y="1023.7" text-anchor="end" font-size="10" font-weight="normal" fill="#2c2c2c">Canaan</text>
<rect x="180" y="1011.0" width="505.9" height="19.3" fill="#9ca3a0"/>
<text x="689.9" y="1023.7" text-anchor="start" font-size="10" font-weight="normal" fill="#2c2c2c">$39,520</text>
<text x="172" y="1046.3" text-anchor="end" font-size="10" font-weight="normal" fill="#2c2c2c">Cornwall</text>
<rect x="180" y="1033.7" width="514.6" height="19.3" fill="#9ca3a0"/>
<text x="698.6" y="1046.3" text-anchor="start" font-size="10" font-weight="normal" fill="#2c2c2c">$40,205</text>
<text x="172" y="1069.0" text-anchor="end" font-size="10" font-weight="normal" fill="#2c2c2c">Norfolk</text>
<rect x="180" y="1056.4" width="589.0" height="19.3" fill="#9ca3a0"/>
<text x="773.0" y="1069.0" text-anchor="start" font-size="10" font-weight="normal" fill="#2c2c2c">$46,016</text>
<text x="172" y="1091.7" text-anchor="end" font-size="10" font-weight="normal" fill="#2c2c2c">Sharon</text>
<rect x="180" y="1079.0" width="624.0" height="19.3" fill="#9ca3a0"/>
<text x="808.0" y="1091.7" text-anchor="start" font-size="10" font-weight="normal" fill="#2c2c2c">$48,747</text>
<text x="450.0" y="1145" text-anchor="middle" font-size="11" font-style="italic" fill="#5a5a5a">Andover spends $6,690 less per pupil than the median peer district.</text>
<text x="450.0" y="1159" text-anchor="middle" font-size="10" fill="#7a7a7a">Peer set excludes Norwich (5,174 pupils — city district, structurally distinct). Source: CT EdSight, NCEP 2024-25.</text>
</svg>