<svg xmlns="http://www.w3.org/2000/svg" viewBox="0 0 1000 620" width="1000" height="620" role="img">
<rect width="1000" height="620" fill="#f4f6f9"/>
<rect x="0" y="0" width="1000" height="4" fill="#e8a800"/>
<text x="34" y="46" font-family="Georgia, 'Times New Roman', serif" font-size="25" font-weight="bold" fill="#143862">Performance and student need, 2024-25</text>
<text x="34" y="72" font-family="Georgia, 'Times New Roman', serif" font-size="15.5" font-style="italic" fill="#4a566a">Student need explains most of the difference between districts. Same scale in both years.</text>
<circle cx="38" cy="92" r="5" fill="#9a7400"/>
<text x="49" y="96" font-family="Georgia, 'Times New Roman', serif" font-size="13.5" fill="#4a566a">Andover</text>
<rect x="116.30000000000001" y="88" width="9" height="9" fill="#143862" transform="rotate(45 120.80000000000001 92.5)"/>
<text x="132.3" y="96" font-family="Georgia, 'Times New Roman', serif" font-size="13.5" fill="#4a566a">Connecticut</text>
<circle cx="232.20000000000002" cy="92" r="5" fill="#2f6db5"/>
<text x="243.20000000000002" y="96" font-family="Georgia, 'Times New Roman', serif" font-size="13.5" fill="#4a566a">45-town peer group — small districts, no high school</text>
<circle cx="626.0" cy="92" r="5" fill="#7a8699"/>
<text x="637.0" y="96" font-family="Georgia, 'Times New Roman', serif" font-size="13.5" fill="#4a566a">Other town district</text>
<line x1="72.0" y1="457.0" x2="966.0" y2="457.0" stroke="#dde4ee" stroke-width="1" stroke-opacity="1" stroke-linecap="butt"/>
<text x="62.0" y="462.0" font-family="Georgia, 'Times New Roman', serif" font-size="13" fill="#7a8699" text-anchor="end" font-weight="normal" font-style="normal">50</text>
<line x1="72.0" y1="376.5" x2="966.0" y2="376.5" stroke="#dde4ee" stroke-width="1" stroke-opacity="1" stroke-linecap="butt"/>
<text x="62.0" y="381.5" font-family="Georgia, 'Times New Roman', serif" font-size="13" fill="#7a8699" text-anchor="end" font-weight="normal" font-style="normal">60</text>
<line x1="72.0" y1="295.9" x2="966.0" y2="295.9" stroke="#dde4ee" stroke-width="1" stroke-opacity="1" stroke-linecap="butt"/>
<text x="62.0" y="300.9" font-family="Georgia, 'Times New Roman', serif" font-size="13" fill="#7a8699" text-anchor="end" font-weight="normal" font-style="normal">70</text>
<line x1="72.0" y1="215.3" x2="966.0" y2="215.3" stroke="#dde4ee" stroke-width="1" stroke-opacity="1" stroke-linecap="butt"/>
<text x="62.0" y="220.3" font-family="Georgia, 'Times New Roman', serif" font-size="13" fill="#7a8699" text-anchor="end" font-weight="normal" font-style="normal">80</text>
<text x="152.1" y="550.0" font-family="Georgia, 'Times New Roman', serif" font-size="13" fill="#7a8699" text-anchor="middle" font-weight="normal" font-style="normal">20%</text>
<text x="364.1" y="550.0" font-family="Georgia, 'Times New Roman', serif" font-size="13" fill="#7a8699" text-anchor="middle" font-weight="normal" font-style="normal">40%</text>
<text x="576.1" y="550.0" font-family="Georgia, 'Times New Roman', serif" font-size="13" fill="#7a8699" text-anchor="middle" font-weight="normal" font-style="normal">60%</text>
<text x="788.1" y="550.0" font-family="Georgia, 'Times New Roman', serif" font-size="13" fill="#7a8699" text-anchor="middle" font-weight="normal" font-style="normal">80%</text>
<line x1="72.0" y1="528.0" x2="966.0" y2="528.0" stroke="#c2ccda" stroke-width="1" stroke-opacity="1" stroke-linecap="butt"/>
<text x="519.0" y="574.0" font-family="Georgia, 'Times New Roman', serif" font-size="14" fill="#4a566a" text-anchor="middle" font-weight="normal" font-style="normal">High-needs share of students</text>
<text x="22" y="333.0" font-family="Georgia, 'Times New Roman', serif" font-size="14" fill="#4a566a" text-anchor="middle" transform="rotate(-90 22 333.0)">Performance index</text>
<line x1="346.3" y1="134.0" x2="346.3" y2="528.0" stroke="#9a7400" stroke-width="2.5" stroke-opacity="0.85" stroke-linecap="round"/>
<text x="346.3" y="127.0" font-family="Georgia, 'Times New Roman', serif" font-size="14" fill="#9a7400" text-anchor="middle" font-weight="bold" font-style="normal">Andover 38%</text>
<line x1="527.8" y1="134.0" x2="527.8" y2="528.0" stroke="#143862" stroke-width="2.5" stroke-opacity="0.85" stroke-linecap="round"/>
<text x="527.8" y="127.0" font-family="Georgia, 'Times New Roman', serif" font-size="14" fill="#143862" text-anchor="middle" font-weight="bold" font-style="normal">Connecticut 55%</text>
<line x1="72.0" y1="201.7" x2="966.0" y2="495.5" stroke="#4a566a" stroke-width="2" stroke-opacity="0.6" stroke-linecap="round"/>
<line x1="857.2" y1="158.0" x2="857.2" y2="453.7" stroke="#4a566a" stroke-width="1" stroke-opacity="0.45" stroke-linecap="butt"/>
<text x="966.0" y="152.0" font-family="Georgia, 'Times New Roman', serif" font-size="13.5" fill="#4a566a" text-anchor="end" font-weight="normal" font-style="normal">r = −0.873   r² = 0.76   n = 165</text>
<circle cx="714.3" cy="456.5" r="4.5" fill="#7a8699" fill-opacity="0.5"/>
<circle cx="198.9" cy="247.9" r="4.5" fill="#7a8699" fill-opacity="0.5"/>
<circle cx="340.6" cy="297.9" r="4.5" fill="#7a8699" fill-opacity="0.5"/>
<circle cx="425.7" cy="299.6" r="4.5" fill="#7a8699" fill-opacity="0.5"/>
<circle cx="606.9" cy="432.8" r="4.5" fill="#7a8699" fill-opacity="0.5"/>
<circle cx="243.4" cy="287.4" r="4.5" fill="#7a8699" fill-opacity="0.5"/>
<circle cx="461.1" cy="327.0" r="4.5" fill="#7a8699" fill-opacity="0.5"/>
<circle cx="923.0" cy="480.6" r="4.5" fill="#7a8699" fill-opacity="0.5"/>
<circle cx="596.5" cy="364.9" r="4.5" fill="#7a8699" fill-opacity="0.5"/>
<circle cx="304.4" cy="307.0" r="4.5" fill="#7a8699" fill-opacity="0.5"/>
<circle cx="293.0" cy="285.2" r="4.5" fill="#7a8699" fill-opacity="0.5"/>
<circle cx="256.6" cy="232.6" r="4.5" fill="#7a8699" fill-opacity="0.5"/>
<circle cx="475.3" cy="325.8" r="4.5" fill="#7a8699" fill-opacity="0.5"/>
<circle cx="321.3" cy="299.1" r="4.5" fill="#7a8699" fill-opacity="0.5"/>
<circle cx="308.3" cy="269.7" r="4.5" fill="#7a8699" fill-opacity="0.5"/>
<circle cx="347.7" cy="312.7" r="4.5" fill="#7a8699" fill-opacity="0.5"/>
<circle cx="738.1" cy="416.0" r="4.5" fill="#7a8699" fill-opacity="0.5"/>
<circle cx="180.1" cy="204.9" r="4.5" fill="#7a8699" fill-opacity="0.5"/>
<circle cx="651.2" cy="430.3" r="4.5" fill="#7a8699" fill-opacity="0.5"/>
<circle cx="270.1" cy="273.0" r="4.5" fill="#7a8699" fill-opacity="0.5"/>
<circle cx="291.2" cy="333.7" r="4.5" fill="#7a8699" fill-opacity="0.5"/>
<circle cx="326.8" cy="306.7" r="4.5" fill="#7a8699" fill-opacity="0.5"/>
<circle cx="760.1" cy="403.3" r="4.5" fill="#7a8699" fill-opacity="0.5"/>
<circle cx="698.8" cy="396.2" r="4.5" fill="#7a8699" fill-opacity="0.5"/>
<circle cx="378.7" cy="279.3" r="4.5" fill="#7a8699" fill-opacity="0.5"/>
<circle cx="666.5" cy="351.0" r="4.5" fill="#7a8699" fill-opacity="0.5"/>
<circle cx="275.1" cy="265.9" r="4.5" fill="#7a8699" fill-opacity="0.5"/>
<circle cx="546.9" cy="375.9" r="4.5" fill="#7a8699" fill-opacity="0.5"/>
<circle cx="277.0" cy="258.2" r="4.5" fill="#7a8699" fill-opacity="0.5"/>
<circle cx="290.3" cy="231.2" r="4.5" fill="#7a8699" fill-opacity="0.5"/>
<circle cx="226.5" cy="249.4" r="4.5" fill="#7a8699" fill-opacity="0.5"/>
<circle cx="283.2" cy="280.7" r="4.5" fill="#7a8699" fill-opacity="0.5"/>
<circle cx="294.2" cy="210.3" r="4.5" fill="#7a8699" fill-opacity="0.5"/>
<circle cx="566.3" cy="381.0" r="4.5" fill="#7a8699" fill-opacity="0.5"/>
<circle cx="543.0" cy="363.2" r="4.5" fill="#7a8699" fill-opacity="0.5"/>
<circle cx="231.4" cy="248.3" r="4.5" fill="#7a8699" fill-opacity="0.5"/>
<circle cx="517.9" cy="400.5" r="4.5" fill="#7a8699" fill-opacity="0.5"/>
<circle cx="879.3" cy="486.0" r="4.5" fill="#7a8699" fill-opacity="0.5"/>
<circle cx="569.4" cy="392.5" r="4.5" fill="#7a8699" fill-opacity="0.5"/>
<circle cx="377.5" cy="304.3" r="4.5" fill="#7a8699" fill-opacity="0.5"/>
<circle cx="361.7" cy="339.4" r="4.5" fill="#7a8699" fill-opacity="0.5"/>
<circle cx="166.4" cy="219.4" r="4.5" fill="#7a8699" fill-opacity="0.5"/>
<circle cx="667.2" cy="424.2" r="4.5" fill="#7a8699" fill-opacity="0.5"/>
<circle cx="839.3" cy="375.7" r="4.5" fill="#7a8699" fill-opacity="0.5"/>
<circle cx="559.5" cy="408.8" r="4.5" fill="#7a8699" fill-opacity="0.5"/>
<circle cx="412.1" cy="314.4" r="4.5" fill="#7a8699" fill-opacity="0.5"/>
<circle cx="257.9" cy="272.1" r="4.5" fill="#7a8699" fill-opacity="0.5"/>
<circle cx="503.9" cy="351.4" r="4.5" fill="#7a8699" fill-opacity="0.5"/>
<circle cx="651.8" cy="403.4" r="4.5" fill="#7a8699" fill-opacity="0.5"/>
<circle cx="858.5" cy="503.8" r="4.5" fill="#7a8699" fill-opacity="0.5"/>
<circle cx="130.5" cy="174.5" r="4.5" fill="#7a8699" fill-opacity="0.5"/>
<circle cx="308.7" cy="276.9" r="4.5" fill="#7a8699" fill-opacity="0.5"/>
<circle cx="853.7" cy="474.4" r="4.5" fill="#7a8699" fill-opacity="0.5"/>
<circle cx="882.7" cy="486.6" r="4.5" fill="#7a8699" fill-opacity="0.5"/>
<circle cx="460.3" cy="370.0" r="4.5" fill="#7a8699" fill-opacity="0.5"/>
<circle cx="462.1" cy="334.7" r="4.5" fill="#7a8699" fill-opacity="0.5"/>
<circle cx="228.9" cy="265.5" r="4.5" fill="#7a8699" fill-opacity="0.5"/>
<circle cx="285.6" cy="312.6" r="4.5" fill="#7a8699" fill-opacity="0.5"/>
<circle cx="317.7" cy="276.8" r="4.5" fill="#7a8699" fill-opacity="0.5"/>
<circle cx="236.9" cy="277.0" r="4.5" fill="#7a8699" fill-opacity="0.5"/>
<circle cx="649.3" cy="377.7" r="4.5" fill="#7a8699" fill-opacity="0.5"/>
<circle cx="858.5" cy="447.5" r="4.5" fill="#7a8699" fill-opacity="0.5"/>
<circle cx="369.0" cy="285.5" r="4.5" fill="#7a8699" fill-opacity="0.5"/>
<circle cx="256.6" cy="289.4" r="4.5" fill="#7a8699" fill-opacity="0.5"/>
<circle cx="589.5" cy="381.3" r="4.5" fill="#7a8699" fill-opacity="0.5"/>
<circle cx="489.9" cy="334.7" r="4.5" fill="#7a8699" fill-opacity="0.5"/>
<circle cx="520.4" cy="375.6" r="4.5" fill="#7a8699" fill-opacity="0.5"/>
<circle cx="387.6" cy="301.4" r="4.5" fill="#7a8699" fill-opacity="0.5"/>
<circle cx="612.4" cy="403.0" r="4.5" fill="#7a8699" fill-opacity="0.5"/>
<circle cx="280.8" cy="384.3" r="4.5" fill="#7a8699" fill-opacity="0.5"/>
<circle cx="295.9" cy="339.7" r="4.5" fill="#7a8699" fill-opacity="0.5"/>
<circle cx="237.7" cy="263.0" r="4.5" fill="#7a8699" fill-opacity="0.5"/>
<circle cx="361.0" cy="336.0" r="4.5" fill="#7a8699" fill-opacity="0.5"/>
<circle cx="228.5" cy="320.9" r="4.5" fill="#7a8699" fill-opacity="0.5"/>
<circle cx="314.6" cy="291.3" r="4.5" fill="#7a8699" fill-opacity="0.5"/>
<circle cx="286.8" cy="288.8" r="4.5" fill="#7a8699" fill-opacity="0.5"/>
<circle cx="513.8" cy="406.7" r="4.5" fill="#7a8699" fill-opacity="0.5"/>
<circle cx="279.7" cy="265.6" r="4.5" fill="#7a8699" fill-opacity="0.5"/>
<circle cx="274.4" cy="307.1" r="4.5" fill="#7a8699" fill-opacity="0.5"/>
<circle cx="317.5" cy="306.5" r="4.5" fill="#7a8699" fill-opacity="0.5"/>
<circle cx="241.1" cy="302.5" r="4.5" fill="#7a8699" fill-opacity="0.5"/>
<circle cx="338.3" cy="282.6" r="4.5" fill="#7a8699" fill-opacity="0.5"/>
<circle cx="231.6" cy="270.4" r="4.5" fill="#7a8699" fill-opacity="0.5"/>
<circle cx="242.5" cy="229.6" r="4.5" fill="#7a8699" fill-opacity="0.5"/>
<circle cx="382.2" cy="361.0" r="4.5" fill="#7a8699" fill-opacity="0.5"/>
<circle cx="361.8" cy="303.0" r="4.5" fill="#7a8699" fill-opacity="0.5"/>
<circle cx="210.8" cy="223.0" r="4.5" fill="#7a8699" fill-opacity="0.5"/>
<circle cx="353.2" cy="258.1" r="4.5" fill="#7a8699" fill-opacity="0.5"/>
<circle cx="534.4" cy="344.5" r="4.5" fill="#7a8699" fill-opacity="0.5"/>
<circle cx="470.8" cy="325.0" r="4.5" fill="#7a8699" fill-opacity="0.5"/>
<circle cx="267.0" cy="235.7" r="4.5" fill="#7a8699" fill-opacity="0.5"/>
<circle cx="184.1" cy="316.0" r="4.5" fill="#7a8699" fill-opacity="0.5"/>
<circle cx="297.5" cy="253.5" r="4.5" fill="#7a8699" fill-opacity="0.5"/>
<circle cx="340.6" cy="283.6" r="4.5" fill="#7a8699" fill-opacity="0.5"/>
<circle cx="446.0" cy="351.5" r="4.5" fill="#7a8699" fill-opacity="0.5"/>
<circle cx="646.3" cy="401.9" r="4.5" fill="#7a8699" fill-opacity="0.5"/>
<circle cx="332.4" cy="267.2" r="4.5" fill="#7a8699" fill-opacity="0.5"/>
<circle cx="616.8" cy="413.2" r="4.5" fill="#7a8699" fill-opacity="0.5"/>
<circle cx="287.0" cy="281.6" r="4.5" fill="#7a8699" fill-opacity="0.5"/>
<circle cx="458.5" cy="351.5" r="4.5" fill="#7a8699" fill-opacity="0.5"/>
<circle cx="515.9" cy="347.6" r="4.5" fill="#7a8699" fill-opacity="0.5"/>
<circle cx="239.2" cy="280.4" r="4.5" fill="#7a8699" fill-opacity="0.5"/>
<circle cx="731.6" cy="394.4" r="4.5" fill="#7a8699" fill-opacity="0.5"/>
<circle cx="298.9" cy="243.5" r="4.5" fill="#7a8699" fill-opacity="0.5"/>
<circle cx="605.9" cy="347.4" r="4.5" fill="#7a8699" fill-opacity="0.5"/>
<circle cx="425.7" cy="340.7" r="4.5" fill="#7a8699" fill-opacity="0.5"/>
<circle cx="879.8" cy="461.4" r="4.5" fill="#7a8699" fill-opacity="0.5"/>
<circle cx="409.6" cy="309.2" r="4.5" fill="#7a8699" fill-opacity="0.5"/>
<circle cx="479.7" cy="359.2" r="4.5" fill="#7a8699" fill-opacity="0.5"/>
<circle cx="377.2" cy="277.3" r="4.5" fill="#7a8699" fill-opacity="0.5"/>
<circle cx="715.3" cy="378.3" r="4.5" fill="#7a8699" fill-opacity="0.5"/>
<circle cx="464.4" cy="283.5" r="4.5" fill="#7a8699" fill-opacity="0.5"/>
<circle cx="116.9" cy="203.4" r="4.5" fill="#7a8699" fill-opacity="0.5"/>
<circle cx="134.2" cy="212.5" r="4.5" fill="#7a8699" fill-opacity="0.5"/>
<circle cx="389.9" cy="322.8" r="4.5" fill="#7a8699" fill-opacity="0.5"/>
<circle cx="195.7" cy="206.4" r="4.5" fill="#7a8699" fill-opacity="0.5"/>
<circle cx="811.7" cy="426.1" r="4.5" fill="#7a8699" fill-opacity="0.5"/>
<circle cx="592.4" cy="384.6" r="4.5" fill="#7a8699" fill-opacity="0.5"/>
<circle cx="541.9" cy="380.3" r="4.5" fill="#7a8699" fill-opacity="0.5"/>
<circle cx="408.4" cy="306.8" r="4.5" fill="#7a8699" fill-opacity="0.5"/>
<circle cx="440.7" cy="309.1" r="5.4" fill="#2f6db5" fill-opacity="0.95"/>
<circle cx="443.6" cy="308.7" r="5.4" fill="#2f6db5" fill-opacity="0.95"/>
<circle cx="304.6" cy="227.2" r="5.4" fill="#2f6db5" fill-opacity="0.95"/>
<circle cx="470.1" cy="276.1" r="5.4" fill="#2f6db5" fill-opacity="0.95"/>
<circle cx="425.7" cy="321.8" r="5.4" fill="#2f6db5" fill-opacity="0.95"/>
<circle cx="493.2" cy="274.1" r="5.4" fill="#2f6db5" fill-opacity="0.95"/>
<circle cx="370.4" cy="317.7" r="5.4" fill="#2f6db5" fill-opacity="0.95"/>
<circle cx="497.3" cy="343.5" r="5.4" fill="#2f6db5" fill-opacity="0.95"/>
<circle cx="305.6" cy="235.0" r="5.4" fill="#2f6db5" fill-opacity="0.95"/>
<circle cx="369.8" cy="229.8" r="5.4" fill="#2f6db5" fill-opacity="0.95"/>
<circle cx="306.4" cy="317.4" r="5.4" fill="#2f6db5" fill-opacity="0.95"/>
<circle cx="388.6" cy="235.8" r="5.4" fill="#2f6db5" fill-opacity="0.95"/>
<circle cx="426.4" cy="263.0" r="5.4" fill="#2f6db5" fill-opacity="0.95"/>
<circle cx="383.6" cy="248.2" r="5.4" fill="#2f6db5" fill-opacity="0.95"/>
<circle cx="228.9" cy="225.1" r="5.4" fill="#2f6db5" fill-opacity="0.95"/>
<circle cx="343.9" cy="254.9" r="5.4" fill="#2f6db5" fill-opacity="0.95"/>
<circle cx="238.6" cy="296.6" r="5.4" fill="#2f6db5" fill-opacity="0.95"/>
<circle cx="524.9" cy="320.5" r="5.4" fill="#2f6db5" fill-opacity="0.95"/>
<circle cx="284.6" cy="263.9" r="5.4" fill="#2f6db5" fill-opacity="0.95"/>
<circle cx="240.9" cy="253.4" r="5.4" fill="#2f6db5" fill-opacity="0.95"/>
<circle cx="353.5" cy="237.7" r="5.4" fill="#2f6db5" fill-opacity="0.95"/>
<circle cx="470.1" cy="328.2" r="5.4" fill="#2f6db5" fill-opacity="0.95"/>
<circle cx="363.8" cy="253.7" r="5.4" fill="#2f6db5" fill-opacity="0.95"/>
<circle cx="231.9" cy="246.7" r="5.4" fill="#2f6db5" fill-opacity="0.95"/>
<circle cx="337.1" cy="284.7" r="5.4" fill="#2f6db5" fill-opacity="0.95"/>
<circle cx="364.1" cy="310.4" r="5.4" fill="#2f6db5" fill-opacity="0.95"/>
<circle cx="488.9" cy="287.0" r="5.4" fill="#2f6db5" fill-opacity="0.95"/>
<circle cx="263.0" cy="236.1" r="5.4" fill="#2f6db5" fill-opacity="0.95"/>
<circle cx="351.2" cy="281.3" r="5.4" fill="#2f6db5" fill-opacity="0.95"/>
<circle cx="367.4" cy="312.4" r="5.4" fill="#2f6db5" fill-opacity="0.95"/>
<circle cx="255.0" cy="222.5" r="5.4" fill="#2f6db5" fill-opacity="0.95"/>
<circle cx="303.4" cy="324.8" r="5.4" fill="#2f6db5" fill-opacity="0.95"/>
<circle cx="277.7" cy="229.5" r="5.4" fill="#2f6db5" fill-opacity="0.95"/>
<circle cx="566.5" cy="352.7" r="5.4" fill="#2f6db5" fill-opacity="0.95"/>
<circle cx="529.0" cy="313.6" r="5.4" fill="#2f6db5" fill-opacity="0.95"/>
<circle cx="103.8" cy="237.0" r="5.4" fill="#2f6db5" fill-opacity="0.95"/>
<circle cx="577.5" cy="418.4" r="5.4" fill="#2f6db5" fill-opacity="0.95"/>
<circle cx="501.6" cy="382.0" r="5.4" fill="#2f6db5" fill-opacity="0.95"/>
<circle cx="545.8" cy="325.7" r="5.4" fill="#2f6db5" fill-opacity="0.95"/>
<circle cx="479.0" cy="330.9" r="5.4" fill="#2f6db5" fill-opacity="0.95"/>
<circle cx="472.4" cy="323.7" r="5.4" fill="#2f6db5" fill-opacity="0.95"/>
<circle cx="651.3" cy="346.5" r="5.4" fill="#2f6db5" fill-opacity="0.95"/>
<circle cx="255.5" cy="193.0" r="5.4" fill="#2f6db5" fill-opacity="0.95"/>
<circle cx="321.4" cy="332.7" r="5.4" fill="#2f6db5" fill-opacity="0.95"/>
<circle cx="346.3" cy="284.0" r="8.5" fill="#9a7400" fill-opacity="1" stroke="#f4f6f9" stroke-width="2.5"/>
<rect x="520.8" y="346.5" width="14" height="14" fill="#143862" stroke="#f4f6f9" stroke-width="2.5" transform="rotate(45 527.8 353.5)"/>
<text x="34" y="606" font-family="Georgia, 'Times New Roman', serif" font-size="12" font-style="italic" fill="#7a8699">Source: CT EdSight, Performance Index (subgroup counts). Chart: andoverct.info</text>
</svg>