<svg xmlns="http://www.w3.org/2000/svg" viewBox="0 0 1000 410" width="1000" height="410" role="img">
<rect width="1000" height="410" fill="#f4f6f9"/>
<rect x="0" y="0" width="1000" height="4" fill="#e8a800"/>
<text x="34" y="46" font-family="Georgia, 'Times New Roman', serif" font-size="25" font-weight="bold" fill="#143862">Performance index, 2025-26</text>
<text x="34" y="72" font-family="Georgia, 'Times New Roman', serif" font-size="15.5" font-style="italic" fill="#4a566a">Every Connecticut town district. Same scale in both years.</text>
<rect x="34" y="87" width="3.5" height="12" fill="#9a7400"/>
<text x="49" y="96" font-family="Georgia, 'Times New Roman', serif" font-size="13.5" fill="#4a566a">Andover</text>
<rect x="117.30000000000001" y="87" width="3.5" height="12" fill="#143862"/>
<text x="132.3" y="96" font-family="Georgia, 'Times New Roman', serif" font-size="13.5" fill="#4a566a">Connecticut</text>
<circle cx="232.20000000000002" cy="92" r="5" fill="#2f6db5"/>
<text x="243.20000000000002" y="96" font-family="Georgia, 'Times New Roman', serif" font-size="13.5" fill="#4a566a">45-town peer group — small districts, no high school</text>
<circle cx="626.0" cy="92" r="5" fill="#7a8699"/>
<text x="637.0" y="96" font-family="Georgia, 'Times New Roman', serif" font-size="13.5" fill="#4a566a">Other town district</text>
<line x1="205.1" y1="130.0" x2="205.1" y2="280.0" stroke="#dde4ee" stroke-width="1" stroke-opacity="1" stroke-linecap="butt"/>
<text x="205.1" y="301.0" font-family="Georgia, 'Times New Roman', serif" font-size="13" fill="#7a8699" text-anchor="middle" font-weight="normal" font-style="normal">50</text>
<line x1="407.1" y1="130.0" x2="407.1" y2="280.0" stroke="#dde4ee" stroke-width="1" stroke-opacity="1" stroke-linecap="butt"/>
<text x="407.1" y="301.0" font-family="Georgia, 'Times New Roman', serif" font-size="13" fill="#7a8699" text-anchor="middle" font-weight="normal" font-style="normal">60</text>
<line x1="609.2" y1="130.0" x2="609.2" y2="280.0" stroke="#dde4ee" stroke-width="1" stroke-opacity="1" stroke-linecap="butt"/>
<text x="609.2" y="301.0" font-family="Georgia, 'Times New Roman', serif" font-size="13" fill="#7a8699" text-anchor="middle" font-weight="normal" font-style="normal">70</text>
<line x1="811.2" y1="130.0" x2="811.2" y2="280.0" stroke="#dde4ee" stroke-width="1" stroke-opacity="1" stroke-linecap="butt"/>
<text x="811.2" y="301.0" font-family="Georgia, 'Times New Roman', serif" font-size="13" fill="#7a8699" text-anchor="middle" font-weight="normal" font-style="normal">80</text>
<line x1="46.0" y1="280.0" x2="966.0" y2="280.0" stroke="#c2ccda" stroke-width="1" stroke-opacity="1" stroke-linecap="butt"/>
<line x1="474.0" y1="126.0" x2="474.0" y2="280.0" stroke="#143862" stroke-width="2.5" stroke-opacity="1" stroke-linecap="round"/>
<text x="474.0" y="118.0" font-family="Georgia, 'Times New Roman', serif" font-size="14" fill="#143862" text-anchor="middle" font-weight="bold" font-style="normal">Connecticut 63.3</text>
<line x1="749.3" y1="126.0" x2="749.3" y2="280.0" stroke="#9a7400" stroke-width="2.5" stroke-opacity="1" stroke-linecap="round"/>
<text x="749.3" y="118.0" font-family="Georgia, 'Times New Roman', serif" font-size="14" fill="#9a7400" text-anchor="middle" font-weight="bold" font-style="normal">Andover 76.9</text>
<circle cx="217.8" cy="267.0" r="4.4" fill="#7a8699" fill-opacity="0.5"/>
<circle cx="764.2" cy="267.0" r="4.4" fill="#7a8699" fill-opacity="0.5"/>
<circle cx="613.8" cy="267.0" r="4.4" fill="#7a8699" fill-opacity="0.5"/>
<circle cx="609.4" cy="254.0" r="4.4" fill="#7a8699" fill-opacity="0.5"/>
<circle cx="260.9" cy="267.0" r="4.4" fill="#7a8699" fill-opacity="0.5"/>
<circle cx="638.2" cy="267.0" r="4.4" fill="#7a8699" fill-opacity="0.5"/>
<circle cx="559.8" cy="267.0" r="4.4" fill="#7a8699" fill-opacity="0.5"/>
<circle cx="149.1" cy="267.0" r="4.4" fill="#7a8699" fill-opacity="0.5"/>
<circle cx="435.6" cy="267.0" r="4.4" fill="#7a8699" fill-opacity="0.5"/>
<circle cx="606.2" cy="241.0" r="4.4" fill="#7a8699" fill-opacity="0.5"/>
<circle cx="649.1" cy="267.0" r="4.4" fill="#7a8699" fill-opacity="0.5"/>
<circle cx="759.7" cy="254.0" r="4.4" fill="#7a8699" fill-opacity="0.5"/>
<circle cx="526.9" cy="267.0" r="4.4" fill="#7a8699" fill-opacity="0.5"/>
<circle cx="589.6" cy="267.0" r="4.4" fill="#7a8699" fill-opacity="0.5"/>
<circle cx="692.7" cy="267.0" r="4.4" fill="#7a8699" fill-opacity="0.5"/>
<circle cx="582.9" cy="254.0" r="4.4" fill="#7a8699" fill-opacity="0.5"/>
<circle cx="322.8" cy="267.0" r="4.4" fill="#7a8699" fill-opacity="0.5"/>
<circle cx="834.5" cy="267.0" r="4.4" fill="#7a8699" fill-opacity="0.5"/>
<circle cx="282.5" cy="267.0" r="4.4" fill="#7a8699" fill-opacity="0.5"/>
<circle cx="660.5" cy="267.0" r="4.4" fill="#7a8699" fill-opacity="0.5"/>
<circle cx="497.1" cy="267.0" r="4.4" fill="#7a8699" fill-opacity="0.5"/>
<circle cx="596.3" cy="254.0" r="4.4" fill="#7a8699" fill-opacity="0.5"/>
<circle cx="354.7" cy="267.0" r="4.4" fill="#7a8699" fill-opacity="0.5"/>
<circle cx="347.3" cy="254.0" r="4.4" fill="#7a8699" fill-opacity="0.5"/>
<circle cx="665.3" cy="254.0" r="4.4" fill="#7a8699" fill-opacity="0.5"/>
<circle cx="451.7" cy="267.0" r="4.4" fill="#7a8699" fill-opacity="0.5"/>
<circle cx="663.9" cy="241.0" r="4.4" fill="#7a8699" fill-opacity="0.5"/>
<circle cx="417.1" cy="267.0" r="4.4" fill="#7a8699" fill-opacity="0.5"/>
<circle cx="722.0" cy="267.0" r="4.4" fill="#7a8699" fill-opacity="0.5"/>
<circle cx="765.2" cy="241.0" r="4.4" fill="#7a8699" fill-opacity="0.5"/>
<circle cx="756.5" cy="228.0" r="4.4" fill="#7a8699" fill-opacity="0.5"/>
<circle cx="599.3" cy="267.0" r="4.4" fill="#7a8699" fill-opacity="0.5"/>
<circle cx="834.3" cy="254.0" r="4.4" fill="#7a8699" fill-opacity="0.5"/>
<circle cx="427.0" cy="254.0" r="4.4" fill="#7a8699" fill-opacity="0.5"/>
<circle cx="471.9" cy="267.0" r="4.4" fill="#7a8699" fill-opacity="0.5"/>
<circle cx="706.5" cy="267.0" r="4.4" fill="#7a8699" fill-opacity="0.5"/>
<circle cx="335.7" cy="267.0" r="4.4" fill="#7a8699" fill-opacity="0.5"/>
<circle cx="141.9" cy="254.0" r="4.4" fill="#7a8699" fill-opacity="0.5"/>
<circle cx="373.1" cy="267.0" r="4.4" fill="#7a8699" fill-opacity="0.5"/>
<circle cx="549.7" cy="267.0" r="4.4" fill="#7a8699" fill-opacity="0.5"/>
<circle cx="480.9" cy="267.0" r="4.4" fill="#7a8699" fill-opacity="0.5"/>
<circle cx="814.6" cy="267.0" r="4.4" fill="#7a8699" fill-opacity="0.5"/>
<circle cx="307.7" cy="267.0" r="4.4" fill="#7a8699" fill-opacity="0.5"/>
<circle cx="428.1" cy="241.0" r="4.4" fill="#7a8699" fill-opacity="0.5"/>
<circle cx="298.7" cy="267.0" r="4.4" fill="#7a8699" fill-opacity="0.5"/>
<circle cx="591.0" cy="241.0" r="4.4" fill="#7a8699" fill-opacity="0.5"/>
<circle cx="669.2" cy="228.0" r="4.4" fill="#7a8699" fill-opacity="0.5"/>
<circle cx="483.2" cy="254.0" r="4.4" fill="#7a8699" fill-opacity="0.5"/>
<circle cx="379.0" cy="254.0" r="4.4" fill="#7a8699" fill-opacity="0.5"/>
<circle cx="142.2" cy="241.0" r="4.4" fill="#7a8699" fill-opacity="0.5"/>
<circle cx="924.2" cy="267.0" r="4.4" fill="#7a8699" fill-opacity="0.5"/>
<circle cx="622.2" cy="254.0" r="4.4" fill="#7a8699" fill-opacity="0.5"/>
<circle cx="184.6" cy="267.0" r="4.4" fill="#7a8699" fill-opacity="0.5"/>
<circle cx="135.7" cy="267.0" r="4.4" fill="#7a8699" fill-opacity="0.5"/>
<circle cx="410.5" cy="254.0" r="4.4" fill="#7a8699" fill-opacity="0.5"/>
<circle cx="507.0" cy="267.0" r="4.4" fill="#7a8699" fill-opacity="0.5"/>
<circle cx="696.7" cy="254.0" r="4.4" fill="#7a8699" fill-opacity="0.5"/>
<circle cx="567.2" cy="254.0" r="4.4" fill="#7a8699" fill-opacity="0.5"/>
<circle cx="658.7" cy="228.0" r="4.4" fill="#7a8699" fill-opacity="0.5"/>
<circle cx="655.1" cy="254.0" r="4.4" fill="#7a8699" fill-opacity="0.5"/>
<circle cx="413.5" cy="241.0" r="4.4" fill="#7a8699" fill-opacity="0.5"/>
<circle cx="222.2" cy="254.0" r="4.4" fill="#7a8699" fill-opacity="0.5"/>
<circle cx="608.6" cy="228.0" r="4.4" fill="#7a8699" fill-opacity="0.5"/>
<circle cx="650.5" cy="241.0" r="4.4" fill="#7a8699" fill-opacity="0.5"/>
<circle cx="391.8" cy="267.0" r="4.4" fill="#7a8699" fill-opacity="0.5"/>
<circle cx="508.6" cy="254.0" r="4.4" fill="#7a8699" fill-opacity="0.5"/>
<circle cx="362.7" cy="254.0" r="4.4" fill="#7a8699" fill-opacity="0.5"/>
<circle cx="614.7" cy="215.0" r="4.4" fill="#7a8699" fill-opacity="0.5"/>
<circle cx="352.0" cy="241.0" r="4.4" fill="#7a8699" fill-opacity="0.5"/>
<circle cx="410.1" cy="228.0" r="4.4" fill="#7a8699" fill-opacity="0.5"/>
<circle cx="463.7" cy="254.0" r="4.4" fill="#7a8699" fill-opacity="0.5"/>
<circle cx="705.4" cy="241.0" r="4.4" fill="#7a8699" fill-opacity="0.5"/>
<circle cx="568.9" cy="267.0" r="4.4" fill="#7a8699" fill-opacity="0.5"/>
<circle cx="496.5" cy="254.0" r="4.4" fill="#7a8699" fill-opacity="0.5"/>
<circle cx="721.9" cy="254.0" r="4.4" fill="#7a8699" fill-opacity="0.5"/>
<circle cx="656.7" cy="215.0" r="4.4" fill="#7a8699" fill-opacity="0.5"/>
<circle cx="341.4" cy="241.0" r="4.4" fill="#7a8699" fill-opacity="0.5"/>
<circle cx="681.0" cy="267.0" r="4.4" fill="#7a8699" fill-opacity="0.5"/>
<circle cx="573.2" cy="241.0" r="4.4" fill="#7a8699" fill-opacity="0.5"/>
<circle cx="628.7" cy="267.0" r="4.4" fill="#7a8699" fill-opacity="0.5"/>
<circle cx="631.2" cy="241.0" r="4.4" fill="#7a8699" fill-opacity="0.5"/>
<circle cx="677.3" cy="254.0" r="4.4" fill="#7a8699" fill-opacity="0.5"/>
<circle cx="649.8" cy="202.0" r="4.4" fill="#7a8699" fill-opacity="0.5"/>
<circle cx="745.4" cy="267.0" r="4.4" fill="#7a8699" fill-opacity="0.5"/>
<circle cx="450.9" cy="254.0" r="4.4" fill="#7a8699" fill-opacity="0.5"/>
<circle cx="576.6" cy="228.0" r="4.4" fill="#7a8699" fill-opacity="0.5"/>
<circle cx="816.7" cy="254.0" r="4.4" fill="#7a8699" fill-opacity="0.5"/>
<circle cx="694.7" cy="241.0" r="4.4" fill="#7a8699" fill-opacity="0.5"/>
<circle cx="509.2" cy="241.0" r="4.4" fill="#7a8699" fill-opacity="0.5"/>
<circle cx="556.3" cy="254.0" r="4.4" fill="#7a8699" fill-opacity="0.5"/>
<circle cx="777.2" cy="267.0" r="4.4" fill="#7a8699" fill-opacity="0.5"/>
<circle cx="644.4" cy="254.0" r="4.4" fill="#7a8699" fill-opacity="0.5"/>
<circle cx="720.4" cy="241.0" r="4.4" fill="#7a8699" fill-opacity="0.5"/>
<circle cx="658.0" cy="189.0" r="4.4" fill="#7a8699" fill-opacity="0.5"/>
<circle cx="462.1" cy="267.0" r="4.4" fill="#7a8699" fill-opacity="0.5"/>
<circle cx="344.8" cy="267.0" r="4.4" fill="#7a8699" fill-opacity="0.5"/>
<circle cx="679.8" cy="241.0" r="4.4" fill="#7a8699" fill-opacity="0.5"/>
<circle cx="314.2" cy="254.0" r="4.4" fill="#7a8699" fill-opacity="0.5"/>
<circle cx="610.9" cy="202.0" r="4.4" fill="#7a8699" fill-opacity="0.5"/>
<circle cx="395.8" cy="254.0" r="4.4" fill="#7a8699" fill-opacity="0.5"/>
<circle cx="442.9" cy="241.0" r="4.4" fill="#7a8699" fill-opacity="0.5"/>
<circle cx="677.5" cy="215.0" r="4.4" fill="#7a8699" fill-opacity="0.5"/>
<circle cx="380.6" cy="241.0" r="4.4" fill="#7a8699" fill-opacity="0.5"/>
<circle cx="737.9" cy="254.0" r="4.4" fill="#7a8699" fill-opacity="0.5"/>
<circle cx="516.3" cy="267.0" r="4.4" fill="#7a8699" fill-opacity="0.5"/>
<circle cx="515.5" cy="228.0" r="4.4" fill="#7a8699" fill-opacity="0.5"/>
<circle cx="199.5" cy="267.0" r="4.4" fill="#7a8699" fill-opacity="0.5"/>
<circle cx="600.3" cy="215.0" r="4.4" fill="#7a8699" fill-opacity="0.5"/>
<circle cx="446.5" cy="228.0" r="4.4" fill="#7a8699" fill-opacity="0.5"/>
<circle cx="668.8" cy="202.0" r="4.4" fill="#7a8699" fill-opacity="0.5"/>
<circle cx="396.4" cy="241.0" r="4.4" fill="#7a8699" fill-opacity="0.5"/>
<circle cx="672.5" cy="189.0" r="4.4" fill="#7a8699" fill-opacity="0.5"/>
<circle cx="855.3" cy="267.0" r="4.4" fill="#7a8699" fill-opacity="0.5"/>
<circle cx="818.1" cy="241.0" r="4.4" fill="#7a8699" fill-opacity="0.5"/>
<circle cx="545.0" cy="254.0" r="4.4" fill="#7a8699" fill-opacity="0.5"/>
<circle cx="824.6" cy="267.0" r="4.4" fill="#7a8699" fill-opacity="0.5"/>
<circle cx="259.6" cy="254.0" r="4.4" fill="#7a8699" fill-opacity="0.5"/>
<circle cx="366.0" cy="241.0" r="4.4" fill="#7a8699" fill-opacity="0.5"/>
<circle cx="431.6" cy="228.0" r="4.4" fill="#7a8699" fill-opacity="0.5"/>
<circle cx="572.3" cy="215.0" r="4.4" fill="#7a8699" fill-opacity="0.5"/>
<circle cx="555.0" cy="241.0" r="5" fill="#2f6db5" fill-opacity="0.95"/>
<circle cx="565.2" cy="228.0" r="5" fill="#2f6db5" fill-opacity="0.95"/>
<circle cx="760.2" cy="215.0" r="5" fill="#2f6db5" fill-opacity="0.95"/>
<circle cx="645.6" cy="228.0" r="5" fill="#2f6db5" fill-opacity="0.95"/>
<circle cx="545.9" cy="241.0" r="5" fill="#2f6db5" fill-opacity="0.95"/>
<circle cx="690.0" cy="228.0" r="5" fill="#2f6db5" fill-opacity="0.95"/>
<circle cx="569.0" cy="202.0" r="5" fill="#2f6db5" fill-opacity="0.95"/>
<circle cx="473.8" cy="254.0" r="5" fill="#2f6db5" fill-opacity="0.95"/>
<circle cx="751.1" cy="241.0" r="5" fill="#2f6db5" fill-opacity="0.95"/>
<circle cx="715.2" cy="228.0" r="5" fill="#2f6db5" fill-opacity="0.95"/>
<circle cx="591.8" cy="228.0" r="5" fill="#2f6db5" fill-opacity="0.95"/>
<circle cx="704.1" cy="228.0" r="5" fill="#2f6db5" fill-opacity="0.95"/>
<circle cx="720.7" cy="215.0" r="5" fill="#2f6db5" fill-opacity="0.95"/>
<circle cx="682.5" cy="202.0" r="5" fill="#2f6db5" fill-opacity="0.95"/>
<circle cx="807.2" cy="254.0" r="5" fill="#2f6db5" fill-opacity="0.95"/>
<circle cx="696.1" cy="215.0" r="5" fill="#2f6db5" fill-opacity="0.95"/>
<circle cx="653.3" cy="176.0" r="5" fill="#2f6db5" fill-opacity="0.95"/>
<circle cx="430.4" cy="215.0" r="5" fill="#2f6db5" fill-opacity="0.95"/>
<circle cx="718.7" cy="202.0" r="5" fill="#2f6db5" fill-opacity="0.95"/>
<circle cx="711.3" cy="254.0" r="5" fill="#2f6db5" fill-opacity="0.95"/>
<circle cx="691.3" cy="189.0" r="5" fill="#2f6db5" fill-opacity="0.95"/>
<circle cx="510.0" cy="215.0" r="5" fill="#2f6db5" fill-opacity="0.95"/>
<circle cx="703.2" cy="202.0" r="5" fill="#2f6db5" fill-opacity="0.95"/>
<circle cx="690.3" cy="176.0" r="5" fill="#2f6db5" fill-opacity="0.95"/>
<circle cx="661.2" cy="267.0" r="5" fill="#2f6db5" fill-opacity="0.95"/>
<circle cx="619.3" cy="241.0" r="5" fill="#2f6db5" fill-opacity="0.95"/>
<circle cx="596.8" cy="202.0" r="5" fill="#2f6db5" fill-opacity="0.95"/>
<circle cx="778.6" cy="254.0" r="5" fill="#2f6db5" fill-opacity="0.95"/>
<circle cx="697.7" cy="267.0" r="5" fill="#2f6db5" fill-opacity="0.95"/>
<circle cx="603.3" cy="189.0" r="5" fill="#2f6db5" fill-opacity="0.95"/>
<circle cx="818.1" cy="228.0" r="5" fill="#2f6db5" fill-opacity="0.95"/>
<circle cx="597.5" cy="176.0" r="5" fill="#2f6db5" fill-opacity="0.95"/>
<circle cx="788.7" cy="267.0" r="5" fill="#2f6db5" fill-opacity="0.95"/>
<circle cx="436.4" cy="254.0" r="5" fill="#2f6db5" fill-opacity="0.95"/>
<circle cx="628.4" cy="228.0" r="5" fill="#2f6db5" fill-opacity="0.95"/>
<circle cx="808.4" cy="241.0" r="5" fill="#2f6db5" fill-opacity="0.95"/>
<circle cx="327.4" cy="254.0" r="5" fill="#2f6db5" fill-opacity="0.95"/>
<circle cx="447.2" cy="215.0" r="5" fill="#2f6db5" fill-opacity="0.95"/>
<circle cx="464.3" cy="241.0" r="5" fill="#2f6db5" fill-opacity="0.95"/>
<circle cx="511.1" cy="202.0" r="5" fill="#2f6db5" fill-opacity="0.95"/>
<circle cx="441.3" cy="202.0" r="5" fill="#2f6db5" fill-opacity="0.95"/>
<circle cx="893.6" cy="267.0" r="5" fill="#2f6db5" fill-opacity="0.95"/>
<circle cx="612.3" cy="189.0" r="5" fill="#2f6db5" fill-opacity="0.95"/>
<circle cx="749.3" cy="254.0" r="8" fill="#9a7400" fill-opacity="1" stroke="#f4f6f9" stroke-width="2.5"/>
<text x="506.0" y="356.0" font-family="Georgia, 'Times New Roman', serif" font-size="14" fill="#4a566a" text-anchor="middle" font-weight="normal" font-style="normal">Performance index (0–100)</text>
<text x="34" y="396" font-family="Georgia, 'Times New Roman', serif" font-size="12" font-style="italic" fill="#7a8699">Source: CT EdSight, Performance Index. Chart: andoverct.info</text>
</svg>