<?xml version="1.0" encoding="utf-8" standalone="no"?>
<!DOCTYPE svg PUBLIC "-//W3C//DTD SVG 1.1//EN"
  "http://www.w3.org/Graphics/SVG/1.1/DTD/svg11.dtd">
<svg xmlns:xlink="http://www.w3.org/1999/xlink" width="784.670234pt" height="568.421953pt" viewBox="0 0 784.670234 568.421953" xmlns="http://www.w3.org/2000/svg" version="1.1">
 <metadata>
  <rdf:RDF xmlns:dc="http://purl.org/dc/elements/1.1/" xmlns:cc="http://creativecommons.org/ns#" xmlns:rdf="http://www.w3.org/1999/02/22-rdf-syntax-ns#">
   <cc:Work>
    <dc:type rdf:resource="http://purl.org/dc/dcmitype/StillImage"/>
    <dc:date>2026-06-11T04:17:11.063285</dc:date>
    <dc:format>image/svg+xml</dc:format>
    <dc:creator>
     <cc:Agent>
      <dc:title>Matplotlib v3.10.8, https://matplotlib.org/</dc:title>
     </cc:Agent>
    </dc:creator>
   </cc:Work>
  </rdf:RDF>
 </metadata>
 <defs>
  <style type="text/css">*{stroke-linejoin: round; stroke-linecap: butt}</style>
 </defs>
 <g id="figure_1">
  <g id="patch_1">
   <path d="M -0 568.421953 
L 784.670234 568.421953 
L 784.670234 0 
L -0 0 
z
" style="fill: #ffffff"/>
  </g>
  <g id="axes_1">
   <g id="patch_2">
    <path d="M 45.430234 515.897891 
L 777.470234 515.897891 
L 777.470234 31.457891 
L 45.430234 31.457891 
z
" style="fill: #ffffff"/>
   </g>
   <g id="line2d_1">
    <path d="M 236.582435 515.897891 
L 236.582435 31.457891 
" clip-path="url(#p8893893a1b)" style="fill: none; stroke: #cfd6df; stroke-linecap: square"/>
   </g>
   <g id="line2d_2">
    <path d="M 78.70478 408.845938 
L 85.42691 404.409508 
L 92.149041 399.973079 
L 98.871171 395.53665 
L 105.593301 391.10022 
L 112.315432 386.663791 
L 119.037562 382.227361 
L 125.759693 377.790932 
L 132.481823 373.354503 
L 139.203953 368.918073 
L 145.926084 364.481644 
L 152.648214 360.045214 
L 159.370345 355.608785 
L 166.092475 351.172355 
L 172.814605 346.735926 
L 179.536736 342.299497 
L 186.258866 337.863067 
L 192.980997 333.426638 
L 199.703127 328.990208 
L 206.425257 324.553779 
L 213.147388 320.11735 
L 219.869518 315.68092 
L 226.591649 311.244491 
L 233.313779 306.808061 
L 240.035909 302.371632 
L 246.75804 297.935202 
L 253.48017 293.498773 
L 260.2023 289.062344 
L 266.924431 284.625914 
L 273.646561 280.189485 
L 280.368692 275.753055 
L 287.090822 271.316626 
L 293.812952 266.880196 
L 300.535083 262.443767 
L 307.257213 258.007338 
L 313.979344 253.570908 
L 320.701474 249.134479 
L 327.423604 244.698049 
L 334.145735 240.26162 
L 340.867865 235.825191 
L 347.589996 231.388761 
L 354.312126 226.952332 
L 361.034256 222.515902 
L 367.756387 218.079473 
L 374.478517 213.643043 
L 381.200648 209.206614 
L 387.922778 204.770185 
L 394.644908 200.333755 
L 401.367039 195.897326 
L 408.089169 191.460896 
L 414.8113 187.024467 
L 421.53343 182.588038 
L 428.25556 178.151608 
L 434.977691 173.715179 
L 441.699821 169.278749 
L 448.421952 164.84232 
L 455.144082 160.40589 
L 461.866212 155.969461 
L 468.588343 151.533032 
L 475.310473 147.096602 
L 482.032604 142.660173 
L 488.754734 138.223743 
L 495.476864 133.787314 
L 502.198995 129.350885 
L 508.921125 124.914455 
L 515.643255 120.478026 
L 522.365386 116.041596 
L 529.087516 111.605167 
L 535.809647 107.168737 
L 542.531777 102.732308 
L 549.253907 98.295879 
L 555.976038 93.859449 
L 562.698168 89.42302 
L 569.420299 84.98659 
L 576.142429 80.550161 
L 582.864559 76.113731 
L 589.58669 71.677302 
L 596.30882 67.240873 
L 603.030951 62.804443 
L 609.753081 58.368014 
L 616.475211 53.931584 
L 623.197342 49.495155 
L 629.919472 45.058726 
L 636.641603 40.622296 
L 643.363733 36.185867 
L 650.085863 31.749437 
L 656.807994 27.313008 
L 663.530124 22.876578 
L 670.252255 18.440149 
L 676.974385 14.00372 
L 683.696515 9.56729 
L 690.418646 5.130861 
L 697.140776 0.694431 
L 699.708199 -1 
" clip-path="url(#p8893893a1b)" style="fill: none; stroke-dasharray: 4.81,2.08; stroke-dashoffset: 0; stroke: #aab6c4; stroke-width: 1.3"/>
   </g>
   <g id="matplotlib.axis_1">
    <g id="xtick_1">
     <g id="line2d_3">
      <path d="M 105.889012 515.897891 
L 105.889012 31.457891 
" clip-path="url(#p8893893a1b)" style="fill: none; stroke: #eef2f7; stroke-width: 0.8; stroke-linecap: square"/>
     </g>
     <g id="line2d_4">
      <defs>
       <path id="m27ceae75f0" d="M 0 0 
L 0 3.5 
" style="stroke: #2b3744; stroke-width: 0.8"/>
      </defs>
      <g>
       <use xlink:href="#m27ceae75f0" x="105.889012" y="515.897891" style="fill: #2b3744; stroke: #2b3744; stroke-width: 0.8"/>
      </g>
     </g>
     <g id="text_1">
      <!-- 40 -->
      <g style="fill: #2b3744" transform="translate(99.526512 530.496328) scale(0.1 -0.1)">
       <defs>
        <path id="DejaVuSans-34" d="M 2419 4116 
L 825 1625 
L 2419 1625 
L 2419 4116 
z
M 2253 4666 
L 3047 4666 
L 3047 1625 
L 3713 1625 
L 3713 1100 
L 3047 1100 
L 3047 0 
L 2419 0 
L 2419 1100 
L 313 1100 
L 313 1709 
L 2253 4666 
z
" transform="scale(0.015625)"/>
        <path id="DejaVuSans-30" d="M 2034 4250 
Q 1547 4250 1301 3770 
Q 1056 3291 1056 2328 
Q 1056 1369 1301 889 
Q 1547 409 2034 409 
Q 2525 409 2770 889 
Q 3016 1369 3016 2328 
Q 3016 3291 2770 3770 
Q 2525 4250 2034 4250 
z
M 2034 4750 
Q 2819 4750 3233 4129 
Q 3647 3509 3647 2328 
Q 3647 1150 3233 529 
Q 2819 -91 2034 -91 
Q 1250 -91 836 529 
Q 422 1150 422 2328 
Q 422 3509 836 4129 
Q 1250 4750 2034 4750 
z
" transform="scale(0.015625)"/>
       </defs>
       <use xlink:href="#DejaVuSans-34"/>
       <use xlink:href="#DejaVuSans-30" transform="translate(63.623047 0)"/>
      </g>
     </g>
    </g>
    <g id="xtick_2">
     <g id="line2d_5">
      <path d="M 236.582435 515.897891 
L 236.582435 31.457891 
" clip-path="url(#p8893893a1b)" style="fill: none; stroke: #eef2f7; stroke-width: 0.8; stroke-linecap: square"/>
     </g>
     <g id="line2d_6">
      <g>
       <use xlink:href="#m27ceae75f0" x="236.582435" y="515.897891" style="fill: #2b3744; stroke: #2b3744; stroke-width: 0.8"/>
      </g>
     </g>
     <g id="text_2">
      <!-- 50 -->
      <g style="fill: #2b3744" transform="translate(230.219935 530.496328) scale(0.1 -0.1)">
       <defs>
        <path id="DejaVuSans-35" d="M 691 4666 
L 3169 4666 
L 3169 4134 
L 1269 4134 
L 1269 2991 
Q 1406 3038 1543 3061 
Q 1681 3084 1819 3084 
Q 2600 3084 3056 2656 
Q 3513 2228 3513 1497 
Q 3513 744 3044 326 
Q 2575 -91 1722 -91 
Q 1428 -91 1123 -41 
Q 819 9 494 109 
L 494 744 
Q 775 591 1075 516 
Q 1375 441 1709 441 
Q 2250 441 2565 725 
Q 2881 1009 2881 1497 
Q 2881 1984 2565 2268 
Q 2250 2553 1709 2553 
Q 1456 2553 1204 2497 
Q 953 2441 691 2322 
L 691 4666 
z
" transform="scale(0.015625)"/>
       </defs>
       <use xlink:href="#DejaVuSans-35"/>
       <use xlink:href="#DejaVuSans-30" transform="translate(63.623047 0)"/>
      </g>
     </g>
    </g>
    <g id="xtick_3">
     <g id="line2d_7">
      <path d="M 367.275857 515.897891 
L 367.275857 31.457891 
" clip-path="url(#p8893893a1b)" style="fill: none; stroke: #eef2f7; stroke-width: 0.8; stroke-linecap: square"/>
     </g>
     <g id="line2d_8">
      <g>
       <use xlink:href="#m27ceae75f0" x="367.275857" y="515.897891" style="fill: #2b3744; stroke: #2b3744; stroke-width: 0.8"/>
      </g>
     </g>
     <g id="text_3">
      <!-- 60 -->
      <g style="fill: #2b3744" transform="translate(360.913357 530.496328) scale(0.1 -0.1)">
       <defs>
        <path id="DejaVuSans-36" d="M 2113 2584 
Q 1688 2584 1439 2293 
Q 1191 2003 1191 1497 
Q 1191 994 1439 701 
Q 1688 409 2113 409 
Q 2538 409 2786 701 
Q 3034 994 3034 1497 
Q 3034 2003 2786 2293 
Q 2538 2584 2113 2584 
z
M 3366 4563 
L 3366 3988 
Q 3128 4100 2886 4159 
Q 2644 4219 2406 4219 
Q 1781 4219 1451 3797 
Q 1122 3375 1075 2522 
Q 1259 2794 1537 2939 
Q 1816 3084 2150 3084 
Q 2853 3084 3261 2657 
Q 3669 2231 3669 1497 
Q 3669 778 3244 343 
Q 2819 -91 2113 -91 
Q 1303 -91 875 529 
Q 447 1150 447 2328 
Q 447 3434 972 4092 
Q 1497 4750 2381 4750 
Q 2619 4750 2861 4703 
Q 3103 4656 3366 4563 
z
" transform="scale(0.015625)"/>
       </defs>
       <use xlink:href="#DejaVuSans-36"/>
       <use xlink:href="#DejaVuSans-30" transform="translate(63.623047 0)"/>
      </g>
     </g>
    </g>
    <g id="xtick_4">
     <g id="line2d_9">
      <path d="M 497.96928 515.897891 
L 497.96928 31.457891 
" clip-path="url(#p8893893a1b)" style="fill: none; stroke: #eef2f7; stroke-width: 0.8; stroke-linecap: square"/>
     </g>
     <g id="line2d_10">
      <g>
       <use xlink:href="#m27ceae75f0" x="497.96928" y="515.897891" style="fill: #2b3744; stroke: #2b3744; stroke-width: 0.8"/>
      </g>
     </g>
     <g id="text_4">
      <!-- 70 -->
      <g style="fill: #2b3744" transform="translate(491.60678 530.496328) scale(0.1 -0.1)">
       <defs>
        <path id="DejaVuSans-37" d="M 525 4666 
L 3525 4666 
L 3525 4397 
L 1831 0 
L 1172 0 
L 2766 4134 
L 525 4134 
L 525 4666 
z
" transform="scale(0.015625)"/>
       </defs>
       <use xlink:href="#DejaVuSans-37"/>
       <use xlink:href="#DejaVuSans-30" transform="translate(63.623047 0)"/>
      </g>
     </g>
    </g>
    <g id="xtick_5">
     <g id="line2d_11">
      <path d="M 628.662703 515.897891 
L 628.662703 31.457891 
" clip-path="url(#p8893893a1b)" style="fill: none; stroke: #eef2f7; stroke-width: 0.8; stroke-linecap: square"/>
     </g>
     <g id="line2d_12">
      <g>
       <use xlink:href="#m27ceae75f0" x="628.662703" y="515.897891" style="fill: #2b3744; stroke: #2b3744; stroke-width: 0.8"/>
      </g>
     </g>
     <g id="text_5">
      <!-- 80 -->
      <g style="fill: #2b3744" transform="translate(622.300203 530.496328) scale(0.1 -0.1)">
       <defs>
        <path id="DejaVuSans-38" d="M 2034 2216 
Q 1584 2216 1326 1975 
Q 1069 1734 1069 1313 
Q 1069 891 1326 650 
Q 1584 409 2034 409 
Q 2484 409 2743 651 
Q 3003 894 3003 1313 
Q 3003 1734 2745 1975 
Q 2488 2216 2034 2216 
z
M 1403 2484 
Q 997 2584 770 2862 
Q 544 3141 544 3541 
Q 544 4100 942 4425 
Q 1341 4750 2034 4750 
Q 2731 4750 3128 4425 
Q 3525 4100 3525 3541 
Q 3525 3141 3298 2862 
Q 3072 2584 2669 2484 
Q 3125 2378 3379 2068 
Q 3634 1759 3634 1313 
Q 3634 634 3220 271 
Q 2806 -91 2034 -91 
Q 1263 -91 848 271 
Q 434 634 434 1313 
Q 434 1759 690 2068 
Q 947 2378 1403 2484 
z
M 1172 3481 
Q 1172 3119 1398 2916 
Q 1625 2713 2034 2713 
Q 2441 2713 2670 2916 
Q 2900 3119 2900 3481 
Q 2900 3844 2670 4047 
Q 2441 4250 2034 4250 
Q 1625 4250 1398 4047 
Q 1172 3844 1172 3481 
z
" transform="scale(0.015625)"/>
       </defs>
       <use xlink:href="#DejaVuSans-38"/>
       <use xlink:href="#DejaVuSans-30" transform="translate(63.623047 0)"/>
      </g>
     </g>
    </g>
    <g id="xtick_6">
     <g id="line2d_13">
      <path d="M 759.356126 515.897891 
L 759.356126 31.457891 
" clip-path="url(#p8893893a1b)" style="fill: none; stroke: #eef2f7; stroke-width: 0.8; stroke-linecap: square"/>
     </g>
     <g id="line2d_14">
      <g>
       <use xlink:href="#m27ceae75f0" x="759.356126" y="515.897891" style="fill: #2b3744; stroke: #2b3744; stroke-width: 0.8"/>
      </g>
     </g>
     <g id="text_6">
      <!-- 90 -->
      <g style="fill: #2b3744" transform="translate(752.993626 530.496328) scale(0.1 -0.1)">
       <defs>
        <path id="DejaVuSans-39" d="M 703 97 
L 703 672 
Q 941 559 1184 500 
Q 1428 441 1663 441 
Q 2288 441 2617 861 
Q 2947 1281 2994 2138 
Q 2813 1869 2534 1725 
Q 2256 1581 1919 1581 
Q 1219 1581 811 2004 
Q 403 2428 403 3163 
Q 403 3881 828 4315 
Q 1253 4750 1959 4750 
Q 2769 4750 3195 4129 
Q 3622 3509 3622 2328 
Q 3622 1225 3098 567 
Q 2575 -91 1691 -91 
Q 1453 -91 1209 -44 
Q 966 3 703 97 
z
M 1959 2075 
Q 2384 2075 2632 2365 
Q 2881 2656 2881 3163 
Q 2881 3666 2632 3958 
Q 2384 4250 1959 4250 
Q 1534 4250 1286 3958 
Q 1038 3666 1038 3163 
Q 1038 2656 1286 2365 
Q 1534 2075 1959 2075 
z
" transform="scale(0.015625)"/>
       </defs>
       <use xlink:href="#DejaVuSans-39"/>
       <use xlink:href="#DejaVuSans-30" transform="translate(63.623047 0)"/>
      </g>
     </g>
    </g>
    <g id="text_7">
     <!-- ←  More Republican                              District                              More Democratic  → -->
     <g style="fill: #19222e" transform="translate(177.779297 558.934297) scale(0.11 -0.11)">
      <defs>
       <path id="DejaVuSans-2190" d="M 313 1866 
L 313 2147 
L 1541 3375 
L 1916 3000 
L 1188 2272 
L 4997 2272 
L 4997 1741 
L 1188 1741 
L 1916 1013 
L 1541 638 
L 313 1866 
z
" transform="scale(0.015625)"/>
       <path id="DejaVuSans-20" transform="scale(0.015625)"/>
       <path id="DejaVuSans-4d" d="M 628 4666 
L 1569 4666 
L 2759 1491 
L 3956 4666 
L 4897 4666 
L 4897 0 
L 4281 0 
L 4281 4097 
L 3078 897 
L 2444 897 
L 1241 4097 
L 1241 0 
L 628 0 
L 628 4666 
z
" transform="scale(0.015625)"/>
       <path id="DejaVuSans-6f" d="M 1959 3097 
Q 1497 3097 1228 2736 
Q 959 2375 959 1747 
Q 959 1119 1226 758 
Q 1494 397 1959 397 
Q 2419 397 2687 759 
Q 2956 1122 2956 1747 
Q 2956 2369 2687 2733 
Q 2419 3097 1959 3097 
z
M 1959 3584 
Q 2709 3584 3137 3096 
Q 3566 2609 3566 1747 
Q 3566 888 3137 398 
Q 2709 -91 1959 -91 
Q 1206 -91 779 398 
Q 353 888 353 1747 
Q 353 2609 779 3096 
Q 1206 3584 1959 3584 
z
" transform="scale(0.015625)"/>
       <path id="DejaVuSans-72" d="M 2631 2963 
Q 2534 3019 2420 3045 
Q 2306 3072 2169 3072 
Q 1681 3072 1420 2755 
Q 1159 2438 1159 1844 
L 1159 0 
L 581 0 
L 581 3500 
L 1159 3500 
L 1159 2956 
Q 1341 3275 1631 3429 
Q 1922 3584 2338 3584 
Q 2397 3584 2469 3576 
Q 2541 3569 2628 3553 
L 2631 2963 
z
" transform="scale(0.015625)"/>
       <path id="DejaVuSans-65" d="M 3597 1894 
L 3597 1613 
L 953 1613 
Q 991 1019 1311 708 
Q 1631 397 2203 397 
Q 2534 397 2845 478 
Q 3156 559 3463 722 
L 3463 178 
Q 3153 47 2828 -22 
Q 2503 -91 2169 -91 
Q 1331 -91 842 396 
Q 353 884 353 1716 
Q 353 2575 817 3079 
Q 1281 3584 2069 3584 
Q 2775 3584 3186 3129 
Q 3597 2675 3597 1894 
z
M 3022 2063 
Q 3016 2534 2758 2815 
Q 2500 3097 2075 3097 
Q 1594 3097 1305 2825 
Q 1016 2553 972 2059 
L 3022 2063 
z
" transform="scale(0.015625)"/>
       <path id="DejaVuSans-52" d="M 2841 2188 
Q 3044 2119 3236 1894 
Q 3428 1669 3622 1275 
L 4263 0 
L 3584 0 
L 2988 1197 
Q 2756 1666 2539 1819 
Q 2322 1972 1947 1972 
L 1259 1972 
L 1259 0 
L 628 0 
L 628 4666 
L 2053 4666 
Q 2853 4666 3247 4331 
Q 3641 3997 3641 3322 
Q 3641 2881 3436 2590 
Q 3231 2300 2841 2188 
z
M 1259 4147 
L 1259 2491 
L 2053 2491 
Q 2509 2491 2742 2702 
Q 2975 2913 2975 3322 
Q 2975 3731 2742 3939 
Q 2509 4147 2053 4147 
L 1259 4147 
z
" transform="scale(0.015625)"/>
       <path id="DejaVuSans-70" d="M 1159 525 
L 1159 -1331 
L 581 -1331 
L 581 3500 
L 1159 3500 
L 1159 2969 
Q 1341 3281 1617 3432 
Q 1894 3584 2278 3584 
Q 2916 3584 3314 3078 
Q 3713 2572 3713 1747 
Q 3713 922 3314 415 
Q 2916 -91 2278 -91 
Q 1894 -91 1617 61 
Q 1341 213 1159 525 
z
M 3116 1747 
Q 3116 2381 2855 2742 
Q 2594 3103 2138 3103 
Q 1681 3103 1420 2742 
Q 1159 2381 1159 1747 
Q 1159 1113 1420 752 
Q 1681 391 2138 391 
Q 2594 391 2855 752 
Q 3116 1113 3116 1747 
z
" transform="scale(0.015625)"/>
       <path id="DejaVuSans-75" d="M 544 1381 
L 544 3500 
L 1119 3500 
L 1119 1403 
Q 1119 906 1312 657 
Q 1506 409 1894 409 
Q 2359 409 2629 706 
Q 2900 1003 2900 1516 
L 2900 3500 
L 3475 3500 
L 3475 0 
L 2900 0 
L 2900 538 
Q 2691 219 2414 64 
Q 2138 -91 1772 -91 
Q 1169 -91 856 284 
Q 544 659 544 1381 
z
M 1991 3584 
L 1991 3584 
z
" transform="scale(0.015625)"/>
       <path id="DejaVuSans-62" d="M 3116 1747 
Q 3116 2381 2855 2742 
Q 2594 3103 2138 3103 
Q 1681 3103 1420 2742 
Q 1159 2381 1159 1747 
Q 1159 1113 1420 752 
Q 1681 391 2138 391 
Q 2594 391 2855 752 
Q 3116 1113 3116 1747 
z
M 1159 2969 
Q 1341 3281 1617 3432 
Q 1894 3584 2278 3584 
Q 2916 3584 3314 3078 
Q 3713 2572 3713 1747 
Q 3713 922 3314 415 
Q 2916 -91 2278 -91 
Q 1894 -91 1617 61 
Q 1341 213 1159 525 
L 1159 0 
L 581 0 
L 581 4863 
L 1159 4863 
L 1159 2969 
z
" transform="scale(0.015625)"/>
       <path id="DejaVuSans-6c" d="M 603 4863 
L 1178 4863 
L 1178 0 
L 603 0 
L 603 4863 
z
" transform="scale(0.015625)"/>
       <path id="DejaVuSans-69" d="M 603 3500 
L 1178 3500 
L 1178 0 
L 603 0 
L 603 3500 
z
M 603 4863 
L 1178 4863 
L 1178 4134 
L 603 4134 
L 603 4863 
z
" transform="scale(0.015625)"/>
       <path id="DejaVuSans-63" d="M 3122 3366 
L 3122 2828 
Q 2878 2963 2633 3030 
Q 2388 3097 2138 3097 
Q 1578 3097 1268 2742 
Q 959 2388 959 1747 
Q 959 1106 1268 751 
Q 1578 397 2138 397 
Q 2388 397 2633 464 
Q 2878 531 3122 666 
L 3122 134 
Q 2881 22 2623 -34 
Q 2366 -91 2075 -91 
Q 1284 -91 818 406 
Q 353 903 353 1747 
Q 353 2603 823 3093 
Q 1294 3584 2113 3584 
Q 2378 3584 2631 3529 
Q 2884 3475 3122 3366 
z
" transform="scale(0.015625)"/>
       <path id="DejaVuSans-61" d="M 2194 1759 
Q 1497 1759 1228 1600 
Q 959 1441 959 1056 
Q 959 750 1161 570 
Q 1363 391 1709 391 
Q 2188 391 2477 730 
Q 2766 1069 2766 1631 
L 2766 1759 
L 2194 1759 
z
M 3341 1997 
L 3341 0 
L 2766 0 
L 2766 531 
Q 2569 213 2275 61 
Q 1981 -91 1556 -91 
Q 1019 -91 701 211 
Q 384 513 384 1019 
Q 384 1609 779 1909 
Q 1175 2209 1959 2209 
L 2766 2209 
L 2766 2266 
Q 2766 2663 2505 2880 
Q 2244 3097 1772 3097 
Q 1472 3097 1187 3025 
Q 903 2953 641 2809 
L 641 3341 
Q 956 3463 1253 3523 
Q 1550 3584 1831 3584 
Q 2591 3584 2966 3190 
Q 3341 2797 3341 1997 
z
" transform="scale(0.015625)"/>
       <path id="DejaVuSans-6e" d="M 3513 2113 
L 3513 0 
L 2938 0 
L 2938 2094 
Q 2938 2591 2744 2837 
Q 2550 3084 2163 3084 
Q 1697 3084 1428 2787 
Q 1159 2491 1159 1978 
L 1159 0 
L 581 0 
L 581 3500 
L 1159 3500 
L 1159 2956 
Q 1366 3272 1645 3428 
Q 1925 3584 2291 3584 
Q 2894 3584 3203 3211 
Q 3513 2838 3513 2113 
z
" transform="scale(0.015625)"/>
       <path id="DejaVuSans-44" d="M 1259 4147 
L 1259 519 
L 2022 519 
Q 2988 519 3436 956 
Q 3884 1394 3884 2338 
Q 3884 3275 3436 3711 
Q 2988 4147 2022 4147 
L 1259 4147 
z
M 628 4666 
L 1925 4666 
Q 3281 4666 3915 4102 
Q 4550 3538 4550 2338 
Q 4550 1131 3912 565 
Q 3275 0 1925 0 
L 628 0 
L 628 4666 
z
" transform="scale(0.015625)"/>
       <path id="DejaVuSans-73" d="M 2834 3397 
L 2834 2853 
Q 2591 2978 2328 3040 
Q 2066 3103 1784 3103 
Q 1356 3103 1142 2972 
Q 928 2841 928 2578 
Q 928 2378 1081 2264 
Q 1234 2150 1697 2047 
L 1894 2003 
Q 2506 1872 2764 1633 
Q 3022 1394 3022 966 
Q 3022 478 2636 193 
Q 2250 -91 1575 -91 
Q 1294 -91 989 -36 
Q 684 19 347 128 
L 347 722 
Q 666 556 975 473 
Q 1284 391 1588 391 
Q 1994 391 2212 530 
Q 2431 669 2431 922 
Q 2431 1156 2273 1281 
Q 2116 1406 1581 1522 
L 1381 1569 
Q 847 1681 609 1914 
Q 372 2147 372 2553 
Q 372 3047 722 3315 
Q 1072 3584 1716 3584 
Q 2034 3584 2315 3537 
Q 2597 3491 2834 3397 
z
" transform="scale(0.015625)"/>
       <path id="DejaVuSans-74" d="M 1172 4494 
L 1172 3500 
L 2356 3500 
L 2356 3053 
L 1172 3053 
L 1172 1153 
Q 1172 725 1289 603 
Q 1406 481 1766 481 
L 2356 481 
L 2356 0 
L 1766 0 
Q 1100 0 847 248 
Q 594 497 594 1153 
L 594 3053 
L 172 3053 
L 172 3500 
L 594 3500 
L 594 4494 
L 1172 4494 
z
" transform="scale(0.015625)"/>
       <path id="DejaVuSans-6d" d="M 3328 2828 
Q 3544 3216 3844 3400 
Q 4144 3584 4550 3584 
Q 5097 3584 5394 3201 
Q 5691 2819 5691 2113 
L 5691 0 
L 5113 0 
L 5113 2094 
Q 5113 2597 4934 2840 
Q 4756 3084 4391 3084 
Q 3944 3084 3684 2787 
Q 3425 2491 3425 1978 
L 3425 0 
L 2847 0 
L 2847 2094 
Q 2847 2600 2669 2842 
Q 2491 3084 2119 3084 
Q 1678 3084 1418 2786 
Q 1159 2488 1159 1978 
L 1159 0 
L 581 0 
L 581 3500 
L 1159 3500 
L 1159 2956 
Q 1356 3278 1631 3431 
Q 1906 3584 2284 3584 
Q 2666 3584 2933 3390 
Q 3200 3197 3328 2828 
z
" transform="scale(0.015625)"/>
       <path id="DejaVuSans-2192" d="M 5050 2147 
L 5050 1866 
L 3822 638 
L 3447 1013 
L 4175 1741 
L 366 1741 
L 366 2272 
L 4175 2272 
L 3447 3000 
L 3822 3375 
L 5050 2147 
z
" transform="scale(0.015625)"/>
      </defs>
      <use xlink:href="#DejaVuSans-2190"/>
      <use xlink:href="#DejaVuSans-20" transform="translate(83.789062 0)"/>
      <use xlink:href="#DejaVuSans-20" transform="translate(115.576172 0)"/>
      <use xlink:href="#DejaVuSans-4d" transform="translate(147.363281 0)"/>
      <use xlink:href="#DejaVuSans-6f" transform="translate(233.642578 0)"/>
      <use xlink:href="#DejaVuSans-72" transform="translate(294.824219 0)"/>
      <use xlink:href="#DejaVuSans-65" transform="translate(333.6875 0)"/>
      <use xlink:href="#DejaVuSans-20" transform="translate(395.210938 0)"/>
      <use xlink:href="#DejaVuSans-52" transform="translate(426.998047 0)"/>
      <use xlink:href="#DejaVuSans-65" transform="translate(491.980469 0)"/>
      <use xlink:href="#DejaVuSans-70" transform="translate(553.503906 0)"/>
      <use xlink:href="#DejaVuSans-75" transform="translate(616.980469 0)"/>
      <use xlink:href="#DejaVuSans-62" transform="translate(680.359375 0)"/>
      <use xlink:href="#DejaVuSans-6c" transform="translate(743.835938 0)"/>
      <use xlink:href="#DejaVuSans-69" transform="translate(771.619141 0)"/>
      <use xlink:href="#DejaVuSans-63" transform="translate(799.402344 0)"/>
      <use xlink:href="#DejaVuSans-61" transform="translate(854.382812 0)"/>
      <use xlink:href="#DejaVuSans-6e" transform="translate(915.662109 0)"/>
      <use xlink:href="#DejaVuSans-20" transform="translate(979.041016 0)"/>
      <use xlink:href="#DejaVuSans-20" transform="translate(1010.828125 0)"/>
      <use xlink:href="#DejaVuSans-20" transform="translate(1042.615234 0)"/>
      <use xlink:href="#DejaVuSans-20" transform="translate(1074.402344 0)"/>
      <use xlink:href="#DejaVuSans-20" transform="translate(1106.189453 0)"/>
      <use xlink:href="#DejaVuSans-20" transform="translate(1137.976562 0)"/>
      <use xlink:href="#DejaVuSans-20" transform="translate(1169.763672 0)"/>
      <use xlink:href="#DejaVuSans-20" transform="translate(1201.550781 0)"/>
      <use xlink:href="#DejaVuSans-20" transform="translate(1233.337891 0)"/>
      <use xlink:href="#DejaVuSans-20" transform="translate(1265.125 0)"/>
      <use xlink:href="#DejaVuSans-20" transform="translate(1296.912109 0)"/>
      <use xlink:href="#DejaVuSans-20" transform="translate(1328.699219 0)"/>
      <use xlink:href="#DejaVuSans-20" transform="translate(1360.486328 0)"/>
      <use xlink:href="#DejaVuSans-20" transform="translate(1392.273438 0)"/>
      <use xlink:href="#DejaVuSans-20" transform="translate(1424.060547 0)"/>
      <use xlink:href="#DejaVuSans-20" transform="translate(1455.847656 0)"/>
      <use xlink:href="#DejaVuSans-20" transform="translate(1487.634766 0)"/>
      <use xlink:href="#DejaVuSans-20" transform="translate(1519.421875 0)"/>
      <use xlink:href="#DejaVuSans-20" transform="translate(1551.208984 0)"/>
      <use xlink:href="#DejaVuSans-20" transform="translate(1582.996094 0)"/>
      <use xlink:href="#DejaVuSans-20" transform="translate(1614.783203 0)"/>
      <use xlink:href="#DejaVuSans-20" transform="translate(1646.570312 0)"/>
      <use xlink:href="#DejaVuSans-20" transform="translate(1678.357422 0)"/>
      <use xlink:href="#DejaVuSans-20" transform="translate(1710.144531 0)"/>
      <use xlink:href="#DejaVuSans-20" transform="translate(1741.931641 0)"/>
      <use xlink:href="#DejaVuSans-20" transform="translate(1773.71875 0)"/>
      <use xlink:href="#DejaVuSans-20" transform="translate(1805.505859 0)"/>
      <use xlink:href="#DejaVuSans-20" transform="translate(1837.292969 0)"/>
      <use xlink:href="#DejaVuSans-20" transform="translate(1869.080078 0)"/>
      <use xlink:href="#DejaVuSans-20" transform="translate(1900.867188 0)"/>
      <use xlink:href="#DejaVuSans-44" transform="translate(1932.654297 0)"/>
      <use xlink:href="#DejaVuSans-69" transform="translate(2009.65625 0)"/>
      <use xlink:href="#DejaVuSans-73" transform="translate(2037.439453 0)"/>
      <use xlink:href="#DejaVuSans-74" transform="translate(2089.539062 0)"/>
      <use xlink:href="#DejaVuSans-72" transform="translate(2128.748047 0)"/>
      <use xlink:href="#DejaVuSans-69" transform="translate(2169.861328 0)"/>
      <use xlink:href="#DejaVuSans-63" transform="translate(2197.644531 0)"/>
      <use xlink:href="#DejaVuSans-74" transform="translate(2252.625 0)"/>
      <use xlink:href="#DejaVuSans-20" transform="translate(2291.833984 0)"/>
      <use xlink:href="#DejaVuSans-20" transform="translate(2323.621094 0)"/>
      <use xlink:href="#DejaVuSans-20" transform="translate(2355.408203 0)"/>
      <use xlink:href="#DejaVuSans-20" transform="translate(2387.195312 0)"/>
      <use xlink:href="#DejaVuSans-20" transform="translate(2418.982422 0)"/>
      <use xlink:href="#DejaVuSans-20" transform="translate(2450.769531 0)"/>
      <use xlink:href="#DejaVuSans-20" transform="translate(2482.556641 0)"/>
      <use xlink:href="#DejaVuSans-20" transform="translate(2514.34375 0)"/>
      <use xlink:href="#DejaVuSans-20" transform="translate(2546.130859 0)"/>
      <use xlink:href="#DejaVuSans-20" transform="translate(2577.917969 0)"/>
      <use xlink:href="#DejaVuSans-20" transform="translate(2609.705078 0)"/>
      <use xlink:href="#DejaVuSans-20" transform="translate(2641.492188 0)"/>
      <use xlink:href="#DejaVuSans-20" transform="translate(2673.279297 0)"/>
      <use xlink:href="#DejaVuSans-20" transform="translate(2705.066406 0)"/>
      <use xlink:href="#DejaVuSans-20" transform="translate(2736.853516 0)"/>
      <use xlink:href="#DejaVuSans-20" transform="translate(2768.640625 0)"/>
      <use xlink:href="#DejaVuSans-20" transform="translate(2800.427734 0)"/>
      <use xlink:href="#DejaVuSans-20" transform="translate(2832.214844 0)"/>
      <use xlink:href="#DejaVuSans-20" transform="translate(2864.001953 0)"/>
      <use xlink:href="#DejaVuSans-20" transform="translate(2895.789062 0)"/>
      <use xlink:href="#DejaVuSans-20" transform="translate(2927.576172 0)"/>
      <use xlink:href="#DejaVuSans-20" transform="translate(2959.363281 0)"/>
      <use xlink:href="#DejaVuSans-20" transform="translate(2991.150391 0)"/>
      <use xlink:href="#DejaVuSans-20" transform="translate(3022.9375 0)"/>
      <use xlink:href="#DejaVuSans-20" transform="translate(3054.724609 0)"/>
      <use xlink:href="#DejaVuSans-20" transform="translate(3086.511719 0)"/>
      <use xlink:href="#DejaVuSans-20" transform="translate(3118.298828 0)"/>
      <use xlink:href="#DejaVuSans-20" transform="translate(3150.085938 0)"/>
      <use xlink:href="#DejaVuSans-20" transform="translate(3181.873047 0)"/>
      <use xlink:href="#DejaVuSans-20" transform="translate(3213.660156 0)"/>
      <use xlink:href="#DejaVuSans-4d" transform="translate(3245.447266 0)"/>
      <use xlink:href="#DejaVuSans-6f" transform="translate(3331.726562 0)"/>
      <use xlink:href="#DejaVuSans-72" transform="translate(3392.908203 0)"/>
      <use xlink:href="#DejaVuSans-65" transform="translate(3431.771484 0)"/>
      <use xlink:href="#DejaVuSans-20" transform="translate(3493.294922 0)"/>
      <use xlink:href="#DejaVuSans-44" transform="translate(3525.082031 0)"/>
      <use xlink:href="#DejaVuSans-65" transform="translate(3602.083984 0)"/>
      <use xlink:href="#DejaVuSans-6d" transform="translate(3663.607422 0)"/>
      <use xlink:href="#DejaVuSans-6f" transform="translate(3761.019531 0)"/>
      <use xlink:href="#DejaVuSans-63" transform="translate(3822.201172 0)"/>
      <use xlink:href="#DejaVuSans-72" transform="translate(3877.181641 0)"/>
      <use xlink:href="#DejaVuSans-61" transform="translate(3918.294922 0)"/>
      <use xlink:href="#DejaVuSans-74" transform="translate(3979.574219 0)"/>
      <use xlink:href="#DejaVuSans-69" transform="translate(4018.783203 0)"/>
      <use xlink:href="#DejaVuSans-63" transform="translate(4046.566406 0)"/>
      <use xlink:href="#DejaVuSans-20" transform="translate(4101.546875 0)"/>
      <use xlink:href="#DejaVuSans-20" transform="translate(4133.333984 0)"/>
      <use xlink:href="#DejaVuSans-2192" transform="translate(4165.121094 0)"/>
     </g>
    </g>
   </g>
   <g id="matplotlib.axis_2">
    <g id="ytick_1">
     <g id="line2d_15">
      <defs>
       <path id="m469d3e917d" d="M 0 0 
L -3.5 0 
" style="stroke: #2b3744; stroke-width: 0.8"/>
      </defs>
      <g>
       <use xlink:href="#m469d3e917d" x="45.430234" y="71.827891" style="fill: #2b3744; stroke: #2b3744; stroke-width: 0.8"/>
      </g>
     </g>
     <g id="text_8">
      <!-- -1.0 -->
      <g style="fill: #2b3744" transform="translate(21.845938 75.057227) scale(0.085 -0.085)">
       <defs>
        <path id="DejaVuSans-2d" d="M 313 2009 
L 1997 2009 
L 1997 1497 
L 313 1497 
L 313 2009 
z
" transform="scale(0.015625)"/>
        <path id="DejaVuSans-31" d="M 794 531 
L 1825 531 
L 1825 4091 
L 703 3866 
L 703 4441 
L 1819 4666 
L 2450 4666 
L 2450 531 
L 3481 531 
L 3481 0 
L 794 0 
L 794 531 
z
" transform="scale(0.015625)"/>
        <path id="DejaVuSans-2e" d="M 684 794 
L 1344 794 
L 1344 0 
L 684 0 
L 684 794 
z
" transform="scale(0.015625)"/>
       </defs>
       <use xlink:href="#DejaVuSans-2d"/>
       <use xlink:href="#DejaVuSans-31" transform="translate(36.083984 0)"/>
       <use xlink:href="#DejaVuSans-2e" transform="translate(99.707031 0)"/>
       <use xlink:href="#DejaVuSans-30" transform="translate(131.494141 0)"/>
      </g>
     </g>
    </g>
    <g id="ytick_2">
     <g id="line2d_16">
      <g>
       <use xlink:href="#m469d3e917d" x="45.430234" y="172.752891" style="fill: #2b3744; stroke: #2b3744; stroke-width: 0.8"/>
      </g>
     </g>
     <g id="text_9">
      <!-- -0.5 -->
      <g style="fill: #2b3744" transform="translate(21.845938 175.982227) scale(0.085 -0.085)">
       <use xlink:href="#DejaVuSans-2d"/>
       <use xlink:href="#DejaVuSans-30" transform="translate(36.083984 0)"/>
       <use xlink:href="#DejaVuSans-2e" transform="translate(99.707031 0)"/>
       <use xlink:href="#DejaVuSans-35" transform="translate(131.494141 0)"/>
      </g>
     </g>
    </g>
    <g id="ytick_3">
     <g id="line2d_17">
      <g>
       <use xlink:href="#m469d3e917d" x="45.430234" y="273.677891" style="fill: #2b3744; stroke: #2b3744; stroke-width: 0.8"/>
      </g>
     </g>
     <g id="text_10">
      <!-- 0.0 -->
      <g style="fill: #2b3744" transform="translate(24.912578 276.907227) scale(0.085 -0.085)">
       <use xlink:href="#DejaVuSans-30"/>
       <use xlink:href="#DejaVuSans-2e" transform="translate(63.623047 0)"/>
       <use xlink:href="#DejaVuSans-30" transform="translate(95.410156 0)"/>
      </g>
     </g>
    </g>
    <g id="ytick_4">
     <g id="line2d_18">
      <g>
       <use xlink:href="#m469d3e917d" x="45.430234" y="374.602891" style="fill: #2b3744; stroke: #2b3744; stroke-width: 0.8"/>
      </g>
     </g>
     <g id="text_11">
      <!-- 0.5 -->
      <g style="fill: #2b3744" transform="translate(24.912578 377.832227) scale(0.085 -0.085)">
       <use xlink:href="#DejaVuSans-30"/>
       <use xlink:href="#DejaVuSans-2e" transform="translate(63.623047 0)"/>
       <use xlink:href="#DejaVuSans-35" transform="translate(95.410156 0)"/>
      </g>
     </g>
    </g>
    <g id="ytick_5">
     <g id="line2d_19">
      <g>
       <use xlink:href="#m469d3e917d" x="45.430234" y="475.527891" style="fill: #2b3744; stroke: #2b3744; stroke-width: 0.8"/>
      </g>
     </g>
     <g id="text_12">
      <!-- 1.0 -->
      <g style="fill: #2b3744" transform="translate(24.912578 478.757227) scale(0.085 -0.085)">
       <use xlink:href="#DejaVuSans-31"/>
       <use xlink:href="#DejaVuSans-2e" transform="translate(63.623047 0)"/>
       <use xlink:href="#DejaVuSans-30" transform="translate(95.410156 0)"/>
      </g>
     </g>
    </g>
    <g id="text_13">
     <!-- ←  More Conservative          Representative          More Liberal  → -->
     <g style="fill: #19222e" transform="translate(15.558281 451.943203) rotate(-90) scale(0.11 -0.11)">
      <defs>
       <path id="DejaVuSans-43" d="M 4122 4306 
L 4122 3641 
Q 3803 3938 3442 4084 
Q 3081 4231 2675 4231 
Q 1875 4231 1450 3742 
Q 1025 3253 1025 2328 
Q 1025 1406 1450 917 
Q 1875 428 2675 428 
Q 3081 428 3442 575 
Q 3803 722 4122 1019 
L 4122 359 
Q 3791 134 3420 21 
Q 3050 -91 2638 -91 
Q 1578 -91 968 557 
Q 359 1206 359 2328 
Q 359 3453 968 4101 
Q 1578 4750 2638 4750 
Q 3056 4750 3426 4639 
Q 3797 4528 4122 4306 
z
" transform="scale(0.015625)"/>
       <path id="DejaVuSans-76" d="M 191 3500 
L 800 3500 
L 1894 563 
L 2988 3500 
L 3597 3500 
L 2284 0 
L 1503 0 
L 191 3500 
z
" transform="scale(0.015625)"/>
       <path id="DejaVuSans-4c" d="M 628 4666 
L 1259 4666 
L 1259 531 
L 3531 531 
L 3531 0 
L 628 0 
L 628 4666 
z
" transform="scale(0.015625)"/>
      </defs>
      <use xlink:href="#DejaVuSans-2190"/>
      <use xlink:href="#DejaVuSans-20" transform="translate(83.789062 0)"/>
      <use xlink:href="#DejaVuSans-20" transform="translate(115.576172 0)"/>
      <use xlink:href="#DejaVuSans-4d" transform="translate(147.363281 0)"/>
      <use xlink:href="#DejaVuSans-6f" transform="translate(233.642578 0)"/>
      <use xlink:href="#DejaVuSans-72" transform="translate(294.824219 0)"/>
      <use xlink:href="#DejaVuSans-65" transform="translate(333.6875 0)"/>
      <use xlink:href="#DejaVuSans-20" transform="translate(395.210938 0)"/>
      <use xlink:href="#DejaVuSans-43" transform="translate(426.998047 0)"/>
      <use xlink:href="#DejaVuSans-6f" transform="translate(496.822266 0)"/>
      <use xlink:href="#DejaVuSans-6e" transform="translate(558.003906 0)"/>
      <use xlink:href="#DejaVuSans-73" transform="translate(621.382812 0)"/>
      <use xlink:href="#DejaVuSans-65" transform="translate(673.482422 0)"/>
      <use xlink:href="#DejaVuSans-72" transform="translate(735.005859 0)"/>
      <use xlink:href="#DejaVuSans-76" transform="translate(776.119141 0)"/>
      <use xlink:href="#DejaVuSans-61" transform="translate(835.298828 0)"/>
      <use xlink:href="#DejaVuSans-74" transform="translate(896.578125 0)"/>
      <use xlink:href="#DejaVuSans-69" transform="translate(935.787109 0)"/>
      <use xlink:href="#DejaVuSans-76" transform="translate(963.570312 0)"/>
      <use xlink:href="#DejaVuSans-65" transform="translate(1022.75 0)"/>
      <use xlink:href="#DejaVuSans-20" transform="translate(1084.273438 0)"/>
      <use xlink:href="#DejaVuSans-20" transform="translate(1116.060547 0)"/>
      <use xlink:href="#DejaVuSans-20" transform="translate(1147.847656 0)"/>
      <use xlink:href="#DejaVuSans-20" transform="translate(1179.634766 0)"/>
      <use xlink:href="#DejaVuSans-20" transform="translate(1211.421875 0)"/>
      <use xlink:href="#DejaVuSans-20" transform="translate(1243.208984 0)"/>
      <use xlink:href="#DejaVuSans-20" transform="translate(1274.996094 0)"/>
      <use xlink:href="#DejaVuSans-20" transform="translate(1306.783203 0)"/>
      <use xlink:href="#DejaVuSans-20" transform="translate(1338.570312 0)"/>
      <use xlink:href="#DejaVuSans-20" transform="translate(1370.357422 0)"/>
      <use xlink:href="#DejaVuSans-52" transform="translate(1402.144531 0)"/>
      <use xlink:href="#DejaVuSans-65" transform="translate(1467.126953 0)"/>
      <use xlink:href="#DejaVuSans-70" transform="translate(1528.650391 0)"/>
      <use xlink:href="#DejaVuSans-72" transform="translate(1592.126953 0)"/>
      <use xlink:href="#DejaVuSans-65" transform="translate(1630.990234 0)"/>
      <use xlink:href="#DejaVuSans-73" transform="translate(1692.513672 0)"/>
      <use xlink:href="#DejaVuSans-65" transform="translate(1744.613281 0)"/>
      <use xlink:href="#DejaVuSans-6e" transform="translate(1806.136719 0)"/>
      <use xlink:href="#DejaVuSans-74" transform="translate(1869.515625 0)"/>
      <use xlink:href="#DejaVuSans-61" transform="translate(1908.724609 0)"/>
      <use xlink:href="#DejaVuSans-74" transform="translate(1970.003906 0)"/>
      <use xlink:href="#DejaVuSans-69" transform="translate(2009.212891 0)"/>
      <use xlink:href="#DejaVuSans-76" transform="translate(2036.996094 0)"/>
      <use xlink:href="#DejaVuSans-65" transform="translate(2096.175781 0)"/>
      <use xlink:href="#DejaVuSans-20" transform="translate(2157.699219 0)"/>
      <use xlink:href="#DejaVuSans-20" transform="translate(2189.486328 0)"/>
      <use xlink:href="#DejaVuSans-20" transform="translate(2221.273438 0)"/>
      <use xlink:href="#DejaVuSans-20" transform="translate(2253.060547 0)"/>
      <use xlink:href="#DejaVuSans-20" transform="translate(2284.847656 0)"/>
      <use xlink:href="#DejaVuSans-20" transform="translate(2316.634766 0)"/>
      <use xlink:href="#DejaVuSans-20" transform="translate(2348.421875 0)"/>
      <use xlink:href="#DejaVuSans-20" transform="translate(2380.208984 0)"/>
      <use xlink:href="#DejaVuSans-20" transform="translate(2411.996094 0)"/>
      <use xlink:href="#DejaVuSans-20" transform="translate(2443.783203 0)"/>
      <use xlink:href="#DejaVuSans-4d" transform="translate(2475.570312 0)"/>
      <use xlink:href="#DejaVuSans-6f" transform="translate(2561.849609 0)"/>
      <use xlink:href="#DejaVuSans-72" transform="translate(2623.03125 0)"/>
      <use xlink:href="#DejaVuSans-65" transform="translate(2661.894531 0)"/>
      <use xlink:href="#DejaVuSans-20" transform="translate(2723.417969 0)"/>
      <use xlink:href="#DejaVuSans-4c" transform="translate(2755.205078 0)"/>
      <use xlink:href="#DejaVuSans-69" transform="translate(2810.917969 0)"/>
      <use xlink:href="#DejaVuSans-62" transform="translate(2838.701172 0)"/>
      <use xlink:href="#DejaVuSans-65" transform="translate(2902.177734 0)"/>
      <use xlink:href="#DejaVuSans-72" transform="translate(2963.701172 0)"/>
      <use xlink:href="#DejaVuSans-61" transform="translate(3004.814453 0)"/>
      <use xlink:href="#DejaVuSans-6c" transform="translate(3066.09375 0)"/>
      <use xlink:href="#DejaVuSans-20" transform="translate(3093.876953 0)"/>
      <use xlink:href="#DejaVuSans-20" transform="translate(3125.664062 0)"/>
      <use xlink:href="#DejaVuSans-2192" transform="translate(3157.451172 0)"/>
     </g>
    </g>
   </g>
   <g id="patch_3">
    <path d="M 45.430234 515.897891 
L 45.430234 31.457891 
" style="fill: none; stroke: #d7dde5; stroke-width: 0.8; stroke-linejoin: miter; stroke-linecap: square"/>
   </g>
   <g id="patch_4">
    <path d="M 777.470234 515.897891 
L 777.470234 31.457891 
" style="fill: none; stroke: #d7dde5; stroke-width: 0.8; stroke-linejoin: miter; stroke-linecap: square"/>
   </g>
   <g id="patch_5">
    <path d="M 45.430234 515.897891 
L 777.470234 515.897891 
" style="fill: none; stroke: #d7dde5; stroke-width: 0.8; stroke-linejoin: miter; stroke-linecap: square"/>
   </g>
   <g id="patch_6">
    <path d="M 45.430234 31.457891 
L 777.470234 31.457891 
" style="fill: none; stroke: #d7dde5; stroke-width: 0.8; stroke-linejoin: miter; stroke-linecap: square"/>
   </g>
   <g id="PathCollection_1">
    <defs>
     <path id="md4a8644ec1" d="M 0 3.316625 
C 0.879579 3.316625 1.723251 2.967164 2.345208 2.345208 
C 2.967164 1.723251 3.316625 0.879579 3.316625 0 
C 3.316625 -0.879579 2.967164 -1.723251 2.345208 -2.345208 
C 1.723251 -2.967164 0.879579 -3.316625 0 -3.316625 
C -0.879579 -3.316625 -1.723251 -2.967164 -2.345208 -2.345208 
C -2.967164 -1.723251 -3.316625 -0.879579 -3.316625 0 
C -3.316625 0.879579 -2.967164 1.723251 -2.345208 2.345208 
C -1.723251 2.967164 -0.879579 3.316625 0 3.316625 
z
" style="stroke: #ffffff; stroke-opacity: 0.62; stroke-width: 0.5"/>
    </defs>
    <g clip-path="url(#p8893893a1b)">
     <use xlink:href="#md4a8644ec1" x="744.195689" y="110.280316" style="fill: #5b6775; fill-opacity: 0.62; stroke: #ffffff; stroke-opacity: 0.62; stroke-width: 0.5"/>
     <use xlink:href="#md4a8644ec1" x="307.679657" y="141.042256" style="fill: #5b6775; fill-opacity: 0.62; stroke: #ffffff; stroke-opacity: 0.62; stroke-width: 0.5"/>
     <use xlink:href="#md4a8644ec1" x="744.195689" y="164.154081" style="fill: #5b6775; fill-opacity: 0.62; stroke: #ffffff; stroke-opacity: 0.62; stroke-width: 0.5"/>
     <use xlink:href="#md4a8644ec1" x="744.195689" y="109.271066" style="fill: #5b6775; fill-opacity: 0.62; stroke: #ffffff; stroke-opacity: 0.62; stroke-width: 0.5"/>
     <use xlink:href="#md4a8644ec1" x="596.250734" y="92.820291" style="fill: #5b6775; fill-opacity: 0.62; stroke: #ffffff; stroke-opacity: 0.62; stroke-width: 0.5"/>
     <use xlink:href="#md4a8644ec1" x="726.29069" y="102.791681" style="fill: #5b6775; fill-opacity: 0.62; stroke: #ffffff; stroke-opacity: 0.62; stroke-width: 0.5"/>
     <use xlink:href="#md4a8644ec1" x="744.195689" y="87.874966" style="fill: #5b6775; fill-opacity: 0.62; stroke: #ffffff; stroke-opacity: 0.62; stroke-width: 0.5"/>
     <use xlink:href="#md4a8644ec1" x="282.325133" y="396.261396" style="fill: #5b6775; fill-opacity: 0.62; stroke: #ffffff; stroke-opacity: 0.62; stroke-width: 0.5"/>
     <use xlink:href="#md4a8644ec1" x="494.309864" y="98.512461" style="fill: #5b6775; fill-opacity: 0.62; stroke: #ffffff; stroke-opacity: 0.62; stroke-width: 0.5"/>
     <use xlink:href="#md4a8644ec1" x="531.818877" y="110.663831" style="fill: #5b6775; fill-opacity: 0.62; stroke: #ffffff; stroke-opacity: 0.62; stroke-width: 0.5"/>
     <use xlink:href="#md4a8644ec1" x="508.163367" y="104.749626" style="fill: #5b6775; fill-opacity: 0.62; stroke: #ffffff; stroke-opacity: 0.62; stroke-width: 0.5"/>
     <use xlink:href="#md4a8644ec1" x="457.585013" y="83.313156" style="fill: #5b6775; fill-opacity: 0.62; stroke: #ffffff; stroke-opacity: 0.62; stroke-width: 0.5"/>
     <use xlink:href="#md4a8644ec1" x="430.923554" y="102.811866" style="fill: #5b6775; fill-opacity: 0.62; stroke: #ffffff; stroke-opacity: 0.62; stroke-width: 0.5"/>
     <use xlink:href="#md4a8644ec1" x="387.664031" y="359.443956" style="fill: #5b6775; fill-opacity: 0.62; stroke: #ffffff; stroke-opacity: 0.62; stroke-width: 0.5"/>
     <use xlink:href="#md4a8644ec1" x="680.678685" y="116.396371" style="fill: #5b6775; fill-opacity: 0.62; stroke: #ffffff; stroke-opacity: 0.62; stroke-width: 0.5"/>
     <use xlink:href="#md4a8644ec1" x="368.844179" y="121.260956" style="fill: #5b6775; fill-opacity: 0.62; stroke: #ffffff; stroke-opacity: 0.62; stroke-width: 0.5"/>
     <use xlink:href="#md4a8644ec1" x="319.834145" y="71.827891" style="fill: #5b6775; fill-opacity: 0.62; stroke: #ffffff; stroke-opacity: 0.62; stroke-width: 0.5"/>
     <use xlink:href="#md4a8644ec1" x="546.06446" y="86.058316" style="fill: #5b6775; fill-opacity: 0.62; stroke: #ffffff; stroke-opacity: 0.62; stroke-width: 0.5"/>
     <use xlink:href="#md4a8644ec1" x="503.327711" y="79.417451" style="fill: #5b6775; fill-opacity: 0.62; stroke: #ffffff; stroke-opacity: 0.62; stroke-width: 0.5"/>
     <use xlink:href="#md4a8644ec1" x="474.444464" y="71.827891" style="fill: #5b6775; fill-opacity: 0.62; stroke: #ffffff; stroke-opacity: 0.62; stroke-width: 0.5"/>
     <use xlink:href="#md4a8644ec1" x="333.295568" y="81.032251" style="fill: #5b6775; fill-opacity: 0.62; stroke: #ffffff; stroke-opacity: 0.62; stroke-width: 0.5"/>
     <use xlink:href="#md4a8644ec1" x="246.907215" y="71.827891" style="fill: #5b6775; fill-opacity: 0.62; stroke: #ffffff; stroke-opacity: 0.62; stroke-width: 0.5"/>
     <use xlink:href="#md4a8644ec1" x="355.774836" y="375.854361" style="fill: #5b6775; fill-opacity: 0.62; stroke: #ffffff; stroke-opacity: 0.62; stroke-width: 0.5"/>
     <use xlink:href="#md4a8644ec1" x="475.359318" y="103.013716" style="fill: #5b6775; fill-opacity: 0.62; stroke: #ffffff; stroke-opacity: 0.62; stroke-width: 0.5"/>
     <use xlink:href="#md4a8644ec1" x="475.359318" y="100.086891" style="fill: #5b6775; fill-opacity: 0.62; stroke: #ffffff; stroke-opacity: 0.62; stroke-width: 0.5"/>
     <use xlink:href="#md4a8644ec1" x="475.359318" y="112.036411" style="fill: #5b6775; fill-opacity: 0.62; stroke: #ffffff; stroke-opacity: 0.62; stroke-width: 0.5"/>
     <use xlink:href="#md4a8644ec1" x="368.713485" y="89.954021" style="fill: #5b6775; fill-opacity: 0.62; stroke: #ffffff; stroke-opacity: 0.62; stroke-width: 0.5"/>
     <use xlink:href="#md4a8644ec1" x="349.501552" y="90.155871" style="fill: #5b6775; fill-opacity: 0.62; stroke: #ffffff; stroke-opacity: 0.62; stroke-width: 0.5"/>
     <use xlink:href="#md4a8644ec1" x="325.715349" y="162.397986" style="fill: #5b6775; fill-opacity: 0.62; stroke: #ffffff; stroke-opacity: 0.62; stroke-width: 0.5"/>
     <use xlink:href="#md4a8644ec1" x="216.324954" y="458.007311" style="fill: #5b6775; fill-opacity: 0.62; stroke: #ffffff; stroke-opacity: 0.62; stroke-width: 0.5"/>
     <use xlink:href="#md4a8644ec1" x="372.111514" y="183.148166" style="fill: #5b6775; fill-opacity: 0.62; stroke: #ffffff; stroke-opacity: 0.62; stroke-width: 0.5"/>
     <use xlink:href="#md4a8644ec1" x="304.281628" y="395.817326" style="fill: #5b6775; fill-opacity: 0.62; stroke: #ffffff; stroke-opacity: 0.62; stroke-width: 0.5"/>
     <use xlink:href="#md4a8644ec1" x="440.464174" y="71.827891" style="fill: #5b6775; fill-opacity: 0.62; stroke: #ffffff; stroke-opacity: 0.62; stroke-width: 0.5"/>
     <use xlink:href="#md4a8644ec1" x="269.25579" y="431.887921" style="fill: #5b6775; fill-opacity: 0.62; stroke: #ffffff; stroke-opacity: 0.62; stroke-width: 0.5"/>
     <use xlink:href="#md4a8644ec1" x="303.758854" y="388.187396" style="fill: #5b6775; fill-opacity: 0.62; stroke: #ffffff; stroke-opacity: 0.62; stroke-width: 0.5"/>
     <use xlink:href="#md4a8644ec1" x="352.899581" y="99.683191" style="fill: #5b6775; fill-opacity: 0.62; stroke: #ffffff; stroke-opacity: 0.62; stroke-width: 0.5"/>
     <use xlink:href="#md4a8644ec1" x="376.816477" y="91.770671" style="fill: #5b6775; fill-opacity: 0.62; stroke: #ffffff; stroke-opacity: 0.62; stroke-width: 0.5"/>
     <use xlink:href="#md4a8644ec1" x="343.097574" y="79.276156" style="fill: #5b6775; fill-opacity: 0.62; stroke: #ffffff; stroke-opacity: 0.62; stroke-width: 0.5"/>
     <use xlink:href="#md4a8644ec1" x="602.131938" y="103.074271" style="fill: #5b6775; fill-opacity: 0.62; stroke: #ffffff; stroke-opacity: 0.62; stroke-width: 0.5"/>
     <use xlink:href="#md4a8644ec1" x="449.351327" y="109.876616" style="fill: #5b6775; fill-opacity: 0.62; stroke: #ffffff; stroke-opacity: 0.62; stroke-width: 0.5"/>
     <use xlink:href="#md4a8644ec1" x="427.264139" y="110.502351" style="fill: #5b6775; fill-opacity: 0.62; stroke: #ffffff; stroke-opacity: 0.62; stroke-width: 0.5"/>
     <use xlink:href="#md4a8644ec1" x="342.052027" y="122.169281" style="fill: #5b6775; fill-opacity: 0.62; stroke: #ffffff; stroke-opacity: 0.62; stroke-width: 0.5"/>
     <use xlink:href="#md4a8644ec1" x="359.564946" y="394.444746" style="fill: #5b6775; fill-opacity: 0.62; stroke: #ffffff; stroke-opacity: 0.62; stroke-width: 0.5"/>
     <use xlink:href="#md4a8644ec1" x="178.162475" y="475.527891" style="fill: #5b6775; fill-opacity: 0.62; stroke: #ffffff; stroke-opacity: 0.62; stroke-width: 0.5"/>
     <use xlink:href="#md4a8644ec1" x="229.13291" y="434.814746" style="fill: #5b6775; fill-opacity: 0.62; stroke: #ffffff; stroke-opacity: 0.62; stroke-width: 0.5"/>
     <use xlink:href="#md4a8644ec1" x="421.121548" y="100.430036" style="fill: #5b6775; fill-opacity: 0.62; stroke: #ffffff; stroke-opacity: 0.62; stroke-width: 0.5"/>
     <use xlink:href="#md4a8644ec1" x="226.257654" y="463.598556" style="fill: #5b6775; fill-opacity: 0.62; stroke: #ffffff; stroke-opacity: 0.62; stroke-width: 0.5"/>
     <use xlink:href="#md4a8644ec1" x="286.768709" y="448.479991" style="fill: #5b6775; fill-opacity: 0.62; stroke: #ffffff; stroke-opacity: 0.62; stroke-width: 0.5"/>
     <use xlink:href="#md4a8644ec1" x="474.052384" y="103.477971" style="fill: #5b6775; fill-opacity: 0.62; stroke: #ffffff; stroke-opacity: 0.62; stroke-width: 0.5"/>
     <use xlink:href="#md4a8644ec1" x="293.172687" y="172.127156" style="fill: #5b6775; fill-opacity: 0.62; stroke: #ffffff; stroke-opacity: 0.62; stroke-width: 0.5"/>
     <use xlink:href="#md4a8644ec1" x="211.358604" y="402.619671" style="fill: #5b6775; fill-opacity: 0.62; stroke: #ffffff; stroke-opacity: 0.62; stroke-width: 0.5"/>
     <use xlink:href="#md4a8644ec1" x="200.641743" y="452.032551" style="fill: #5b6775; fill-opacity: 0.62; stroke: #ffffff; stroke-opacity: 0.62; stroke-width: 0.5"/>
     <use xlink:href="#md4a8644ec1" x="319.311371" y="418.242861" style="fill: #5b6775; fill-opacity: 0.62; stroke: #ffffff; stroke-opacity: 0.62; stroke-width: 0.5"/>
     <use xlink:href="#md4a8644ec1" x="592.852705" y="87.430896" style="fill: #5b6775; fill-opacity: 0.62; stroke: #ffffff; stroke-opacity: 0.62; stroke-width: 0.5"/>
     <use xlink:href="#md4a8644ec1" x="295.525168" y="450.680156" style="fill: #5b6775; fill-opacity: 0.62; stroke: #ffffff; stroke-opacity: 0.62; stroke-width: 0.5"/>
     <use xlink:href="#md4a8644ec1" x="379.822426" y="103.982596" style="fill: #5b6775; fill-opacity: 0.62; stroke: #ffffff; stroke-opacity: 0.62; stroke-width: 0.5"/>
     <use xlink:href="#md4a8644ec1" x="273.43798" y="134.361021" style="fill: #5b6775; fill-opacity: 0.62; stroke: #ffffff; stroke-opacity: 0.62; stroke-width: 0.5"/>
     <use xlink:href="#md4a8644ec1" x="303.758854" y="146.673871" style="fill: #5b6775; fill-opacity: 0.62; stroke: #ffffff; stroke-opacity: 0.62; stroke-width: 0.5"/>
     <use xlink:href="#md4a8644ec1" x="296.962796" y="398.078046" style="fill: #5b6775; fill-opacity: 0.62; stroke: #ffffff; stroke-opacity: 0.62; stroke-width: 0.5"/>
     <use xlink:href="#md4a8644ec1" x="473.13753" y="99.844671" style="fill: #5b6775; fill-opacity: 0.62; stroke: #ffffff; stroke-opacity: 0.62; stroke-width: 0.5"/>
     <use xlink:href="#md4a8644ec1" x="258.146849" y="428.234436" style="fill: #5b6775; fill-opacity: 0.62; stroke: #ffffff; stroke-opacity: 0.62; stroke-width: 0.5"/>
     <use xlink:href="#md4a8644ec1" x="218.808129" y="450.902191" style="fill: #5b6775; fill-opacity: 0.62; stroke: #ffffff; stroke-opacity: 0.62; stroke-width: 0.5"/>
     <use xlink:href="#md4a8644ec1" x="168.229774" y="437.196576" style="fill: #5b6775; fill-opacity: 0.62; stroke: #ffffff; stroke-opacity: 0.62; stroke-width: 0.5"/>
     <use xlink:href="#md4a8644ec1" x="402.955162" y="107.938856" style="fill: #5b6775; fill-opacity: 0.62; stroke: #ffffff; stroke-opacity: 0.62; stroke-width: 0.5"/>
     <use xlink:href="#md4a8644ec1" x="166.661453" y="445.290761" style="fill: #5b6775; fill-opacity: 0.62; stroke: #ffffff; stroke-opacity: 0.62; stroke-width: 0.5"/>
     <use xlink:href="#md4a8644ec1" x="188.617948" y="462.347086" style="fill: #5b6775; fill-opacity: 0.62; stroke: #ffffff; stroke-opacity: 0.62; stroke-width: 0.5"/>
     <use xlink:href="#md4a8644ec1" x="236.451741" y="425.529646" style="fill: #5b6775; fill-opacity: 0.62; stroke: #ffffff; stroke-opacity: 0.62; stroke-width: 0.5"/>
     <use xlink:href="#md4a8644ec1" x="78.70478" y="414.165491" style="fill: #5b6775; fill-opacity: 0.62; stroke: #ffffff; stroke-opacity: 0.62; stroke-width: 0.5"/>
     <use xlink:href="#md4a8644ec1" x="232.138858" y="389.983861" style="fill: #5b6775; fill-opacity: 0.62; stroke: #ffffff; stroke-opacity: 0.62; stroke-width: 0.5"/>
     <use xlink:href="#md4a8644ec1" x="202.863532" y="399.551551" style="fill: #5b6775; fill-opacity: 0.62; stroke: #ffffff; stroke-opacity: 0.62; stroke-width: 0.5"/>
     <use xlink:href="#md4a8644ec1" x="290.558818" y="413.297536" style="fill: #5b6775; fill-opacity: 0.62; stroke: #ffffff; stroke-opacity: 0.62; stroke-width: 0.5"/>
     <use xlink:href="#md4a8644ec1" x="363.224361" y="119.282826" style="fill: #5b6775; fill-opacity: 0.62; stroke: #ffffff; stroke-opacity: 0.62; stroke-width: 0.5"/>
     <use xlink:href="#md4a8644ec1" x="363.224361" y="144.271856" style="fill: #5b6775; fill-opacity: 0.62; stroke: #ffffff; stroke-opacity: 0.62; stroke-width: 0.5"/>
     <use xlink:href="#md4a8644ec1" x="363.224361" y="194.431581" style="fill: #5b6775; fill-opacity: 0.62; stroke: #ffffff; stroke-opacity: 0.62; stroke-width: 0.5"/>
     <use xlink:href="#md4a8644ec1" x="363.224361" y="151.114571" style="fill: #5b6775; fill-opacity: 0.62; stroke: #ffffff; stroke-opacity: 0.62; stroke-width: 0.5"/>
     <use xlink:href="#md4a8644ec1" x="127.453427" y="470.764231" style="fill: #5b6775; fill-opacity: 0.62; stroke: #ffffff; stroke-opacity: 0.62; stroke-width: 0.5"/>
     <use xlink:href="#md4a8644ec1" x="276.182542" y="462.811341" style="fill: #5b6775; fill-opacity: 0.62; stroke: #ffffff; stroke-opacity: 0.62; stroke-width: 0.5"/>
     <use xlink:href="#md4a8644ec1" x="186.00408" y="435.501036" style="fill: #5b6775; fill-opacity: 0.62; stroke: #ffffff; stroke-opacity: 0.62; stroke-width: 0.5"/>
     <use xlink:href="#md4a8644ec1" x="276.182542" y="106.424981" style="fill: #5b6775; fill-opacity: 0.62; stroke: #ffffff; stroke-opacity: 0.62; stroke-width: 0.5"/>
     <use xlink:href="#md4a8644ec1" x="92.296896" y="475.527891" style="fill: #5b6775; fill-opacity: 0.62; stroke: #ffffff; stroke-opacity: 0.62; stroke-width: 0.5"/>
     <use xlink:href="#md4a8644ec1" x="219.330903" y="181.896696" style="fill: #5b6775; fill-opacity: 0.62; stroke: #ffffff; stroke-opacity: 0.62; stroke-width: 0.5"/>
     <use xlink:href="#md4a8644ec1" x="368.974872" y="140.033006" style="fill: #5b6775; fill-opacity: 0.62; stroke: #ffffff; stroke-opacity: 0.62; stroke-width: 0.5"/>
     <use xlink:href="#md4a8644ec1" x="317.220277" y="99.340046" style="fill: #5b6775; fill-opacity: 0.62; stroke: #ffffff; stroke-opacity: 0.62; stroke-width: 0.5"/>
     <use xlink:href="#md4a8644ec1" x="368.974872" y="100.793366" style="fill: #5b6775; fill-opacity: 0.62; stroke: #ffffff; stroke-opacity: 0.62; stroke-width: 0.5"/>
     <use xlink:href="#md4a8644ec1" x="283.239987" y="110.724386" style="fill: #5b6775; fill-opacity: 0.62; stroke: #ffffff; stroke-opacity: 0.62; stroke-width: 0.5"/>
     <use xlink:href="#md4a8644ec1" x="225.212107" y="429.566646" style="fill: #5b6775; fill-opacity: 0.62; stroke: #ffffff; stroke-opacity: 0.62; stroke-width: 0.5"/>
     <use xlink:href="#md4a8644ec1" x="230.178457" y="381.748381" style="fill: #5b6775; fill-opacity: 0.62; stroke: #ffffff; stroke-opacity: 0.62; stroke-width: 0.5"/>
     <use xlink:href="#md4a8644ec1" x="546.979314" y="77.923761" style="fill: #5b6775; fill-opacity: 0.62; stroke: #ffffff; stroke-opacity: 0.62; stroke-width: 0.5"/>
     <use xlink:href="#md4a8644ec1" x="194.107072" y="433.260501" style="fill: #5b6775; fill-opacity: 0.62; stroke: #ffffff; stroke-opacity: 0.62; stroke-width: 0.5"/>
     <use xlink:href="#md4a8644ec1" x="277.881556" y="475.527891" style="fill: #5b6775; fill-opacity: 0.62; stroke: #ffffff; stroke-opacity: 0.62; stroke-width: 0.5"/>
     <use xlink:href="#md4a8644ec1" x="549.854569" y="91.165121" style="fill: #5b6775; fill-opacity: 0.62; stroke: #ffffff; stroke-opacity: 0.62; stroke-width: 0.5"/>
     <use xlink:href="#md4a8644ec1" x="713.613428" y="94.919531" style="fill: #5b6775; fill-opacity: 0.62; stroke: #ffffff; stroke-opacity: 0.62; stroke-width: 0.5"/>
     <use xlink:href="#md4a8644ec1" x="713.613428" y="103.013716" style="fill: #5b6775; fill-opacity: 0.62; stroke: #ffffff; stroke-opacity: 0.62; stroke-width: 0.5"/>
     <use xlink:href="#md4a8644ec1" x="650.227118" y="101.802616" style="fill: #5b6775; fill-opacity: 0.62; stroke: #ffffff; stroke-opacity: 0.62; stroke-width: 0.5"/>
     <use xlink:href="#md4a8644ec1" x="713.613428" y="113.530101" style="fill: #5b6775; fill-opacity: 0.62; stroke: #ffffff; stroke-opacity: 0.62; stroke-width: 0.5"/>
     <use xlink:href="#md4a8644ec1" x="713.613428" y="71.827891" style="fill: #5b6775; fill-opacity: 0.62; stroke: #ffffff; stroke-opacity: 0.62; stroke-width: 0.5"/>
     <use xlink:href="#md4a8644ec1" x="713.613428" y="104.386296" style="fill: #5b6775; fill-opacity: 0.62; stroke: #ffffff; stroke-opacity: 0.62; stroke-width: 0.5"/>
     <use xlink:href="#md4a8644ec1" x="411.319541" y="95.706746" style="fill: #5b6775; fill-opacity: 0.62; stroke: #ffffff; stroke-opacity: 0.62; stroke-width: 0.5"/>
     <use xlink:href="#md4a8644ec1" x="239.45769" y="397.391756" style="fill: #5b6775; fill-opacity: 0.62; stroke: #ffffff; stroke-opacity: 0.62; stroke-width: 0.5"/>
     <use xlink:href="#md4a8644ec1" x="440.464174" y="101.197066" style="fill: #5b6775; fill-opacity: 0.62; stroke: #ffffff; stroke-opacity: 0.62; stroke-width: 0.5"/>
     <use xlink:href="#md4a8644ec1" x="325.323269" y="101.277806" style="fill: #5b6775; fill-opacity: 0.62; stroke: #ffffff; stroke-opacity: 0.62; stroke-width: 0.5"/>
     <use xlink:href="#md4a8644ec1" x="364.792682" y="98.290426" style="fill: #5b6775; fill-opacity: 0.62; stroke: #ffffff; stroke-opacity: 0.62; stroke-width: 0.5"/>
     <use xlink:href="#md4a8644ec1" x="331.727246" y="87.491451" style="fill: #5b6775; fill-opacity: 0.62; stroke: #ffffff; stroke-opacity: 0.62; stroke-width: 0.5"/>
     <use xlink:href="#md4a8644ec1" x="310.162832" y="71.827891" style="fill: #5b6775; fill-opacity: 0.62; stroke: #ffffff; stroke-opacity: 0.62; stroke-width: 0.5"/>
     <use xlink:href="#md4a8644ec1" x="162.871344" y="407.100741" style="fill: #5b6775; fill-opacity: 0.62; stroke: #ffffff; stroke-opacity: 0.62; stroke-width: 0.5"/>
     <use xlink:href="#md4a8644ec1" x="285.592468" y="409.422016" style="fill: #5b6775; fill-opacity: 0.62; stroke: #ffffff; stroke-opacity: 0.62; stroke-width: 0.5"/>
     <use xlink:href="#md4a8644ec1" x="234.752727" y="414.064566" style="fill: #5b6775; fill-opacity: 0.62; stroke: #ffffff; stroke-opacity: 0.62; stroke-width: 0.5"/>
     <use xlink:href="#md4a8644ec1" x="230.701231" y="411.016631" style="fill: #5b6775; fill-opacity: 0.62; stroke: #ffffff; stroke-opacity: 0.62; stroke-width: 0.5"/>
     <use xlink:href="#md4a8644ec1" x="335.648049" y="107.676451" style="fill: #5b6775; fill-opacity: 0.62; stroke: #ffffff; stroke-opacity: 0.62; stroke-width: 0.5"/>
     <use xlink:href="#md4a8644ec1" x="335.648049" y="102.973346" style="fill: #5b6775; fill-opacity: 0.62; stroke: #ffffff; stroke-opacity: 0.62; stroke-width: 0.5"/>
     <use xlink:href="#md4a8644ec1" x="350.677793" y="74.391386" style="fill: #5b6775; fill-opacity: 0.62; stroke: #ffffff; stroke-opacity: 0.62; stroke-width: 0.5"/>
     <use xlink:href="#md4a8644ec1" x="211.750684" y="409.341276" style="fill: #5b6775; fill-opacity: 0.62; stroke: #ffffff; stroke-opacity: 0.62; stroke-width: 0.5"/>
     <use xlink:href="#md4a8644ec1" x="169.928789" y="412.914021" style="fill: #5b6775; fill-opacity: 0.62; stroke: #ffffff; stroke-opacity: 0.62; stroke-width: 0.5"/>
     <use xlink:href="#md4a8644ec1" x="352.768888" y="98.835421" style="fill: #5b6775; fill-opacity: 0.62; stroke: #ffffff; stroke-opacity: 0.62; stroke-width: 0.5"/>
     <use xlink:href="#md4a8644ec1" x="433.276036" y="158.502281" style="fill: #5b6775; fill-opacity: 0.62; stroke: #ffffff; stroke-opacity: 0.62; stroke-width: 0.5"/>
     <use xlink:href="#md4a8644ec1" x="433.276036" y="124.995181" style="fill: #5b6775; fill-opacity: 0.62; stroke: #ffffff; stroke-opacity: 0.62; stroke-width: 0.5"/>
     <use xlink:href="#md4a8644ec1" x="347.410457" y="84.423331" style="fill: #5b6775; fill-opacity: 0.62; stroke: #ffffff; stroke-opacity: 0.62; stroke-width: 0.5"/>
     <use xlink:href="#md4a8644ec1" x="301.537066" y="115.064161" style="fill: #5b6775; fill-opacity: 0.62; stroke: #ffffff; stroke-opacity: 0.62; stroke-width: 0.5"/>
     <use xlink:href="#md4a8644ec1" x="294.741008" y="403.750031" style="fill: #5b6775; fill-opacity: 0.62; stroke: #ffffff; stroke-opacity: 0.62; stroke-width: 0.5"/>
     <use xlink:href="#md4a8644ec1" x="384.527389" y="84.423331" style="fill: #5b6775; fill-opacity: 0.62; stroke: #ffffff; stroke-opacity: 0.62; stroke-width: 0.5"/>
     <use xlink:href="#md4a8644ec1" x="384.527389" y="125.055736" style="fill: #5b6775; fill-opacity: 0.62; stroke: #ffffff; stroke-opacity: 0.62; stroke-width: 0.5"/>
     <use xlink:href="#md4a8644ec1" x="226.388348" y="405.485941" style="fill: #5b6775; fill-opacity: 0.62; stroke: #ffffff; stroke-opacity: 0.62; stroke-width: 0.5"/>
     <use xlink:href="#md4a8644ec1" x="262.721119" y="398.744151" style="fill: #5b6775; fill-opacity: 0.62; stroke: #ffffff; stroke-opacity: 0.62; stroke-width: 0.5"/>
     <use xlink:href="#md4a8644ec1" x="627.094382" y="95.605821" style="fill: #5b6775; fill-opacity: 0.62; stroke: #ffffff; stroke-opacity: 0.62; stroke-width: 0.5"/>
     <use xlink:href="#md4a8644ec1" x="305.849949" y="395.978806" style="fill: #5b6775; fill-opacity: 0.62; stroke: #ffffff; stroke-opacity: 0.62; stroke-width: 0.5"/>
     <use xlink:href="#md4a8644ec1" x="627.094382" y="103.074271" style="fill: #5b6775; fill-opacity: 0.62; stroke: #ffffff; stroke-opacity: 0.62; stroke-width: 0.5"/>
     <use xlink:href="#md4a8644ec1" x="627.094382" y="102.125576" style="fill: #5b6775; fill-opacity: 0.62; stroke: #ffffff; stroke-opacity: 0.62; stroke-width: 0.5"/>
     <use xlink:href="#md4a8644ec1" x="627.094382" y="88.662181" style="fill: #5b6775; fill-opacity: 0.62; stroke: #ffffff; stroke-opacity: 0.62; stroke-width: 0.5"/>
     <use xlink:href="#md4a8644ec1" x="627.094382" y="84.160926" style="fill: #5b6775; fill-opacity: 0.62; stroke: #ffffff; stroke-opacity: 0.62; stroke-width: 0.5"/>
     <use xlink:href="#md4a8644ec1" x="627.094382" y="87.208861" style="fill: #5b6775; fill-opacity: 0.62; stroke: #ffffff; stroke-opacity: 0.62; stroke-width: 0.5"/>
     <use xlink:href="#md4a8644ec1" x="140.653462" y="426.982966" style="fill: #5b6775; fill-opacity: 0.62; stroke: #ffffff; stroke-opacity: 0.62; stroke-width: 0.5"/>
     <use xlink:href="#md4a8644ec1" x="371.980821" y="111.955671" style="fill: #5b6775; fill-opacity: 0.62; stroke: #ffffff; stroke-opacity: 0.62; stroke-width: 0.5"/>
     <use xlink:href="#md4a8644ec1" x="423.996803" y="103.881671" style="fill: #5b6775; fill-opacity: 0.62; stroke: #ffffff; stroke-opacity: 0.62; stroke-width: 0.5"/>
     <use xlink:href="#md4a8644ec1" x="340.091626" y="71.827891" style="fill: #5b6775; fill-opacity: 0.62; stroke: #ffffff; stroke-opacity: 0.62; stroke-width: 0.5"/>
     <use xlink:href="#md4a8644ec1" x="391.846221" y="94.495646" style="fill: #5b6775; fill-opacity: 0.62; stroke: #ffffff; stroke-opacity: 0.62; stroke-width: 0.5"/>
     <use xlink:href="#md4a8644ec1" x="485.292018" y="116.154151" style="fill: #5b6775; fill-opacity: 0.62; stroke: #ffffff; stroke-opacity: 0.62; stroke-width: 0.5"/>
     <use xlink:href="#md4a8644ec1" x="446.737459" y="103.296306" style="fill: #5b6775; fill-opacity: 0.62; stroke: #ffffff; stroke-opacity: 0.62; stroke-width: 0.5"/>
     <use xlink:href="#md4a8644ec1" x="335.648049" y="102.872421" style="fill: #5b6775; fill-opacity: 0.62; stroke: #ffffff; stroke-opacity: 0.62; stroke-width: 0.5"/>
     <use xlink:href="#md4a8644ec1" x="358.911478" y="99.784116" style="fill: #5b6775; fill-opacity: 0.62; stroke: #ffffff; stroke-opacity: 0.62; stroke-width: 0.5"/>
     <use xlink:href="#md4a8644ec1" x="446.737459" y="84.786661" style="fill: #5b6775; fill-opacity: 0.62; stroke: #ffffff; stroke-opacity: 0.62; stroke-width: 0.5"/>
     <use xlink:href="#md4a8644ec1" x="262.982506" y="401.872826" style="fill: #5b6775; fill-opacity: 0.62; stroke: #ffffff; stroke-opacity: 0.62; stroke-width: 0.5"/>
     <use xlink:href="#md4a8644ec1" x="428.440379" y="106.687386" style="fill: #5b6775; fill-opacity: 0.62; stroke: #ffffff; stroke-opacity: 0.62; stroke-width: 0.5"/>
     <use xlink:href="#md4a8644ec1" x="452.618663" y="98.673941" style="fill: #5b6775; fill-opacity: 0.62; stroke: #ffffff; stroke-opacity: 0.62; stroke-width: 0.5"/>
     <use xlink:href="#md4a8644ec1" x="445.953298" y="100.450221" style="fill: #5b6775; fill-opacity: 0.62; stroke: #ffffff; stroke-opacity: 0.62; stroke-width: 0.5"/>
     <use xlink:href="#md4a8644ec1" x="445.953298" y="93.506581" style="fill: #5b6775; fill-opacity: 0.62; stroke: #ffffff; stroke-opacity: 0.62; stroke-width: 0.5"/>
     <use xlink:href="#md4a8644ec1" x="445.953298" y="103.437601" style="fill: #5b6775; fill-opacity: 0.62; stroke: #ffffff; stroke-opacity: 0.62; stroke-width: 0.5"/>
     <use xlink:href="#md4a8644ec1" x="445.953298" y="96.372851" style="fill: #5b6775; fill-opacity: 0.62; stroke: #ffffff; stroke-opacity: 0.62; stroke-width: 0.5"/>
     <use xlink:href="#md4a8644ec1" x="445.953298" y="101.742061" style="fill: #5b6775; fill-opacity: 0.62; stroke: #ffffff; stroke-opacity: 0.62; stroke-width: 0.5"/>
     <use xlink:href="#md4a8644ec1" x="357.865931" y="409.139426" style="fill: #5b6775; fill-opacity: 0.62; stroke: #ffffff; stroke-opacity: 0.62; stroke-width: 0.5"/>
     <use xlink:href="#md4a8644ec1" x="310.685605" y="161.731881" style="fill: #5b6775; fill-opacity: 0.62; stroke: #ffffff; stroke-opacity: 0.62; stroke-width: 0.5"/>
     <use xlink:href="#md4a8644ec1" x="310.685605" y="145.159996" style="fill: #5b6775; fill-opacity: 0.62; stroke: #ffffff; stroke-opacity: 0.62; stroke-width: 0.5"/>
    </g>
   </g>
   <g id="patch_7">
    <path d="M 435.284793 450.680156 
Q 366.405152 450.680156 297.525512 450.680156 
" style="fill: none; stroke: #0f2a4a; stroke-width: 0.9; stroke-linecap: round"/>
   </g>
   <g id="text_14">
    <!-- Steve Weir (55th District) -->
    <g style="fill: #0f2a4a" transform="translate(439.287933 453.991406) scale(0.12 -0.12)">
     <defs>
      <path id="DejaVuSans-Bold-53" d="M 3834 4519 
L 3834 3531 
Q 3450 3703 3084 3790 
Q 2719 3878 2394 3878 
Q 1963 3878 1756 3759 
Q 1550 3641 1550 3391 
Q 1550 3203 1689 3098 
Q 1828 2994 2194 2919 
L 2706 2816 
Q 3484 2659 3812 2340 
Q 4141 2022 4141 1434 
Q 4141 663 3683 286 
Q 3225 -91 2284 -91 
Q 1841 -91 1394 -6 
Q 947 78 500 244 
L 500 1259 
Q 947 1022 1364 901 
Q 1781 781 2169 781 
Q 2563 781 2772 912 
Q 2981 1044 2981 1288 
Q 2981 1506 2839 1625 
Q 2697 1744 2272 1838 
L 1806 1941 
Q 1106 2091 782 2419 
Q 459 2747 459 3303 
Q 459 4000 909 4375 
Q 1359 4750 2203 4750 
Q 2588 4750 2994 4692 
Q 3400 4634 3834 4519 
z
" transform="scale(0.015625)"/>
      <path id="DejaVuSans-Bold-74" d="M 1759 4494 
L 1759 3500 
L 2913 3500 
L 2913 2700 
L 1759 2700 
L 1759 1216 
Q 1759 972 1856 886 
Q 1953 800 2241 800 
L 2816 800 
L 2816 0 
L 1856 0 
Q 1194 0 917 276 
Q 641 553 641 1216 
L 641 2700 
L 84 2700 
L 84 3500 
L 641 3500 
L 641 4494 
L 1759 4494 
z
" transform="scale(0.015625)"/>
      <path id="DejaVuSans-Bold-65" d="M 4031 1759 
L 4031 1441 
L 1416 1441 
Q 1456 1047 1700 850 
Q 1944 653 2381 653 
Q 2734 653 3104 758 
Q 3475 863 3866 1075 
L 3866 213 
Q 3469 63 3072 -14 
Q 2675 -91 2278 -91 
Q 1328 -91 801 392 
Q 275 875 275 1747 
Q 275 2603 792 3093 
Q 1309 3584 2216 3584 
Q 3041 3584 3536 3087 
Q 4031 2591 4031 1759 
z
M 2881 2131 
Q 2881 2450 2695 2645 
Q 2509 2841 2209 2841 
Q 1884 2841 1681 2658 
Q 1478 2475 1428 2131 
L 2881 2131 
z
" transform="scale(0.015625)"/>
      <path id="DejaVuSans-Bold-76" d="M 97 3500 
L 1216 3500 
L 2088 1081 
L 2956 3500 
L 4078 3500 
L 2700 0 
L 1472 0 
L 97 3500 
z
" transform="scale(0.015625)"/>
      <path id="DejaVuSans-Bold-20" transform="scale(0.015625)"/>
      <path id="DejaVuSans-Bold-57" d="M 191 4666 
L 1344 4666 
L 2150 1275 
L 2950 4666 
L 4109 4666 
L 4909 1275 
L 5716 4666 
L 6859 4666 
L 5759 0 
L 4372 0 
L 3525 3547 
L 2688 0 
L 1300 0 
L 191 4666 
z
" transform="scale(0.015625)"/>
      <path id="DejaVuSans-Bold-69" d="M 538 3500 
L 1656 3500 
L 1656 0 
L 538 0 
L 538 3500 
z
M 538 4863 
L 1656 4863 
L 1656 3950 
L 538 3950 
L 538 4863 
z
" transform="scale(0.015625)"/>
      <path id="DejaVuSans-Bold-72" d="M 3138 2547 
Q 2991 2616 2845 2648 
Q 2700 2681 2553 2681 
Q 2122 2681 1889 2404 
Q 1656 2128 1656 1613 
L 1656 0 
L 538 0 
L 538 3500 
L 1656 3500 
L 1656 2925 
Q 1872 3269 2151 3426 
Q 2431 3584 2822 3584 
Q 2878 3584 2943 3579 
Q 3009 3575 3134 3559 
L 3138 2547 
z
" transform="scale(0.015625)"/>
      <path id="DejaVuSans-Bold-28" d="M 2413 -844 
L 1484 -844 
Q 1006 -72 778 623 
Q 550 1319 550 2003 
Q 550 2688 779 3389 
Q 1009 4091 1484 4856 
L 2413 4856 
Q 2013 4116 1813 3408 
Q 1613 2700 1613 2009 
Q 1613 1319 1811 609 
Q 2009 -100 2413 -844 
z
" transform="scale(0.015625)"/>
      <path id="DejaVuSans-Bold-35" d="M 678 4666 
L 3669 4666 
L 3669 3781 
L 1638 3781 
L 1638 3059 
Q 1775 3097 1914 3117 
Q 2053 3138 2203 3138 
Q 3056 3138 3531 2711 
Q 4006 2284 4006 1522 
Q 4006 766 3489 337 
Q 2972 -91 2053 -91 
Q 1656 -91 1267 -14 
Q 878 63 494 219 
L 494 1166 
Q 875 947 1217 837 
Q 1559 728 1863 728 
Q 2300 728 2551 942 
Q 2803 1156 2803 1522 
Q 2803 1891 2551 2103 
Q 2300 2316 1863 2316 
Q 1603 2316 1309 2248 
Q 1016 2181 678 2041 
L 678 4666 
z
" transform="scale(0.015625)"/>
      <path id="DejaVuSans-Bold-68" d="M 4056 2131 
L 4056 0 
L 2931 0 
L 2931 347 
L 2931 1625 
Q 2931 2084 2911 2256 
Q 2891 2428 2841 2509 
Q 2775 2619 2662 2680 
Q 2550 2741 2406 2741 
Q 2056 2741 1856 2470 
Q 1656 2200 1656 1722 
L 1656 0 
L 538 0 
L 538 4863 
L 1656 4863 
L 1656 2988 
Q 1909 3294 2193 3439 
Q 2478 3584 2822 3584 
Q 3428 3584 3742 3212 
Q 4056 2841 4056 2131 
z
" transform="scale(0.015625)"/>
      <path id="DejaVuSans-Bold-44" d="M 1791 3756 
L 1791 909 
L 2222 909 
Q 2959 909 3348 1275 
Q 3738 1641 3738 2338 
Q 3738 3031 3350 3393 
Q 2963 3756 2222 3756 
L 1791 3756 
z
M 588 4666 
L 1856 4666 
Q 2919 4666 3439 4514 
Q 3959 4363 4331 4000 
Q 4659 3684 4818 3271 
Q 4978 2859 4978 2338 
Q 4978 1809 4818 1395 
Q 4659 981 4331 666 
Q 3956 303 3431 151 
Q 2906 0 1856 0 
L 588 0 
L 588 4666 
z
" transform="scale(0.015625)"/>
      <path id="DejaVuSans-Bold-73" d="M 3272 3391 
L 3272 2541 
Q 2913 2691 2578 2766 
Q 2244 2841 1947 2841 
Q 1628 2841 1473 2761 
Q 1319 2681 1319 2516 
Q 1319 2381 1436 2309 
Q 1553 2238 1856 2203 
L 2053 2175 
Q 2913 2066 3209 1816 
Q 3506 1566 3506 1031 
Q 3506 472 3093 190 
Q 2681 -91 1863 -91 
Q 1516 -91 1145 -36 
Q 775 19 384 128 
L 384 978 
Q 719 816 1070 734 
Q 1422 653 1784 653 
Q 2113 653 2278 743 
Q 2444 834 2444 1013 
Q 2444 1163 2330 1236 
Q 2216 1309 1875 1350 
L 1678 1375 
Q 931 1469 631 1722 
Q 331 1975 331 2491 
Q 331 3047 712 3315 
Q 1094 3584 1881 3584 
Q 2191 3584 2531 3537 
Q 2872 3491 3272 3391 
z
" transform="scale(0.015625)"/>
      <path id="DejaVuSans-Bold-63" d="M 3366 3391 
L 3366 2478 
Q 3138 2634 2908 2709 
Q 2678 2784 2431 2784 
Q 1963 2784 1702 2511 
Q 1441 2238 1441 1747 
Q 1441 1256 1702 982 
Q 1963 709 2431 709 
Q 2694 709 2930 787 
Q 3166 866 3366 1019 
L 3366 103 
Q 3103 6 2833 -42 
Q 2563 -91 2291 -91 
Q 1344 -91 809 395 
Q 275 881 275 1747 
Q 275 2613 809 3098 
Q 1344 3584 2291 3584 
Q 2566 3584 2833 3536 
Q 3100 3488 3366 3391 
z
" transform="scale(0.015625)"/>
      <path id="DejaVuSans-Bold-29" d="M 513 -844 
Q 913 -100 1113 609 
Q 1313 1319 1313 2009 
Q 1313 2700 1113 3408 
Q 913 4116 513 4856 
L 1441 4856 
Q 1916 4091 2145 3389 
Q 2375 2688 2375 2003 
Q 2375 1319 2147 623 
Q 1919 -72 1441 -844 
L 513 -844 
z
" transform="scale(0.015625)"/>
     </defs>
     <use xlink:href="#DejaVuSans-Bold-53"/>
     <use xlink:href="#DejaVuSans-Bold-74" transform="translate(72.021484 0)"/>
     <use xlink:href="#DejaVuSans-Bold-65" transform="translate(119.824219 0)"/>
     <use xlink:href="#DejaVuSans-Bold-76" transform="translate(187.646484 0)"/>
     <use xlink:href="#DejaVuSans-Bold-65" transform="translate(252.832031 0)"/>
     <use xlink:href="#DejaVuSans-Bold-20" transform="translate(320.654297 0)"/>
     <use xlink:href="#DejaVuSans-Bold-57" transform="translate(355.46875 0)"/>
     <use xlink:href="#DejaVuSans-Bold-65" transform="translate(462.146484 0)"/>
     <use xlink:href="#DejaVuSans-Bold-69" transform="translate(529.96875 0)"/>
     <use xlink:href="#DejaVuSans-Bold-72" transform="translate(564.246094 0)"/>
     <use xlink:href="#DejaVuSans-Bold-20" transform="translate(613.5625 0)"/>
     <use xlink:href="#DejaVuSans-Bold-28" transform="translate(648.376953 0)"/>
     <use xlink:href="#DejaVuSans-Bold-35" transform="translate(694.080078 0)"/>
     <use xlink:href="#DejaVuSans-Bold-35" transform="translate(763.660156 0)"/>
     <use xlink:href="#DejaVuSans-Bold-74" transform="translate(833.240234 0)"/>
     <use xlink:href="#DejaVuSans-Bold-68" transform="translate(881.042969 0)"/>
     <use xlink:href="#DejaVuSans-Bold-20" transform="translate(952.234375 0)"/>
     <use xlink:href="#DejaVuSans-Bold-44" transform="translate(987.048828 0)"/>
     <use xlink:href="#DejaVuSans-Bold-69" transform="translate(1070.056641 0)"/>
     <use xlink:href="#DejaVuSans-Bold-73" transform="translate(1104.333984 0)"/>
     <use xlink:href="#DejaVuSans-Bold-74" transform="translate(1163.855469 0)"/>
     <use xlink:href="#DejaVuSans-Bold-72" transform="translate(1211.658203 0)"/>
     <use xlink:href="#DejaVuSans-Bold-69" transform="translate(1260.974609 0)"/>
     <use xlink:href="#DejaVuSans-Bold-63" transform="translate(1295.251953 0)"/>
     <use xlink:href="#DejaVuSans-Bold-74" transform="translate(1354.529297 0)"/>
     <use xlink:href="#DejaVuSans-Bold-29" transform="translate(1402.332031 0)"/>
    </g>
   </g>
   <g id="text_15">
    <!-- even -->
    <g style="fill: #aab6c4" transform="translate(226.757435 508.178641) scale(0.08 -0.08)">
     <use xlink:href="#DejaVuSans-65"/>
     <use xlink:href="#DejaVuSans-76" transform="translate(61.523438 0)"/>
     <use xlink:href="#DejaVuSans-65" transform="translate(120.703125 0)"/>
     <use xlink:href="#DejaVuSans-6e" transform="translate(182.226562 0)"/>
    </g>
   </g>
   <g id="text_16">
    <!-- Connecticut House: district lean vs. how the representative votes -->
    <g style="fill: #0f2a4a" transform="translate(164.612227 17.457891) scale(0.135 -0.135)">
     <defs>
      <path id="DejaVuSerif-Bold-43" d="M 4769 1331 
Q 4584 609 4106 259 
Q 3628 -91 2822 -91 
Q 1641 -91 955 561 
Q 269 1213 269 2328 
Q 269 3447 955 4098 
Q 1641 4750 2822 4750 
Q 3238 4750 3688 4650 
Q 4138 4550 4641 4347 
L 4641 3200 
L 4244 3200 
Q 4122 3788 3800 4080 
Q 3478 4372 2950 4372 
Q 2269 4372 1937 3870 
Q 1606 3369 1606 2328 
Q 1606 1288 1937 788 
Q 2269 288 2956 288 
Q 3422 288 3717 547 
Q 4013 806 4147 1331 
L 4769 1331 
z
" transform="scale(0.015625)"/>
      <path id="DejaVuSerif-Bold-6f" d="M 2138 263 
Q 2488 263 2630 563 
Q 2772 863 2772 1663 
Q 2772 2463 2631 2761 
Q 2491 3059 2138 3059 
Q 1784 3059 1640 2757 
Q 1497 2456 1497 1663 
Q 1497 869 1640 566 
Q 1784 263 2138 263 
z
M 2138 -91 
Q 1259 -91 761 376 
Q 263 844 263 1663 
Q 263 2484 761 2948 
Q 1259 3413 2138 3413 
Q 3019 3413 3516 2948 
Q 4013 2484 4013 1663 
Q 4013 844 3514 376 
Q 3016 -91 2138 -91 
z
" transform="scale(0.015625)"/>
      <path id="DejaVuSerif-Bold-6e" d="M 219 0 
L 219 378 
L 691 378 
L 691 2944 
L 219 2944 
L 219 3322 
L 1797 3322 
L 1797 2853 
Q 1997 3150 2253 3281 
Q 2509 3413 2900 3413 
Q 3459 3413 3745 3083 
Q 4031 2753 4031 2113 
L 4031 378 
L 4506 378 
L 4506 0 
L 2522 0 
L 2522 378 
L 2925 378 
L 2925 2144 
Q 2925 2566 2817 2730 
Q 2709 2894 2444 2894 
Q 2109 2894 1953 2648 
Q 1797 2403 1797 1869 
L 1797 378 
L 2203 378 
L 2203 0 
L 219 0 
z
" transform="scale(0.015625)"/>
      <path id="DejaVuSerif-Bold-65" d="M 2566 1875 
Q 2566 2531 2444 2795 
Q 2322 3059 2028 3059 
Q 1744 3059 1620 2800 
Q 1497 2541 1497 1931 
L 1497 1875 
L 2566 1875 
z
M 3781 1503 
L 1497 1503 
L 1497 1478 
Q 1497 834 1690 548 
Q 1884 263 2316 263 
Q 2675 263 2897 453 
Q 3119 644 3181 1006 
L 3700 1006 
Q 3566 441 3166 175 
Q 2766 -91 2047 -91 
Q 1184 -91 723 364 
Q 263 819 263 1663 
Q 263 2488 734 2950 
Q 1206 3413 2047 3413 
Q 2872 3413 3312 2927 
Q 3753 2441 3781 1503 
z
" transform="scale(0.015625)"/>
      <path id="DejaVuSerif-Bold-63" d="M 3609 1038 
Q 3491 469 3123 189 
Q 2756 -91 2125 -91 
Q 1238 -91 750 368 
Q 263 828 263 1663 
Q 263 2488 744 2950 
Q 1225 3413 2081 3413 
Q 2428 3413 2781 3347 
Q 3134 3281 3500 3150 
L 3500 2228 
L 3150 2228 
Q 3100 2650 2903 2854 
Q 2706 3059 2350 3059 
Q 1888 3059 1692 2746 
Q 1497 2434 1497 1663 
Q 1497 909 1687 586 
Q 1878 263 2309 263 
Q 2644 263 2845 463 
Q 3047 663 3091 1038 
L 3609 1038 
z
" transform="scale(0.015625)"/>
      <path id="DejaVuSerif-Bold-74" d="M 634 2944 
L 153 2944 
L 153 3322 
L 634 3322 
L 634 4353 
L 1741 4353 
L 1741 3322 
L 2663 3322 
L 2663 2944 
L 1741 2944 
L 1741 909 
Q 1741 475 1809 369 
Q 1878 263 2059 263 
Q 2259 263 2356 397 
Q 2453 531 2459 813 
L 2925 813 
Q 2897 313 2651 111 
Q 2406 -91 1806 -91 
Q 1122 -91 878 123 
Q 634 338 634 909 
L 634 2944 
z
" transform="scale(0.015625)"/>
      <path id="DejaVuSerif-Bold-69" d="M 588 4263 
Q 588 4516 763 4689 
Q 938 4863 1191 4863 
Q 1438 4863 1611 4689 
Q 1784 4516 1784 4263 
Q 1784 4016 1611 3842 
Q 1438 3669 1191 3669 
Q 938 3669 763 3841 
Q 588 4013 588 4263 
z
M 1797 378 
L 2272 378 
L 2272 0 
L 219 0 
L 219 378 
L 691 378 
L 691 2944 
L 219 2944 
L 219 3322 
L 1797 3322 
L 1797 378 
z
" transform="scale(0.015625)"/>
      <path id="DejaVuSerif-Bold-75" d="M 3963 3322 
L 3963 378 
L 4434 378 
L 4434 0 
L 2853 0 
L 2853 469 
Q 2656 172 2400 40 
Q 2144 -91 1753 -91 
Q 1194 -91 908 239 
Q 622 569 622 1209 
L 622 2944 
L 147 2944 
L 147 3322 
L 1728 3322 
L 1728 1381 
Q 1728 763 1831 595 
Q 1934 428 2209 428 
Q 2544 428 2698 675 
Q 2853 922 2853 1459 
L 2853 2944 
L 2450 2944 
L 2450 3322 
L 3963 3322 
z
" transform="scale(0.015625)"/>
      <path id="DejaVuSerif-Bold-20" transform="scale(0.015625)"/>
      <path id="DejaVuSerif-Bold-48" d="M 300 0 
L 300 378 
L 897 378 
L 897 4288 
L 300 4288 
L 300 4666 
L 2700 4666 
L 2700 4288 
L 2100 4288 
L 2100 2719 
L 3956 2719 
L 3956 4288 
L 3359 4288 
L 3359 4666 
L 5759 4666 
L 5759 4288 
L 5159 4288 
L 5159 378 
L 5759 378 
L 5759 0 
L 3359 0 
L 3359 378 
L 3956 378 
L 3956 2291 
L 2100 2291 
L 2100 378 
L 2700 378 
L 2700 0 
L 300 0 
z
" transform="scale(0.015625)"/>
      <path id="DejaVuSerif-Bold-73" d="M 300 97 
L 300 1025 
L 653 1025 
Q 697 653 931 458 
Q 1166 263 1569 263 
Q 1906 263 2086 380 
Q 2266 497 2266 716 
Q 2266 916 2152 1025 
Q 2038 1134 1709 1216 
L 1253 1331 
Q 738 1459 506 1698 
Q 275 1938 275 2344 
Q 275 2884 650 3148 
Q 1025 3413 1806 3413 
Q 2100 3413 2433 3364 
Q 2766 3316 3169 3213 
L 3169 2375 
L 2816 2375 
Q 2788 2716 2573 2887 
Q 2359 3059 1959 3059 
Q 1622 3059 1448 2951 
Q 1275 2844 1275 2638 
Q 1275 2469 1375 2372 
Q 1475 2275 1734 2209 
L 2188 2094 
Q 2841 1928 3091 1684 
Q 3341 1441 3341 1006 
Q 3341 444 2939 176 
Q 2538 -91 1691 -91 
Q 1381 -91 1034 -44 
Q 688 3 300 97 
z
" transform="scale(0.015625)"/>
      <path id="DejaVuSerif-Bold-3a" d="M 588 2541 
Q 588 2788 761 2963 
Q 934 3138 1178 3138 
Q 1422 3138 1597 2961 
Q 1772 2784 1772 2541 
Q 1772 2297 1598 2125 
Q 1425 1953 1178 1953 
Q 931 1953 759 2125 
Q 588 2297 588 2541 
z
M 588 506 
Q 588 750 761 925 
Q 934 1100 1178 1100 
Q 1422 1100 1597 925 
Q 1772 750 1772 506 
Q 1772 259 1597 84 
Q 1422 -91 1178 -91 
Q 934 -91 761 84 
Q 588 259 588 506 
z
" transform="scale(0.015625)"/>
      <path id="DejaVuSerif-Bold-64" d="M 2747 1497 
L 2747 1825 
Q 2747 2406 2597 2665 
Q 2447 2925 2119 2925 
Q 1775 2925 1636 2651 
Q 1497 2378 1497 1663 
Q 1497 947 1637 672 
Q 1778 397 2119 397 
Q 2447 397 2597 656 
Q 2747 916 2747 1497 
z
M 3853 378 
L 4325 378 
L 4325 0 
L 2747 0 
L 2747 422 
Q 2606 163 2367 36 
Q 2128 -91 1778 -91 
Q 1072 -91 667 378 
Q 263 847 263 1663 
Q 263 2481 667 2947 
Q 1072 3413 1778 3413 
Q 2128 3413 2367 3286 
Q 2606 3159 2747 2900 
L 2747 4488 
L 2272 4488 
L 2272 4863 
L 3853 4863 
L 3853 378 
z
" transform="scale(0.015625)"/>
      <path id="DejaVuSerif-Bold-72" d="M 3438 3359 
L 3438 2369 
L 3084 2369 
Q 3066 2634 2941 2764 
Q 2816 2894 2578 2894 
Q 2216 2894 2006 2575 
Q 1797 2256 1797 1691 
L 1797 378 
L 2400 378 
L 2400 0 
L 219 0 
L 219 378 
L 691 378 
L 691 2944 
L 184 2944 
L 184 3322 
L 1797 3322 
L 1797 2731 
Q 1959 3078 2226 3245 
Q 2494 3413 2881 3413 
Q 2978 3413 3117 3398 
Q 3256 3384 3438 3359 
z
" transform="scale(0.015625)"/>
      <path id="DejaVuSerif-Bold-6c" d="M 1797 378 
L 2272 378 
L 2272 0 
L 219 0 
L 219 378 
L 691 378 
L 691 4488 
L 219 4488 
L 219 4863 
L 1797 4863 
L 1797 378 
z
" transform="scale(0.015625)"/>
      <path id="DejaVuSerif-Bold-61" d="M 3525 2041 
L 3525 378 
L 4000 378 
L 4000 0 
L 2419 0 
L 2419 422 
Q 2200 159 1931 34 
Q 1663 -91 1319 -91 
Q 809 -91 536 182 
Q 263 456 263 966 
Q 263 1525 655 1803 
Q 1047 2081 1838 2081 
L 2419 2081 
L 2419 2278 
Q 2419 2681 2228 2873 
Q 2038 3066 1638 3066 
Q 1306 3066 1126 2930 
Q 947 2794 872 2484 
L 519 2484 
L 519 3200 
Q 816 3306 1134 3359 
Q 1453 3413 1806 3413 
Q 2697 3413 3111 3081 
Q 3525 2750 3525 2041 
z
M 2419 1044 
L 2419 1709 
L 2003 1709 
Q 1694 1709 1528 1540 
Q 1363 1372 1363 1056 
Q 1363 741 1483 584 
Q 1603 428 1850 428 
Q 2106 428 2262 597 
Q 2419 766 2419 1044 
z
" transform="scale(0.015625)"/>
      <path id="DejaVuSerif-Bold-76" d="M 1428 0 
L 250 2944 
L -116 2944 
L -116 3322 
L 1791 3322 
L 1791 2944 
L 1388 2944 
L 2228 844 
L 3066 2944 
L 2631 2944 
L 2631 3322 
L 3878 3322 
L 3878 2944 
L 3494 2944 
L 2316 0 
L 1428 0 
z
" transform="scale(0.015625)"/>
      <path id="DejaVuSerif-Bold-2e" d="M 519 506 
Q 519 750 694 925 
Q 869 1100 1113 1100 
Q 1359 1100 1534 925 
Q 1709 750 1709 506 
Q 1709 259 1534 84 
Q 1359 -91 1113 -91 
Q 869 -91 694 84 
Q 519 259 519 506 
z
" transform="scale(0.015625)"/>
      <path id="DejaVuSerif-Bold-68" d="M 219 0 
L 219 378 
L 691 378 
L 691 4488 
L 197 4488 
L 197 4863 
L 1797 4863 
L 1797 2853 
Q 1997 3150 2253 3281 
Q 2509 3413 2900 3413 
Q 3459 3413 3745 3083 
Q 4031 2753 4031 2113 
L 4031 378 
L 4506 378 
L 4506 0 
L 2522 0 
L 2522 378 
L 2925 378 
L 2925 2144 
Q 2925 2566 2817 2730 
Q 2709 2894 2444 2894 
Q 2109 2894 1953 2648 
Q 1797 2403 1797 1869 
L 1797 378 
L 2203 378 
L 2203 0 
L 219 0 
z
" transform="scale(0.015625)"/>
      <path id="DejaVuSerif-Bold-77" d="M 3450 3322 
L 4206 1106 
L 4831 2944 
L 4397 2944 
L 4397 3322 
L 5638 3322 
L 5638 2944 
L 5247 2944 
L 4244 0 
L 3481 0 
L 2778 2081 
L 2069 0 
L 1313 0 
L 306 2944 
L -56 2944 
L -56 3322 
L 1825 3322 
L 1825 2944 
L 1434 2944 
L 2047 1147 
L 2791 3322 
L 3450 3322 
z
" transform="scale(0.015625)"/>
      <path id="DejaVuSerif-Bold-70" d="M 1728 1825 
L 1728 1497 
Q 1728 916 1876 656 
Q 2025 397 2356 397 
Q 2697 397 2836 672 
Q 2975 947 2975 1663 
Q 2975 2378 2836 2651 
Q 2697 2925 2356 2925 
Q 2025 2925 1876 2665 
Q 1728 2406 1728 1825 
z
M 622 2944 
L 147 2944 
L 147 3322 
L 1728 3322 
L 1728 2900 
Q 1869 3159 2106 3286 
Q 2344 3413 2694 3413 
Q 3403 3413 3811 2945 
Q 4219 2478 4219 1663 
Q 4219 847 3811 378 
Q 3403 -91 2694 -91 
Q 2344 -91 2106 36 
Q 1869 163 1728 422 
L 1728 -953 
L 2241 -953 
L 2241 -1331 
L 147 -1331 
L 147 -953 
L 622 -953 
L 622 2944 
z
" transform="scale(0.015625)"/>
     </defs>
     <use xlink:href="#DejaVuSerif-Bold-43"/>
     <use xlink:href="#DejaVuSerif-Bold-6f" transform="translate(79.589844 0)"/>
     <use xlink:href="#DejaVuSerif-Bold-6e" transform="translate(146.289062 0)"/>
     <use xlink:href="#DejaVuSerif-Bold-6e" transform="translate(218.994141 0)"/>
     <use xlink:href="#DejaVuSerif-Bold-65" transform="translate(291.699219 0)"/>
     <use xlink:href="#DejaVuSerif-Bold-63" transform="translate(355.322266 0)"/>
     <use xlink:href="#DejaVuSerif-Bold-74" transform="translate(416.210938 0)"/>
     <use xlink:href="#DejaVuSerif-Bold-69" transform="translate(462.402344 0)"/>
     <use xlink:href="#DejaVuSerif-Bold-63" transform="translate(500.390625 0)"/>
     <use xlink:href="#DejaVuSerif-Bold-75" transform="translate(561.279297 0)"/>
     <use xlink:href="#DejaVuSerif-Bold-74" transform="translate(633.984375 0)"/>
     <use xlink:href="#DejaVuSerif-Bold-20" transform="translate(680.175781 0)"/>
     <use xlink:href="#DejaVuSerif-Bold-48" transform="translate(714.990234 0)"/>
     <use xlink:href="#DejaVuSerif-Bold-6f" transform="translate(809.472656 0)"/>
     <use xlink:href="#DejaVuSerif-Bold-75" transform="translate(876.171875 0)"/>
     <use xlink:href="#DejaVuSerif-Bold-73" transform="translate(948.876953 0)"/>
     <use xlink:href="#DejaVuSerif-Bold-65" transform="translate(1005.175781 0)"/>
     <use xlink:href="#DejaVuSerif-Bold-3a" transform="translate(1068.798828 0)"/>
     <use xlink:href="#DejaVuSerif-Bold-20" transform="translate(1105.712891 0)"/>
     <use xlink:href="#DejaVuSerif-Bold-64" transform="translate(1140.527344 0)"/>
     <use xlink:href="#DejaVuSerif-Bold-69" transform="translate(1210.449219 0)"/>
     <use xlink:href="#DejaVuSerif-Bold-73" transform="translate(1248.4375 0)"/>
     <use xlink:href="#DejaVuSerif-Bold-74" transform="translate(1304.736328 0)"/>
     <use xlink:href="#DejaVuSerif-Bold-72" transform="translate(1350.927734 0)"/>
     <use xlink:href="#DejaVuSerif-Bold-69" transform="translate(1403.613281 0)"/>
     <use xlink:href="#DejaVuSerif-Bold-63" transform="translate(1441.601562 0)"/>
     <use xlink:href="#DejaVuSerif-Bold-74" transform="translate(1502.490234 0)"/>
     <use xlink:href="#DejaVuSerif-Bold-20" transform="translate(1548.681641 0)"/>
     <use xlink:href="#DejaVuSerif-Bold-6c" transform="translate(1583.496094 0)"/>
     <use xlink:href="#DejaVuSerif-Bold-65" transform="translate(1621.484375 0)"/>
     <use xlink:href="#DejaVuSerif-Bold-61" transform="translate(1685.107422 0)"/>
     <use xlink:href="#DejaVuSerif-Bold-6e" transform="translate(1749.902344 0)"/>
     <use xlink:href="#DejaVuSerif-Bold-20" transform="translate(1822.607422 0)"/>
     <use xlink:href="#DejaVuSerif-Bold-76" transform="translate(1857.421875 0)"/>
     <use xlink:href="#DejaVuSerif-Bold-73" transform="translate(1915.527344 0)"/>
     <use xlink:href="#DejaVuSerif-Bold-2e" transform="translate(1971.826172 0)"/>
     <use xlink:href="#DejaVuSerif-Bold-20" transform="translate(2006.640625 0)"/>
     <use xlink:href="#DejaVuSerif-Bold-68" transform="translate(2041.455078 0)"/>
     <use xlink:href="#DejaVuSerif-Bold-6f" transform="translate(2114.160156 0)"/>
     <use xlink:href="#DejaVuSerif-Bold-77" transform="translate(2180.859375 0)"/>
     <use xlink:href="#DejaVuSerif-Bold-20" transform="translate(2266.943359 0)"/>
     <use xlink:href="#DejaVuSerif-Bold-74" transform="translate(2301.757812 0)"/>
     <use xlink:href="#DejaVuSerif-Bold-68" transform="translate(2347.949219 0)"/>
     <use xlink:href="#DejaVuSerif-Bold-65" transform="translate(2420.654297 0)"/>
     <use xlink:href="#DejaVuSerif-Bold-20" transform="translate(2484.277344 0)"/>
     <use xlink:href="#DejaVuSerif-Bold-72" transform="translate(2519.091797 0)"/>
     <use xlink:href="#DejaVuSerif-Bold-65" transform="translate(2571.777344 0)"/>
     <use xlink:href="#DejaVuSerif-Bold-70" transform="translate(2635.400391 0)"/>
     <use xlink:href="#DejaVuSerif-Bold-72" transform="translate(2705.322266 0)"/>
     <use xlink:href="#DejaVuSerif-Bold-65" transform="translate(2758.007812 0)"/>
     <use xlink:href="#DejaVuSerif-Bold-73" transform="translate(2821.630859 0)"/>
     <use xlink:href="#DejaVuSerif-Bold-65" transform="translate(2877.929688 0)"/>
     <use xlink:href="#DejaVuSerif-Bold-6e" transform="translate(2941.552734 0)"/>
     <use xlink:href="#DejaVuSerif-Bold-74" transform="translate(3014.257812 0)"/>
     <use xlink:href="#DejaVuSerif-Bold-61" transform="translate(3060.449219 0)"/>
     <use xlink:href="#DejaVuSerif-Bold-74" transform="translate(3125.244141 0)"/>
     <use xlink:href="#DejaVuSerif-Bold-69" transform="translate(3171.435547 0)"/>
     <use xlink:href="#DejaVuSerif-Bold-76" transform="translate(3209.423828 0)"/>
     <use xlink:href="#DejaVuSerif-Bold-65" transform="translate(3267.529297 0)"/>
     <use xlink:href="#DejaVuSerif-Bold-20" transform="translate(3331.152344 0)"/>
     <use xlink:href="#DejaVuSerif-Bold-76" transform="translate(3365.966797 0)"/>
     <use xlink:href="#DejaVuSerif-Bold-6f" transform="translate(3424.072266 0)"/>
     <use xlink:href="#DejaVuSerif-Bold-74" transform="translate(3490.771484 0)"/>
     <use xlink:href="#DejaVuSerif-Bold-65" transform="translate(3536.962891 0)"/>
     <use xlink:href="#DejaVuSerif-Bold-73" transform="translate(3600.585938 0)"/>
    </g>
   </g>
   <g id="PathCollection_2">
    <path d="M 295.525168 459.34041 
C 297.821895 459.34041 300.024862 458.427911 301.648893 456.80388 
C 303.272923 455.179849 304.185422 452.976882 304.185422 450.680156 
C 304.185422 448.383429 303.272923 446.180462 301.648893 444.556431 
C 300.024862 442.932401 297.821895 442.019902 295.525168 442.019902 
C 293.228442 442.019902 291.025475 442.932401 289.401444 444.556431 
C 287.777413 446.180462 286.864914 448.383429 286.864914 450.680156 
C 286.864914 452.976882 287.777413 455.179849 289.401444 456.80388 
C 291.025475 458.427911 293.228442 459.34041 295.525168 459.34041 
L 295.525168 459.34041 
z
" clip-path="url(#p8893893a1b)" style="fill: none; stroke: #e8a800; stroke-width: 2.2"/>
   </g>
   <g id="PathCollection_3">
    <defs>
     <path id="mec46f46442" d="M 0 5.477226 
C 1.452577 5.477226 2.845856 4.900111 3.872983 3.872983 
C 4.900111 2.845856 5.477226 1.452577 5.477226 0 
C 5.477226 -1.452577 4.900111 -2.845856 3.872983 -3.872983 
C 2.845856 -4.900111 1.452577 -5.477226 0 -5.477226 
C -1.452577 -5.477226 -2.845856 -4.900111 -3.872983 -3.872983 
C -4.900111 -2.845856 -5.477226 -1.452577 -5.477226 0 
C -5.477226 1.452577 -4.900111 2.845856 -3.872983 3.872983 
C -2.845856 4.900111 -1.452577 5.477226 0 5.477226 
z
" style="stroke: #ffffff; stroke-width: 0.8"/>
    </defs>
    <g clip-path="url(#p8893893a1b)">
     <use xlink:href="#mec46f46442" x="295.525168" y="450.680156" style="fill: #0f2a4a; stroke: #ffffff; stroke-width: 0.8"/>
    </g>
   </g>
  </g>
 </g>
 <defs>
  <clipPath id="p8893893a1b">
   <rect x="45.430234" y="31.457891" width="732.04" height="484.44"/>
  </clipPath>
 </defs>
</svg>
