<svg xmlns="http://www.w3.org/2000/svg" viewBox="0 0 700 540" width="700" height="540" role="img" preserveAspectRatio="xMidYMid meet">
  <title>AES preschool 2026–27 (projected): early enrollment snapshot</title>
  <desc>Projected enrollment for 2026–27 as of early May 2026. 46 Andover residents already enrolled, with ~9–11 more anticipated based on town birth records. 4 out-of-town returning students invited back. Pink/high-needs students are not separately marked here to protect identity at this projection stage.</desc>
  <line x1="350.0" y1="20" x2="350.0" y2="460" stroke="#888888" stroke-width="0.8"/><line x1="20" y1="240.0" x2="680" y2="240.0" stroke="#888888" stroke-width="0.8"/>
  <text x="28" y="34" font-family="Helvetica, Arial, sans-serif" font-size="20" font-weight="500" fill="#222222">Class A</text>
  <text x="252" y="34" font-family="Helvetica, Arial, sans-serif" font-size="14" font-weight="400" fill="#555555" text-anchor="end">2026–27</text>
  <circle cx="42" cy="74" r="14" fill="#3B82C9" stroke="#1E5A99" stroke-width="1.2"/>
  <circle cx="78" cy="74" r="14" fill="#3B82C9" stroke="#1E5A99" stroke-width="1.2"/>
  <circle cx="114" cy="74" r="14" fill="#3B82C9" stroke="#1E5A99" stroke-width="1.2"/>
  <circle cx="150" cy="74" r="14" fill="#3B82C9" stroke="#1E5A99" stroke-width="1.2"/>
  <circle cx="186" cy="74" r="14" fill="#5DA34A" stroke="#3F7330" stroke-width="1.2"/>
  <circle cx="222" cy="74" r="14" fill="#FFFFFF" stroke="#888888" stroke-width="1.2"/>
  <circle cx="42" cy="110" r="14" fill="#3B82C9" stroke="#1E5A99" stroke-width="1.2"/>
  <circle cx="78" cy="110" r="14" fill="#3B82C9" stroke="#1E5A99" stroke-width="1.2"/>
  <circle cx="114" cy="110" r="14" fill="#3B82C9" stroke="#1E5A99" stroke-width="1.2"/>
  <circle cx="150" cy="110" r="14" fill="#3B82C9" stroke="#1E5A99" stroke-width="1.2"/>
  <circle cx="186" cy="110" r="14" fill="#FFFFFF" stroke="#888888" stroke-width="1.2"/>
  <circle cx="222" cy="110" r="14" fill="#FFFFFF" stroke="#888888" stroke-width="1.2"/>
  <circle cx="42" cy="146" r="14" fill="#3B82C9" stroke="#1E5A99" stroke-width="1.2"/>
  <circle cx="78" cy="146" r="14" fill="#3B82C9" stroke="#1E5A99" stroke-width="1.2"/>
  <circle cx="114" cy="146" r="14" fill="#3B82C9" stroke="#1E5A99" stroke-width="1.2"/>
  <circle cx="150" cy="146" r="14" fill="#3B82C9" stroke="#1E5A99" stroke-width="1.2"/>
  <circle cx="186" cy="146" r="14" fill="#FFFFFF" stroke="#888888" stroke-width="1.2"/>
  <circle cx="222" cy="146" r="14" fill="#FFFFFF" stroke="#888888" stroke-width="1.2"/>
  <text x="378.0" y="34" font-family="Helvetica, Arial, sans-serif" font-size="20" font-weight="500" fill="#222222">Class B</text>
  <circle cx="392.0" cy="74" r="14" fill="#3B82C9" stroke="#1E5A99" stroke-width="1.2"/>
  <circle cx="428.0" cy="74" r="14" fill="#3B82C9" stroke="#1E5A99" stroke-width="1.2"/>
  <circle cx="464.0" cy="74" r="14" fill="#3B82C9" stroke="#1E5A99" stroke-width="1.2"/>
  <circle cx="500.0" cy="74" r="14" fill="#3B82C9" stroke="#1E5A99" stroke-width="1.2"/>
  <circle cx="536.0" cy="74" r="14" fill="#FFFFFF" stroke="#888888" stroke-width="1.2"/>
  <circle cx="572.0" cy="74" r="14" fill="#FFFFFF" stroke="#888888" stroke-width="1.2"/>
  <circle cx="392.0" cy="110" r="14" fill="#3B82C9" stroke="#1E5A99" stroke-width="1.2"/>
  <circle cx="428.0" cy="110" r="14" fill="#3B82C9" stroke="#1E5A99" stroke-width="1.2"/>
  <circle cx="464.0" cy="110" r="14" fill="#3B82C9" stroke="#1E5A99" stroke-width="1.2"/>
  <circle cx="500.0" cy="110" r="14" fill="#3B82C9" stroke="#1E5A99" stroke-width="1.2"/>
  <circle cx="536.0" cy="110" r="14" fill="#FFFFFF" stroke="#888888" stroke-width="1.2"/>
  <circle cx="572.0" cy="110" r="14" fill="#FFFFFF" stroke="#888888" stroke-width="1.2"/>
  <circle cx="392.0" cy="146" r="14" fill="#3B82C9" stroke="#1E5A99" stroke-width="1.2"/>
  <circle cx="428.0" cy="146" r="14" fill="#3B82C9" stroke="#1E5A99" stroke-width="1.2"/>
  <circle cx="464.0" cy="146" r="14" fill="#3B82C9" stroke="#1E5A99" stroke-width="1.2"/>
  <circle cx="500.0" cy="146" r="14" fill="#5DA34A" stroke="#3F7330" stroke-width="1.2"/>
  <circle cx="536.0" cy="146" r="14" fill="#FFFFFF" stroke="#888888" stroke-width="1.2"/>
  <circle cx="572.0" cy="146" r="14" fill="#FFFFFF" stroke="#888888" stroke-width="1.2"/>
  <text x="28" y="274.0" font-family="Helvetica, Arial, sans-serif" font-size="20" font-weight="500" fill="#222222">Class C</text>
  <circle cx="42" cy="314.0" r="14" fill="#3B82C9" stroke="#1E5A99" stroke-width="1.2"/>
  <circle cx="78" cy="314.0" r="14" fill="#3B82C9" stroke="#1E5A99" stroke-width="1.2"/>
  <circle cx="114" cy="314.0" r="14" fill="#3B82C9" stroke="#1E5A99" stroke-width="1.2"/>
  <circle cx="150" cy="314.0" r="14" fill="#5DA34A" stroke="#3F7330" stroke-width="1.2"/>
  <circle cx="186" cy="314.0" r="14" fill="#FFFFFF" stroke="#888888" stroke-width="1.2"/>
  <circle cx="222" cy="314.0" r="14" fill="#FFFFFF" stroke="#888888" stroke-width="1.2"/>
  <circle cx="42" cy="350.0" r="14" fill="#3B82C9" stroke="#1E5A99" stroke-width="1.2"/>
  <circle cx="78" cy="350.0" r="14" fill="#3B82C9" stroke="#1E5A99" stroke-width="1.2"/>
  <circle cx="114" cy="350.0" r="14" fill="#3B82C9" stroke="#1E5A99" stroke-width="1.2"/>
  <circle cx="150" cy="350.0" r="14" fill="#3B82C9" stroke="#1E5A99" stroke-width="1.2"/>
  <circle cx="186" cy="350.0" r="14" fill="#FFFFFF" stroke="#888888" stroke-width="1.2"/>
  <circle cx="222" cy="350.0" r="14" fill="#FFFFFF" stroke="#888888" stroke-width="1.2"/>
  <circle cx="42" cy="386.0" r="14" fill="#3B82C9" stroke="#1E5A99" stroke-width="1.2"/>
  <circle cx="78" cy="386.0" r="14" fill="#3B82C9" stroke="#1E5A99" stroke-width="1.2"/>
  <circle cx="114" cy="386.0" r="14" fill="#3B82C9" stroke="#1E5A99" stroke-width="1.2"/>
  <circle cx="150" cy="386.0" r="14" fill="#3B82C9" stroke="#1E5A99" stroke-width="1.2"/>
  <circle cx="186" cy="386.0" r="14" fill="#FFFFFF" stroke="#888888" stroke-width="1.2"/>
  <circle cx="222" cy="386.0" r="14" fill="#FFFFFF" stroke="#888888" stroke-width="1.2"/>
  <text x="378.0" y="274.0" font-family="Helvetica, Arial, sans-serif" font-size="20" font-weight="500" fill="#222222">Class D</text>
  <circle cx="392.0" cy="314.0" r="14" fill="#3B82C9" stroke="#1E5A99" stroke-width="1.2"/>
  <circle cx="428.0" cy="314.0" r="14" fill="#3B82C9" stroke="#1E5A99" stroke-width="1.2"/>
  <circle cx="464.0" cy="314.0" r="14" fill="#3B82C9" stroke="#1E5A99" stroke-width="1.2"/>
  <circle cx="500.0" cy="314.0" r="14" fill="#3B82C9" stroke="#1E5A99" stroke-width="1.2"/>
  <circle cx="536.0" cy="314.0" r="14" fill="#FFFFFF" stroke="#888888" stroke-width="1.2"/>
  <circle cx="572.0" cy="314.0" r="14" fill="#FFFFFF" stroke="#888888" stroke-width="1.2"/>
  <circle cx="392.0" cy="350.0" r="14" fill="#3B82C9" stroke="#1E5A99" stroke-width="1.2"/>
  <circle cx="428.0" cy="350.0" r="14" fill="#3B82C9" stroke="#1E5A99" stroke-width="1.2"/>
  <circle cx="464.0" cy="350.0" r="14" fill="#3B82C9" stroke="#1E5A99" stroke-width="1.2"/>
  <circle cx="500.0" cy="350.0" r="14" fill="#3B82C9" stroke="#1E5A99" stroke-width="1.2"/>
  <circle cx="536.0" cy="350.0" r="14" fill="#FFFFFF" stroke="#888888" stroke-width="1.2"/>
  <circle cx="572.0" cy="350.0" r="14" fill="#FFFFFF" stroke="#888888" stroke-width="1.2"/>
  <circle cx="392.0" cy="386.0" r="14" fill="#3B82C9" stroke="#1E5A99" stroke-width="1.2"/>
  <circle cx="428.0" cy="386.0" r="14" fill="#3B82C9" stroke="#1E5A99" stroke-width="1.2"/>
  <circle cx="464.0" cy="386.0" r="14" fill="#3B82C9" stroke="#1E5A99" stroke-width="1.2"/>
  <circle cx="500.0" cy="386.0" r="14" fill="#5DA34A" stroke="#3F7330" stroke-width="1.2"/>
  <circle cx="536.0" cy="386.0" r="14" fill="#FFFFFF" stroke="#888888" stroke-width="1.2"/>
  <circle cx="572.0" cy="386.0" r="14" fill="#FFFFFF" stroke="#888888" stroke-width="1.2"/>
  <circle cx="34" cy="510.0" r="14" fill="#3B82C9" stroke="#1E5A99" stroke-width="1.2"/>
  <text x="56" y="515.0" font-family="Helvetica, Arial, sans-serif" font-size="13" font-weight="400" fill="#222222">Andover resident</text>
  <circle cx="202" cy="510.0" r="14" fill="#5DA34A" stroke="#3F7330" stroke-width="1.2"/>
  <text x="224" y="515.0" font-family="Helvetica, Arial, sans-serif" font-size="13" font-weight="400" fill="#222222">Out-of-town (returning enrollee)</text>
  <circle cx="482" cy="510.0" r="14" fill="#FFFFFF" stroke="#888888" stroke-width="1.2"/>
  <text x="504" y="515.0" font-family="Helvetica, Arial, sans-serif" font-size="13" font-weight="400" fill="#222222">Open seat</text>
</svg>
