<svg xmlns="http://www.w3.org/2000/svg" viewBox="0 0 700 560" width="700" height="560" role="img" preserveAspectRatio="xMidYMid meet">
  <title>AES preschool 2025–26: high-needs distribution</title>
  <desc>Same residents shown with high-needs students (IEP, 504, Birth-to-Three, referral) marked in pink. Total of 9 high-needs students distributed across all four rooms — a legal requirement under federal IDEA Section 619 and state IEP/504 rules.</desc>
  <line x1="350.0" y1="20" x2="350.0" y2="480" stroke="#888888" stroke-width="0.8"/><line x1="20" y1="250.0" x2="680" y2="250.0" stroke="#888888" stroke-width="0.8"/>
  <text x="28" y="34" font-family="Helvetica, Arial, sans-serif" font-size="20" font-weight="500" fill="#222222">Class A</text>
  <circle cx="42" cy="74" r="14" fill="#C03478" stroke="#8B2456" stroke-width="1.2"/>
  <circle cx="78" cy="74" r="14" fill="#3B82C9" stroke="#1E5A99" stroke-width="1.2"/>
  <circle cx="114" cy="74" r="14" fill="#3B82C9" stroke="#1E5A99" stroke-width="1.2"/>
  <circle cx="150" cy="74" r="14" fill="#3B82C9" stroke="#1E5A99" stroke-width="1.2"/>
  <circle cx="186" cy="74" r="14" fill="#3B82C9" stroke="#1E5A99" stroke-width="1.2"/>
  <circle cx="42" cy="110" r="14" fill="#C03478" stroke="#8B2456" stroke-width="1.2"/>
  <circle cx="78" cy="110" r="14" fill="#3B82C9" stroke="#1E5A99" stroke-width="1.2"/>
  <circle cx="114" cy="110" r="14" fill="#3B82C9" stroke="#1E5A99" stroke-width="1.2"/>
  <circle cx="150" cy="110" r="14" fill="#3B82C9" stroke="#1E5A99" stroke-width="1.2"/>
  <circle cx="186" cy="110" r="14" fill="#3B82C9" stroke="#1E5A99" stroke-width="1.2"/>
  <circle cx="222" cy="110" r="14" fill="#FFFFFF" stroke="#888888" stroke-width="1.2"/>
  <circle cx="42" cy="146" r="14" fill="#3B82C9" stroke="#1E5A99" stroke-width="1.2"/>
  <circle cx="78" cy="146" r="14" fill="#3B82C9" stroke="#1E5A99" stroke-width="1.2"/>
  <circle cx="114" cy="146" r="14" fill="#3B82C9" stroke="#1E5A99" stroke-width="1.2"/>
  <circle cx="150" cy="146" r="14" fill="#3B82C9" stroke="#1E5A99" stroke-width="1.2"/>
  <circle cx="186" cy="146" r="14" fill="#3B82C9" stroke="#1E5A99" stroke-width="1.2"/>
  <text x="378.0" y="34" font-family="Helvetica, Arial, sans-serif" font-size="20" font-weight="500" fill="#222222">Class B</text>
  <circle cx="392.0" cy="74" r="14" fill="#C03478" stroke="#8B2456" stroke-width="1.2"/>
  <circle cx="428.0" cy="74" r="14" fill="#3B82C9" stroke="#1E5A99" stroke-width="1.2"/>
  <circle cx="464.0" cy="74" r="14" fill="#3B82C9" stroke="#1E5A99" stroke-width="1.2"/>
  <circle cx="500.0" cy="74" r="14" fill="#3B82C9" stroke="#1E5A99" stroke-width="1.2"/>
  <circle cx="536.0" cy="74" r="14" fill="#FFFFFF" stroke="#888888" stroke-width="1.2"/>
  <circle cx="392.0" cy="110" r="14" fill="#C03478" stroke="#8B2456" stroke-width="1.2"/>
  <circle cx="428.0" cy="110" r="14" fill="#3B82C9" stroke="#1E5A99" stroke-width="1.2"/>
  <circle cx="464.0" cy="110" r="14" fill="#3B82C9" stroke="#1E5A99" stroke-width="1.2"/>
  <circle cx="500.0" cy="110" r="14" fill="#3B82C9" stroke="#1E5A99" stroke-width="1.2"/>
  <circle cx="536.0" cy="110" r="14" fill="#FFFFFF" stroke="#888888" stroke-width="1.2"/>
  <circle cx="572.0" cy="110" r="14" fill="#FFFFFF" stroke="#888888" stroke-width="1.2"/>
  <circle cx="392.0" cy="146" r="14" fill="#3B82C9" stroke="#1E5A99" stroke-width="1.2"/>
  <circle cx="428.0" cy="146" r="14" fill="#3B82C9" stroke="#1E5A99" stroke-width="1.2"/>
  <circle cx="464.0" cy="146" r="14" fill="#3B82C9" stroke="#1E5A99" stroke-width="1.2"/>
  <circle cx="500.0" cy="146" r="14" fill="#3B82C9" stroke="#1E5A99" stroke-width="1.2"/>
  <circle cx="536.0" cy="146" r="14" fill="#FFFFFF" stroke="#888888" stroke-width="1.2"/>
  <text x="28" y="284.0" font-family="Helvetica, Arial, sans-serif" font-size="20" font-weight="500" fill="#222222">Class C</text>
  <circle cx="42" cy="324.0" r="14" fill="#C03478" stroke="#8B2456" stroke-width="1.2"/>
  <circle cx="78" cy="324.0" r="14" fill="#3B82C9" stroke="#1E5A99" stroke-width="1.2"/>
  <circle cx="114" cy="324.0" r="14" fill="#3B82C9" stroke="#1E5A99" stroke-width="1.2"/>
  <circle cx="150" cy="324.0" r="14" fill="#3B82C9" stroke="#1E5A99" stroke-width="1.2"/>
  <circle cx="186" cy="324.0" r="14" fill="#3B82C9" stroke="#1E5A99" stroke-width="1.2"/>
  <circle cx="222" cy="324.0" r="14" fill="#3B82C9" stroke="#1E5A99" stroke-width="1.2"/>
  <circle cx="42" cy="360.0" r="14" fill="#C03478" stroke="#8B2456" stroke-width="1.2"/>
  <circle cx="78" cy="360.0" r="14" fill="#3B82C9" stroke="#1E5A99" stroke-width="1.2"/>
  <circle cx="114" cy="360.0" r="14" fill="#3B82C9" stroke="#1E5A99" stroke-width="1.2"/>
  <circle cx="150" cy="360.0" r="14" fill="#3B82C9" stroke="#1E5A99" stroke-width="1.2"/>
  <circle cx="186" cy="360.0" r="14" fill="#3B82C9" stroke="#1E5A99" stroke-width="1.2"/>
  <circle cx="222" cy="360.0" r="14" fill="#FFFFFF" stroke="#888888" stroke-width="1.2"/>
  <circle cx="42" cy="396.0" r="14" fill="#C03478" stroke="#8B2456" stroke-width="1.2"/>
  <circle cx="78" cy="396.0" r="14" fill="#3B82C9" stroke="#1E5A99" stroke-width="1.2"/>
  <circle cx="114" cy="396.0" r="14" fill="#3B82C9" stroke="#1E5A99" stroke-width="1.2"/>
  <circle cx="150" cy="396.0" r="14" fill="#3B82C9" stroke="#1E5A99" stroke-width="1.2"/>
  <circle cx="186" cy="396.0" r="14" fill="#3B82C9" stroke="#1E5A99" stroke-width="1.2"/>
  <text x="378.0" y="284.0" font-family="Helvetica, Arial, sans-serif" font-size="20" font-weight="500" fill="#222222">Class D</text>
  <circle cx="392.0" cy="324.0" r="14" fill="#C03478" stroke="#8B2456" stroke-width="1.2"/>
  <circle cx="428.0" cy="324.0" r="14" fill="#3B82C9" stroke="#1E5A99" stroke-width="1.2"/>
  <circle cx="464.0" cy="324.0" r="14" fill="#3B82C9" stroke="#1E5A99" stroke-width="1.2"/>
  <circle cx="500.0" cy="324.0" r="14" fill="#3B82C9" stroke="#1E5A99" stroke-width="1.2"/>
  <circle cx="536.0" cy="324.0" r="14" fill="#FFFFFF" stroke="#888888" stroke-width="1.2"/>
  <circle cx="572.0" cy="324.0" r="14" fill="#FFFFFF" stroke="#888888" stroke-width="1.2"/>
  <circle cx="392.0" cy="360.0" r="14" fill="#C03478" stroke="#8B2456" stroke-width="1.2"/>
  <circle cx="428.0" cy="360.0" r="14" fill="#3B82C9" stroke="#1E5A99" stroke-width="1.2"/>
  <circle cx="464.0" cy="360.0" r="14" fill="#3B82C9" stroke="#1E5A99" stroke-width="1.2"/>
  <circle cx="500.0" cy="360.0" r="14" fill="#3B82C9" stroke="#1E5A99" stroke-width="1.2"/>
  <circle cx="536.0" cy="360.0" r="14" fill="#3B82C9" stroke="#1E5A99" stroke-width="1.2"/>
  <circle cx="572.0" cy="360.0" r="14" fill="#FFFFFF" stroke="#888888" stroke-width="1.2"/>
  <circle cx="392.0" cy="396.0" r="14" fill="#3B82C9" stroke="#1E5A99" stroke-width="1.2"/>
  <circle cx="428.0" cy="396.0" r="14" fill="#3B82C9" stroke="#1E5A99" stroke-width="1.2"/>
  <circle cx="464.0" cy="396.0" r="14" fill="#3B82C9" stroke="#1E5A99" stroke-width="1.2"/>
  <circle cx="500.0" cy="396.0" r="14" fill="#3B82C9" stroke="#1E5A99" stroke-width="1.2"/>
  <circle cx="536.0" cy="396.0" r="14" fill="#3B82C9" stroke="#1E5A99" stroke-width="1.2"/>
  <circle cx="572.0" cy="396.0" r="14" fill="#FFFFFF" stroke="#888888" stroke-width="1.2"/>
  <circle cx="34" cy="530.0" r="14" fill="#3B82C9" stroke="#1E5A99" stroke-width="1.2"/>
  <text x="56" y="535.0" font-family="Helvetica, Arial, sans-serif" font-size="13" font-weight="400" fill="#222222">Andover resident, gen-ed</text>
  <circle cx="258" cy="530.0" r="14" fill="#C03478" stroke="#8B2456" stroke-width="1.2"/>
  <text x="280" y="535.0" font-family="Helvetica, Arial, sans-serif" font-size="13" font-weight="400" fill="#222222">Andover resident, high needs</text>
  <circle cx="510" cy="530.0" r="14" fill="#FFFFFF" stroke="#888888" stroke-width="1.2"/>
  <text x="532" y="535.0" font-family="Helvetica, Arial, sans-serif" font-size="13" font-weight="400" fill="#222222">Open seat</text>
</svg>
