<svg xmlns="http://www.w3.org/2000/svg" viewBox="0 0 760 660" width="760" height="660" role="img" preserveAspectRatio="xMidYMid meet">
  <title>AES preschool 2025–26: full enrollment with tuition revenue</title>
  <desc>The full current-year picture with out-of-town tuition payers (green) added. Yellow boxes mark seats producing or potentially producing $6,000-per-year tuition revenue. Eight out-of-town students currently enrolled (~$48,000 revenue); seven open seats remain (~$42,000 additional possible).</desc>
  <line x1="380.0" y1="20" x2="380.0" y2="560" stroke="#888888" stroke-width="0.8"/><line x1="20" y1="290.0" x2="740" y2="290.0" stroke="#888888" stroke-width="0.8"/>
  <text x="28" y="34" font-family="Helvetica, Arial, sans-serif" font-size="20" font-weight="500" fill="#222222">Class A</text>
  <circle cx="42" cy="74" r="14" fill="#C03478" stroke="#8B2456" stroke-width="1.2"/>
  <circle cx="78" cy="74" r="14" fill="#3B82C9" stroke="#1E5A99" stroke-width="1.2"/>
  <circle cx="114" cy="74" r="14" fill="#3B82C9" stroke="#1E5A99" stroke-width="1.2"/>
  <circle cx="150" cy="74" r="14" fill="#3B82C9" stroke="#1E5A99" stroke-width="1.2"/>
  <circle cx="186" cy="74" r="14" fill="#3B82C9" stroke="#1E5A99" stroke-width="1.2"/>
  <circle cx="42" cy="110" r="14" fill="#C03478" stroke="#8B2456" stroke-width="1.2"/>
  <circle cx="78" cy="110" r="14" fill="#3B82C9" stroke="#1E5A99" stroke-width="1.2"/>
  <circle cx="114" cy="110" r="14" fill="#3B82C9" stroke="#1E5A99" stroke-width="1.2"/>
  <circle cx="150" cy="110" r="14" fill="#3B82C9" stroke="#1E5A99" stroke-width="1.2"/>
  <circle cx="186" cy="110" r="14" fill="#3B82C9" stroke="#1E5A99" stroke-width="1.2"/>
  <circle cx="222" cy="110" r="14" fill="#FFFFFF" stroke="#888888" stroke-width="1.2"/>
  <circle cx="42" cy="146" r="14" fill="#3B82C9" stroke="#1E5A99" stroke-width="1.2"/>
  <circle cx="78" cy="146" r="14" fill="#3B82C9" stroke="#1E5A99" stroke-width="1.2"/>
  <circle cx="114" cy="146" r="14" fill="#3B82C9" stroke="#1E5A99" stroke-width="1.2"/>
  <circle cx="150" cy="146" r="14" fill="#3B82C9" stroke="#1E5A99" stroke-width="1.2"/>
  <circle cx="186" cy="146" r="14" fill="#3B82C9" stroke="#1E5A99" stroke-width="1.2"/>
  <text x="408.0" y="34" font-family="Helvetica, Arial, sans-serif" font-size="20" font-weight="500" fill="#222222">Class B</text>
  <circle cx="422.0" cy="74" r="14" fill="#C03478" stroke="#8B2456" stroke-width="1.2"/>
  <circle cx="458.0" cy="74" r="14" fill="#3B82C9" stroke="#1E5A99" stroke-width="1.2"/>
  <circle cx="494.0" cy="74" r="14" fill="#3B82C9" stroke="#1E5A99" stroke-width="1.2"/>
  <circle cx="530.0" cy="74" r="14" fill="#3B82C9" stroke="#1E5A99" stroke-width="1.2"/>
  <circle cx="566.0" cy="74" r="14" fill="#5DA34A" stroke="#3F7330" stroke-width="1.2"/>
  <circle cx="422.0" cy="110" r="14" fill="#C03478" stroke="#8B2456" stroke-width="1.2"/>
  <circle cx="458.0" cy="110" r="14" fill="#3B82C9" stroke="#1E5A99" stroke-width="1.2"/>
  <circle cx="494.0" cy="110" r="14" fill="#3B82C9" stroke="#1E5A99" stroke-width="1.2"/>
  <circle cx="530.0" cy="110" r="14" fill="#3B82C9" stroke="#1E5A99" stroke-width="1.2"/>
  <circle cx="566.0" cy="110" r="14" fill="#5DA34A" stroke="#3F7330" stroke-width="1.2"/>
  <circle cx="602.0" cy="110" r="14" fill="#FFFFFF" stroke="#888888" stroke-width="1.2"/>
  <circle cx="422.0" cy="146" r="14" fill="#5DA34A" stroke="#3F7330" stroke-width="1.2"/>
  <circle cx="458.0" cy="146" r="14" fill="#3B82C9" stroke="#1E5A99" stroke-width="1.2"/>
  <circle cx="494.0" cy="146" r="14" fill="#3B82C9" stroke="#1E5A99" stroke-width="1.2"/>
  <circle cx="530.0" cy="146" r="14" fill="#3B82C9" stroke="#1E5A99" stroke-width="1.2"/>
  <circle cx="566.0" cy="146" r="14" fill="#FFFFFF" stroke="#888888" stroke-width="1.2"/>
  <text x="28" y="324.0" font-family="Helvetica, Arial, sans-serif" font-size="20" font-weight="500" fill="#222222">Class C</text>
  <circle cx="42" cy="364.0" r="14" fill="#C03478" stroke="#8B2456" stroke-width="1.2"/>
  <circle cx="78" cy="364.0" r="14" fill="#5DA34A" stroke="#3F7330" stroke-width="1.2"/>
  <circle cx="114" cy="364.0" r="14" fill="#3B82C9" stroke="#1E5A99" stroke-width="1.2"/>
  <circle cx="150" cy="364.0" r="14" fill="#3B82C9" stroke="#1E5A99" stroke-width="1.2"/>
  <circle cx="186" cy="364.0" r="14" fill="#3B82C9" stroke="#1E5A99" stroke-width="1.2"/>
  <circle cx="222" cy="364.0" r="14" fill="#3B82C9" stroke="#1E5A99" stroke-width="1.2"/>
  <circle cx="42" cy="400.0" r="14" fill="#C03478" stroke="#8B2456" stroke-width="1.2"/>
  <circle cx="78" cy="400.0" r="14" fill="#3B82C9" stroke="#1E5A99" stroke-width="1.2"/>
  <circle cx="114" cy="400.0" r="14" fill="#3B82C9" stroke="#1E5A99" stroke-width="1.2"/>
  <circle cx="150" cy="400.0" r="14" fill="#3B82C9" stroke="#1E5A99" stroke-width="1.2"/>
  <circle cx="186" cy="400.0" r="14" fill="#3B82C9" stroke="#1E5A99" stroke-width="1.2"/>
  <circle cx="222" cy="400.0" r="14" fill="#FFFFFF" stroke="#888888" stroke-width="1.2"/>
  <circle cx="42" cy="436.0" r="14" fill="#C03478" stroke="#8B2456" stroke-width="1.2"/>
  <circle cx="78" cy="436.0" r="14" fill="#3B82C9" stroke="#1E5A99" stroke-width="1.2"/>
  <circle cx="114" cy="436.0" r="14" fill="#3B82C9" stroke="#1E5A99" stroke-width="1.2"/>
  <circle cx="150" cy="436.0" r="14" fill="#3B82C9" stroke="#1E5A99" stroke-width="1.2"/>
  <circle cx="186" cy="436.0" r="14" fill="#3B82C9" stroke="#1E5A99" stroke-width="1.2"/>
  <text x="408.0" y="324.0" font-family="Helvetica, Arial, sans-serif" font-size="20" font-weight="500" fill="#222222">Class D</text>
  <circle cx="422.0" cy="364.0" r="14" fill="#C03478" stroke="#8B2456" stroke-width="1.2"/>
  <circle cx="458.0" cy="364.0" r="14" fill="#5DA34A" stroke="#3F7330" stroke-width="1.2"/>
  <circle cx="494.0" cy="364.0" r="14" fill="#3B82C9" stroke="#1E5A99" stroke-width="1.2"/>
  <circle cx="530.0" cy="364.0" r="14" fill="#3B82C9" stroke="#1E5A99" stroke-width="1.2"/>
  <circle cx="566.0" cy="364.0" r="14" fill="#5DA34A" stroke="#3F7330" stroke-width="1.2"/>
  <circle cx="602.0" cy="364.0" r="14" fill="#FFFFFF" stroke="#888888" stroke-width="1.2"/>
  <circle cx="422.0" cy="400.0" r="14" fill="#C03478" stroke="#8B2456" stroke-width="1.2"/>
  <circle cx="458.0" cy="400.0" r="14" fill="#5DA34A" stroke="#3F7330" stroke-width="1.2"/>
  <circle cx="494.0" cy="400.0" r="14" fill="#3B82C9" stroke="#1E5A99" stroke-width="1.2"/>
  <circle cx="530.0" cy="400.0" r="14" fill="#3B82C9" stroke="#1E5A99" stroke-width="1.2"/>
  <circle cx="566.0" cy="400.0" r="14" fill="#3B82C9" stroke="#1E5A99" stroke-width="1.2"/>
  <circle cx="602.0" cy="400.0" r="14" fill="#FFFFFF" stroke="#888888" stroke-width="1.2"/>
  <circle cx="422.0" cy="436.0" r="14" fill="#3B82C9" stroke="#1E5A99" stroke-width="1.2"/>
  <circle cx="458.0" cy="436.0" r="14" fill="#5DA34A" stroke="#3F7330" stroke-width="1.2"/>
  <circle cx="494.0" cy="436.0" r="14" fill="#3B82C9" stroke="#1E5A99" stroke-width="1.2"/>
  <circle cx="530.0" cy="436.0" r="14" fill="#3B82C9" stroke="#1E5A99" stroke-width="1.2"/>
  <circle cx="566.0" cy="436.0" r="14" fill="#3B82C9" stroke="#1E5A99" stroke-width="1.2"/>
  <circle cx="602.0" cy="436.0" r="14" fill="#FFFFFF" stroke="#888888" stroke-width="1.2"/>
  <rect x="204" y="92" width="36" height="36" rx="4" fill="#F4D35E" fill-opacity="0.45" stroke="#C9A526" stroke-width="1.2"/>
  <text x="248" y="115" font-family="Helvetica, Arial, sans-serif" font-size="12" font-weight="500" fill="#222222" text-anchor="start">$6,000 tuition</text>
  <rect x="548.0" y="56" width="76" height="112" rx="6" fill="#F4D35E" fill-opacity="0.4" stroke="#C9A526" stroke-width="1.2"/>
  <text x="586.0" y="186" font-family="Helvetica, Arial, sans-serif" font-size="12" font-weight="500" fill="#222222" text-anchor="middle">$30,000 tuition (3 enrolled + 2 open)</text>
  <rect x="60" y="346.0" width="36" height="36" rx="4" fill="#F4D35E" fill-opacity="0.45" stroke="#C9A526" stroke-width="1.2"/>
  <rect x="204" y="382.0" width="36" height="36" rx="4" fill="#F4D35E" fill-opacity="0.45" stroke="#C9A526" stroke-width="1.2"/>
  <text x="150.0" y="472.0" font-family="Helvetica, Arial, sans-serif" font-size="12" font-weight="500" fill="#222222" text-anchor="middle">$12,000 tuition (1 enrolled + 1 open)</text>
  <rect x="440.0" y="346.0" width="36" height="112" rx="4" fill="#F4D35E" fill-opacity="0.4" stroke="#C9A526" stroke-width="1.2"/>
  <rect x="584.0" y="346.0" width="36" height="112" rx="4" fill="#F4D35E" fill-opacity="0.4" stroke="#C9A526" stroke-width="1.2"/>
  <rect x="548.0" y="346.0" width="36" height="36" rx="4" fill="#F4D35E" fill-opacity="0.4" stroke="#C9A526" stroke-width="1.2"/>
  <text x="520.0" y="480.0" font-family="Helvetica, Arial, sans-serif" font-size="12" font-weight="500" fill="#222222" text-anchor="middle">$42,000 tuition (4 enrolled + 3 open)</text>
  <circle cx="34" cy="604" r="14" fill="#3B82C9" stroke="#1E5A99" stroke-width="1.2"/>
  <text x="56" y="609" font-family="Helvetica, Arial, sans-serif" font-size="13" font-weight="400" fill="#222222">Andover resident, gen-ed</text>
  <circle cx="258" cy="604" r="14" fill="#C03478" stroke="#8B2456" stroke-width="1.2"/>
  <text x="280" y="609" font-family="Helvetica, Arial, sans-serif" font-size="13" font-weight="400" fill="#222222">Andover resident, high needs</text>
  <circle cx="34" cy="636" r="14" fill="#5DA34A" stroke="#3F7330" stroke-width="1.2"/>
  <text x="56" y="641" font-family="Helvetica, Arial, sans-serif" font-size="13" font-weight="400" fill="#222222">Out-of-town tuition payer</text>
  <circle cx="265" cy="636" r="14" fill="#FFFFFF" stroke="#888888" stroke-width="1.2"/>
  <text x="287" y="641" font-family="Helvetica, Arial, sans-serif" font-size="13" font-weight="400" fill="#222222">Open seat</text>
</svg>
